<?xml version="1.0" encoding="UTF-8"?>
<svg width="1000px" height="1000px" viewBox="0 0 1000 1000" version="1.1" xmlns="http://www.w3.org/2000/svg" xmlns:xlink="http://www.w3.org/1999/xlink">
    <!-- Generator: sketchtool 53.2 (72643) - https://sketchapp.com -->
    <title>add-o</title>
    <desc>Created with sketchtool.</desc>
    <g id="icons" stroke="none" stroke-width="1" fill="none" fill-rule="evenodd">
        <g id="add-o" fill="#323233">
            <g id="直角-加号-线">
                <path d="M472.222222,472.442285 L472.222222,277.997841 C472.222222,262.656598 484.658757,250.220063 500,250.220063 L500.143476,250.220436 C515.405067,250.299675 527.712795,262.735875 527.633555,277.997466 L526.623982,472.442285 L722.222222,472.442285 C737.563465,472.442285 750,484.87882 750,500.220063 C750,515.561306 737.563465,527.997841 722.222222,527.997841 L526.335533,527.997841 L525.31922,723.740663 C525.243175,738.387018 513.348532,750.220063 498.70198,750.220063 C484.077613,750.220063 472.222222,738.364672 472.222222,723.740306 L472.222222,527.997841 L277.777778,527.997841 C262.436535,527.997841 250,515.561306 250,500.220063 C250,484.87882 262.436535,472.442285 277.777778,472.442285 L472.222222,472.442285 Z" id="Path"></path>
                <path d="M500,888.888889 C714.777403,888.888889 888.888889,714.777403 888.888889,500 C888.888889,285.222597 714.777403,111.111111 500,111.111111 C285.222597,111.111111 111.111111,285.222597 111.111111,500 C111.111111,714.777403 285.222597,888.888889 500,888.888889 Z M500,944.444444 C254.540111,944.444444 55.5555556,745.459889 55.5555556,500 C55.5555556,254.540111 254.540111,55.5555556 500,55.5555556 C745.459889,55.5555556 944.444444,254.540111 944.444444,500 C944.444444,745.459889 745.459889,944.444444 500,944.444444 Z" id="Oval" fill-rule="nonzero"></path>
            </g>
        </g>
    </g>
</svg>