<?xml version="1.0" encoding="UTF-8"?>
<svg width="1000px" height="1000px" viewBox="0 0 1000 1000" version="1.1" xmlns="http://www.w3.org/2000/svg" xmlns:xlink="http://www.w3.org/1999/xlink">
    <!-- Generator: sketchtool 53.2 (72643) - https://sketchapp.com -->
    <title>add-square</title>
    <desc>Created with sketchtool.</desc>
    <g id="icons" stroke="none" stroke-width="1" fill="none" fill-rule="evenodd">
        <g id="add-square" fill="#323233">
            <g id="圆角-全屏-面-copy">
                <path d="M472.222222,472.222222 L277.777778,472.222222 C262.436535,472.222222 250,484.658757 250,500 C250,515.341243 262.436535,527.777778 277.777778,527.777778 L472.222222,527.777778 L472.222222,722.222222 C472.222222,737.563465 484.658757,750 500,750 C515.341243,750 527.777778,737.563465 527.777778,722.222222 L527.777778,527.777778 L722.222222,527.777778 C737.563465,527.777778 750,515.341243 750,500 C750,484.658757 737.563465,472.222222 722.222222,472.222222 L527.777778,472.222222 L527.777778,277.777778 C527.777778,262.436535 515.341243,250 500,250 C484.658757,250 472.222222,262.436535 472.222222,277.777778 L472.222222,472.222222 Z M166.666667,111.111111 L833.333333,111.111111 C864.015819,111.111111 888.888889,135.984181 888.888889,166.666667 L888.888889,833.333333 C888.888889,864.015819 864.015819,888.888889 833.333333,888.888889 L166.666667,888.888889 C135.984181,888.888889 111.111111,864.015819 111.111111,833.333333 L111.111111,166.666667 C111.111111,135.984181 135.984181,111.111111 166.666667,111.111111 Z" id="Shape"></path>
            </g>
        </g>
    </g>
</svg>