<?xml version="1.0" encoding="UTF-8"?>
<svg width="1000px" height="1000px" viewBox="0 0 1000 1000" version="1.1" xmlns="http://www.w3.org/2000/svg" xmlns:xlink="http://www.w3.org/1999/xlink">
    <!-- Generator: sketchtool 53.2 (72643) - https://sketchapp.com -->
    <title>add</title>
    <desc>Created with sketchtool.</desc>
    <g id="icons" stroke="none" stroke-width="1" fill="none" fill-rule="evenodd">
        <g id="add" fill="#323233">
            <g id="Fill-2">
                <path d="M694.666667,527.777778 L527.777778,527.777778 L527.777778,694.666667 C527.777778,709.944444 515.333333,722.444444 500,722.444444 C484.666667,722.444444 472.222222,709.944444 472.222222,694.666667 L472.222222,527.777778 L305.333333,527.777778 C290.055556,527.777778 277.555556,515.333333 277.555556,500 C277.555556,484.666667 290.055556,472.222222 305.333333,472.222222 L472.222222,472.222222 L472.222222,305.333333 C472.222222,290.055556 484.666667,277.555556 500,277.555556 C515.333333,277.555556 527.777778,290.055556 527.777778,305.333333 L527.777778,472.222222 L694.666667,472.222222 C709.944444,472.222222 722.444444,484.666667 722.444444,500 C722.444444,515.333333 709.944444,527.777778 694.666667,527.777778 M500,55.5555556 C254.555556,55.5555556 55.5555556,254.555556 55.5555556,500 C55.5555556,745.444444 254.555556,944.444444 500,944.444444 C745.444444,944.444444 944.444444,745.444444 944.444444,500 C944.444444,254.555556 745.444444,55.5555556 500,55.5555556"></path>
            </g>
        </g>
    </g>
</svg>