<?xml version="1.0" encoding="utf-8"?>
<!-- Generator: Adobe Illustrator 21.0.0, SVG Export Plug-In . SVG Version: 6.00 Build 0)  -->
<svg version="1.1" id="图层_1" xmlns="http://www.w3.org/2000/svg" xmlns:xlink="http://www.w3.org/1999/xlink" x="0px" y="0px"
	 viewBox="0 0 200 200" style="enable-background:new 0 0 200 200;" xml:space="preserve">
<style type="text/css">
	.st0{fill:#0E9EFF;}
	.st1{fill:#005792;}
	.st2{fill:none;enable-background:new    ;}
	.st3{fill:#FFFFFF;}
</style>
<g>
	<path class="st0" d="M117.9,189v-56.8c0-0.7,0-1.4,0-2.1c0.1-3.1,0.1-5.5-1.4-7c-1-1-2.6-1.5-5-1.5h-23c-2.4,0-4,0.5-5,1.5
		c-1.5,1.5-1.5,4-1.4,7c0,0.7,0,1.4,0,2.1V189H54.1c-12.7,0-20.6-12-20.6-23.1v-55.7h-11c-6.9,0-9.7-4-10.8-6.4
		c-0.5-1.2-2.7-7.4,4.8-15.2l68.2-71c4-4.2,9.5-6.5,15.3-6.5c5.8,0,11.2,2.3,15.3,6.5l68.2,71c7.5,7.8,5.3,14.1,4.8,15.2
		c-1.1,2.4-3.9,6.4-10.8,6.4h-11v55.7c0,11.1-7.9,23.1-20.6,23.1H117.9z"/>
	<path class="st1" d="M100,12c5.5,0,10.7,2.2,14.5,6.2l68.2,71c7.1,7.3,5.1,13.1,4.6,14.1c-1.2,2.7-3.8,5.9-9.9,5.9h-10h-2v2v54.7
		c0,5.6-2,11.3-5.6,15.4c-3.7,4.3-8.7,6.7-14,6.7h-27.1v-55.8c0-0.7,0-1.4,0-2.1c0.1-3.3,0.1-5.9-1.7-7.7c-1.2-1.2-3-1.8-5.7-1.8
		h-23c-2.7,0-4.5,0.6-5.7,1.8c-1.8,1.8-1.7,4.4-1.7,7.7c0,0.7,0,1.4,0,2.1V188H54.1c-12.1,0-19.6-11.5-19.6-22.1v-54.7v-2h-2h-10
		c-6,0-8.7-3.2-9.9-5.8c-0.5-1.1-2.5-6.8,4.6-14.1l68.2-71C89.4,14.2,94.5,12,100,12 M100,10c-6.1,0-11.7,2.4-16,6.8l-68.2,71
		c-7,7.3-6.1,13.7-5,16.3c0.8,1.9,3.6,7,11.7,7h10v54.7c0,12.4,8.9,24.1,21.6,24.1h29.1v-57.8c0-6.2-0.9-9.7,5.4-9.7h23
		c6.3,0,5.4,3.5,5.4,9.7V190H146c12.7,0,21.6-11.7,21.6-24.1v-54.7h10c8.1,0,10.9-5.2,11.7-7c1.2-2.6,2.1-9-5-16.3l-68.2-71
		C111.8,12.4,106.1,10,100,10L100,10z"/>
</g>
<g>
	<path class="st3" d="M100,111.9c-4.1,0-7.5-3.4-7.6-7.5V86.2H74.3c-2,0-3.9-0.8-5.3-2.3c-1.4-1.4-2.2-3.4-2.2-5.4
		c0-4.1,3.4-7.4,7.5-7.5h18.1V52.9c0-4.2,3.4-7.6,7.6-7.6c4.2,0,7.6,3.4,7.6,7.6V71h18.1c4.2,0,7.6,3.4,7.7,7.5c0,2-0.7,3.9-2.2,5.4
		c-1.4,1.4-3.3,2.3-5.3,2.3h-18.3v18.1C107.6,108.5,104.3,111.9,100,111.9L100,111.9z"/>
	<path class="st1" d="M100,46.3c3.6,0,6.6,3,6.6,6.6V70v2h2l17.1,0l0.1,0c3.6,0,6.5,2.9,6.6,6.5c0,1.8-0.6,3.4-1.9,4.7
		c-1.2,1.3-2.9,2-4.6,2l-0.1,0l-0.1,0h-17.1h-2v2l0,17.1c0,1.8-0.6,3.4-1.9,4.7c-1.2,1.3-2.9,2-4.6,2l-0.1,0c-3.6,0-6.5-2.9-6.6-6.5
		l0-0.2V87.2v-2h-2l-17.1,0c-1.8,0-3.4-0.7-4.6-2c-1.2-1.3-1.9-2.9-1.9-4.7c0-3.5,3-6.5,6.5-6.5h17.1h2v-2V52.9
		C93.4,49.2,96.4,46.3,100,46.3 M100,44.3c-4.7,0-8.6,3.8-8.6,8.6V70H74.3c-4.7,0.1-8.4,3.8-8.5,8.5c-0.1,4.7,3.7,8.6,8.5,8.7h17.1
		v17.1c0,0.1,0,0.1,0,0.2c0.1,4.7,3.9,8.5,8.6,8.5c0,0,0.1,0,0.1,0c4.7-0.1,8.5-3.9,8.5-8.7V87.2h17.1c0,0,0.1,0,0.1,0s0.1,0,0.1,0
		c4.7-0.1,8.5-3.9,8.5-8.7c-0.1-4.7-3.9-8.5-8.6-8.5c0,0-0.1,0-0.1,0h-17.1V52.9C108.6,48.1,104.7,44.3,100,44.3L100,44.3z"/>
</g>
</svg>
