<?xml version="1.0" encoding="utf-8"?>
<!-- Generator: Adobe Illustrator 21.0.0, SVG Export Plug-In . SVG Version: 6.00 Build 0)  -->
<svg version="1.1" id="图层_1" xmlns="http://www.w3.org/2000/svg" xmlns:xlink="http://www.w3.org/1999/xlink" x="0px" y="0px"
	 viewBox="0 0 200 200" style="enable-background:new 0 0 200 200;" xml:space="preserve">
<style type="text/css">
	.st0{fill:#0E9EFF;}
	.st1{fill:none;enable-background:new    ;}
	.st2{fill:#FFFFFF;}
</style>
<path class="st0" d="M184.3,87.9l-68.2-71c-4.2-4.4-9.9-6.8-16-6.8c-6.1,0-11.7,2.4-16,6.8l-68.2,71c-7,7.3-6.1,13.7-5,16.3
	c0.8,1.9,3.6,7,11.7,7h10v54.7c0,12.4,8.9,24.1,21.6,24.1h29.1v-57.8c0-6.2-0.9-9.7,5.4-9.7h23c6.3,0,5.4,3.5,5.4,9.7V190H146
	c12.7,0,21.6-11.7,21.6-24.1v-54.7h10c8.1,0,10.9-5.2,11.7-7C190.4,101.6,191.3,95.2,184.3,87.9L184.3,87.9z"/>
<path id="圆角矩形_5" class="st2" d="M74.3,70h51.4c4.7-0.1,8.6,3.7,8.7,8.5c0.1,4.7-3.7,8.6-8.5,8.7c-0.1,0-0.1,0-0.2,0H74.3
	c-4.7-0.1-8.5-3.9-8.5-8.7C65.9,73.8,69.6,70.1,74.3,70z"/>
<path id="圆角矩形_5_拷贝" class="st2" d="M100,44.3c4.7,0,8.6,3.8,8.6,8.6v51.4c0.1,4.7-3.8,8.6-8.5,8.7
	c-4.7,0.1-8.6-3.8-8.7-8.5c0-0.1,0-0.1,0-0.2V52.9C91.4,48.1,95.3,44.3,100,44.3z"/>
</svg>
