<?xml version="1.0" encoding="UTF-8"?>
<svg width="1000px" height="1000px" viewBox="0 0 1000 1000" version="1.1" xmlns="http://www.w3.org/2000/svg" xmlns:xlink="http://www.w3.org/1999/xlink">
    <!-- Generator: sketchtool 53.2 (72643) - https://sketchapp.com -->
    <title>aim</title>
    <desc>Created with sketchtool.</desc>
    <g id="icons" stroke="none" stroke-width="1" fill="none" fill-rule="evenodd">
        <g id="aim" fill="#323233">
            <g id="圆角-定位">
                <path d="M500,55.5555556 C745.444444,55.5555556 944.444444,254.555556 944.444444,500 C944.444444,745.444444 745.444444,944.444444 500,944.444444 C254.555556,944.444444 55.5555556,745.444444 55.5555556,500 C55.5555556,254.555556 254.555556,55.5555556 500,55.5555556 Z M527.777778,887.5 C720,873.833333 873.777778,720.055556 887.5,527.777778 L750,527.777778 C734.722222,527.777778 722.222222,515.333333 722.222222,500 C722.222222,484.722222 734.722222,472.222222 750,472.222222 L887.5,472.222222 C873.777778,279.944444 720,126.222222 527.777778,112.555556 L527.777778,250 C527.777778,265.333333 515.277778,277.777778 500,277.777778 C484.722222,277.777778 472.222222,265.333333 472.222222,250 L472.222222,112.555556 C280,126.222222 126.222222,279.944444 112.5,472.222222 L250,472.222222 C265.277778,472.222222 277.777778,484.722222 277.777778,500 C277.777778,515.333333 265.277778,527.777778 250,527.777778 L112.5,527.777778 C126.222222,720.055556 280,873.833333 472.222222,887.5 L472.222222,750 C472.222222,734.722222 484.722222,722.222222 500,722.222222 C515.277778,722.222222 527.777778,734.722222 527.777778,750 L527.777778,887.5 Z M500,444.466667 C530.666667,444.466667 555.555556,469.3 555.555556,500.022222 C555.555556,530.744444 530.666667,555.577778 500,555.577778 C469.333333,555.577778 444.444444,530.744444 444.444444,500.022222 C444.444444,469.3 469.333333,444.466667 500,444.466667 Z" id="Fill-1"></path>
            </g>
        </g>
    </g>
</svg>