<?xml version="1.0" encoding="UTF-8"?>
<svg width="1000px" height="1000px" viewBox="0 0 1000 1000" version="1.1" xmlns="http://www.w3.org/2000/svg" xmlns:xlink="http://www.w3.org/1999/xlink">
    <!-- Generator: sketchtool 53.2 (72643) - https://sketchapp.com -->
    <title>apps-o</title>
    <desc>Created with sketchtool.</desc>
    <g id="icons" stroke="none" stroke-width="1" fill="none" fill-rule="evenodd">
        <g id="apps-o" fill="#323233" fill-rule="nonzero">
            <g id="直角-营销应用-线">
                <path d="M708.333333,166.666667 C639.29774,166.666667 583.333333,222.631073 583.333333,291.666667 C583.333333,360.70226 639.29774,416.666667 708.333333,416.666667 C777.368927,416.666667 833.333333,360.70226 833.333333,291.666667 C833.333333,222.631073 777.368927,166.666667 708.333333,166.666667 Z M708.333333,111.111111 C808.051413,111.111111 888.888889,191.948587 888.888889,291.666667 C888.888889,391.384746 808.051413,472.222222 708.333333,472.222222 C608.615254,472.222222 527.777778,391.384746 527.777778,291.666667 C527.777778,191.948587 608.615254,111.111111 708.333333,111.111111 Z M166.666667,166.666667 L166.666667,416.666667 L416.666667,416.666667 L416.666667,166.666667 L166.666667,166.666667 Z M166.666667,111.111111 L416.666667,111.111111 C447.349153,111.111111 472.222222,135.984181 472.222222,166.666667 L472.222222,416.666667 C472.222222,447.349153 447.349153,472.222222 416.666667,472.222222 L166.666667,472.222222 C135.984181,472.222222 111.111111,447.349153 111.111111,416.666667 L111.111111,166.666667 C111.111111,135.984181 135.984181,111.111111 166.666667,111.111111 Z M166.666667,583.333333 L166.666667,833.333333 L416.666667,833.333333 L416.666667,583.333333 L166.666667,583.333333 Z M166.666667,527.777778 L416.666667,527.777778 C447.349153,527.777778 472.222222,552.650847 472.222222,583.333333 L472.222222,833.333333 C472.222222,864.015819 447.349153,888.888889 416.666667,888.888889 L166.666667,888.888889 C135.984181,888.888889 111.111111,864.015819 111.111111,833.333333 L111.111111,583.333333 C111.111111,552.650847 135.984181,527.777778 166.666667,527.777778 Z M583.333333,583.333333 L583.333333,833.333333 L833.333333,833.333333 L833.333333,583.333333 L583.333333,583.333333 Z M583.333333,527.777778 L833.333333,527.777778 C864.015819,527.777778 888.888889,552.650847 888.888889,583.333333 L888.888889,833.333333 C888.888889,864.015819 864.015819,888.888889 833.333333,888.888889 L583.333333,888.888889 C552.650847,888.888889 527.777778,864.015819 527.777778,833.333333 L527.777778,583.333333 C527.777778,552.650847 552.650847,527.777778 583.333333,527.777778 Z" id="Shape"></path>
            </g>
        </g>
    </g>
</svg>