<?xml version="1.0" encoding="UTF-8"?>
<svg width="1000px" height="1000px" viewBox="0 0 1000 1000" version="1.1" xmlns="http://www.w3.org/2000/svg" xmlns:xlink="http://www.w3.org/1999/xlink">
    <!-- Generator: sketchtool 53.2 (72643) - https://sketchapp.com -->
    <title>ascending</title>
    <desc>Created with sketchtool.</desc>
    <g id="icons" stroke="none" stroke-width="1" fill="none" fill-rule="evenodd">
        <g id="ascending" fill="#323233" fill-rule="nonzero">
            <g id="Positive-sequence">
                <path d="M777.468889,337.248724 L711.715178,403.002434 C695.443333,419.27428 669.061459,419.27428 652.789613,403.002434 C636.517768,386.730589 636.517768,360.348715 652.789613,344.076869 L786.224684,210.641798 C791.97209,203.251195 800.154207,197.847762 809.566693,195.635845 C823.307302,192.188703 838.462329,195.838049 849.208163,206.583884 C859.162784,216.538505 863.02747,230.276925 860.802222,243.169518 L860.802222,763.976303 C860.802222,786.988168 842.14742,805.64297 819.135556,805.64297 C796.123691,805.64297 777.468889,786.988168 777.468889,763.976303 L777.468889,337.248724 Z M180.246667,248.113308 L541.357778,248.113308 C564.369642,248.113308 583.024444,266.76811 583.024444,289.779975 C583.024444,312.79184 564.369642,331.446642 541.357778,331.446642 L180.246667,331.446642 C157.234802,331.446642 138.58,312.79184 138.58,289.779975 C138.58,266.76811 157.234802,248.113308 180.246667,248.113308 Z M180.246667,470.335531 L541.357778,470.335531 C564.369642,470.335531 583.024444,488.990333 583.024444,512.002197 C583.024444,535.014062 564.369642,553.668864 541.357778,553.668864 L180.246667,553.668864 C157.234802,553.668864 138.58,535.014062 138.58,512.002197 C138.58,488.990333 157.234802,470.335531 180.246667,470.335531 Z M180.246667,692.557753 L541.357778,692.557753 C564.369642,692.557753 583.024444,711.212555 583.024444,734.224419 C583.024444,757.236284 564.369642,775.891086 541.357778,775.891086 L180.246667,775.891086 C157.234802,775.891086 138.58,757.236284 138.58,734.224419 C138.58,711.212555 157.234802,692.557753 180.246667,692.557753 Z" id="Shape"></path>
            </g>
        </g>
    </g>
</svg>