<?xml version="1.0" encoding="UTF-8"?>
<svg width="1000px" height="1000px" viewBox="0 0 1000 1000" version="1.1" xmlns="http://www.w3.org/2000/svg" xmlns:xlink="http://www.w3.org/1999/xlink">
    <!-- Generator: sketchtool 53.2 (72643) - https://sketchapp.com -->
    <title>award-o</title>
    <desc>Created with sketchtool.</desc>
    <g id="icons" stroke="none" stroke-width="1" fill="none" fill-rule="evenodd">
        <g id="award-o" fill="#323233" fill-rule="nonzero">
            <g id="直角-邀请奖励-线" transform="translate(166.000000, 55.000000)">
                <path d="M334,611.666667 C487.41243,611.666667 611.777778,487.301319 611.777778,333.888889 C611.777778,180.476458 487.41243,56.1111111 334,56.1111111 C180.58757,56.1111111 56.2222222,180.476458 56.2222222,333.888889 C56.2222222,487.301319 180.58757,611.666667 334,611.666667 Z M334,667.222222 C149.905083,667.222222 0.666666667,517.983805 0.666666667,333.888889 C0.666666667,149.793972 149.905083,0.555555556 334,0.555555556 C518.094917,0.555555556 667.333333,149.793972 667.333333,333.888889 C667.333333,517.983805 518.094917,667.222222 334,667.222222 Z" id="Oval-5"></path>
                <path d="M334,403.333333 C372.353108,403.333333 403.444444,372.241997 403.444444,333.888889 C403.444444,295.535781 372.353108,264.444444 334,264.444444 C295.646892,264.444444 264.555556,295.535781 264.555556,333.888889 C264.555556,372.241997 295.646892,403.333333 334,403.333333 Z M334,458.888889 C264.964406,458.888889 209,402.924483 209,333.888889 C209,264.853295 264.964406,208.888889 334,208.888889 C403.035594,208.888889 459,264.853295 459,333.888889 C459,402.924483 403.035594,458.888889 334,458.888889 Z" id="Oval-5"></path>
                <path d="M222.888889,805.577037 L334,758.510812 L445.111111,805.577037 L445.111111,647.358172 C408.611369,660.803795 371.65344,667.631878 334.377556,667.631878 C296.921504,667.631878 259.713848,660.738085 222.888889,647.164573 L222.888889,805.577037 Z M167.333333,556.450195 C223.254623,593.53428 278.93603,612.076323 334.377556,612.076323 C389.819082,612.076323 445.248785,593.53428 500.666667,556.450195 L500.666667,847.510741 C500.666667,862.851984 488.230132,875.288518 472.888889,875.288518 C469.166422,875.288518 465.481926,874.540328 462.054295,873.088397 L334,818.845107 L205.945705,873.088397 C191.819555,879.072178 175.517235,872.471484 169.533455,858.345334 C168.081524,854.917703 167.333333,851.233208 167.333333,847.510741 L167.333333,556.450195 Z" id="Shape"></path>
            </g>
        </g>
    </g>
</svg>