<?xml version="1.0" encoding="UTF-8"?>
<svg width="1000px" height="1000px" viewBox="0 0 1000 1000" version="1.1" xmlns="http://www.w3.org/2000/svg" xmlns:xlink="http://www.w3.org/1999/xlink">
    <!-- Generator: sketchtool 53.2 (72643) - https://sketchapp.com -->
    <title>award</title>
    <desc>Created with sketchtool.</desc>
    <g id="icons" stroke="none" stroke-width="1" fill="none" fill-rule="evenodd">
        <g id="award" fill="#323233">
            <g id="形状">
                <path d="M500,750 C315.905083,750 166.666667,600.761583 166.666667,416.666667 C166.666667,232.57175 315.905083,83.3333333 500,83.3333333 C684.094917,83.3333333 833.333333,232.57175 833.333333,416.666667 C833.333333,600.761583 684.094917,750 500,750 Z M500,527.777778 C561.364972,527.777778 611.111111,478.031639 611.111111,416.666667 C611.111111,355.301694 561.364972,305.555556 500,305.555556 C438.635028,305.555556 388.888889,355.301694 388.888889,416.666667 C388.888889,478.031639 438.635028,527.777778 500,527.777778 Z M628.054295,948.845684 L521.669187,903.781375 C507.818751,897.914385 492.181249,897.914385 478.330813,903.781375 L371.945705,948.845684 C357.819555,954.829465 341.517235,948.228771 335.533455,934.102621 C334.081524,930.67499 333.333333,926.990494 333.333333,923.268028 L333.333333,761.111111 C383.847521,785.107784 440.355706,798.535065 500,798.535065 C559.644294,798.535065 616.152479,785.107784 666.666667,761.111111 L666.666667,923.268028 C666.666667,938.609271 654.230132,951.045805 638.888889,951.045805 C635.166422,951.045805 631.481926,950.297615 628.054295,948.845684 Z"></path>
            </g>
        </g>
    </g>
</svg>