<?xml version="1.0" encoding="UTF-8"?>
<svg width="1000px" height="1000px" viewBox="0 0 1000 1000" version="1.1" xmlns="http://www.w3.org/2000/svg" xmlns:xlink="http://www.w3.org/1999/xlink">
    <!-- Generator: sketchtool 53.2 (72643) - https://sketchapp.com -->
    <title>bag</title>
    <desc>Created with sketchtool.</desc>
    <g id="icons" stroke="none" stroke-width="1" fill="none" fill-rule="evenodd">
        <g id="bag" fill="#323233">
            <g id="直角-微商城">
                <path d="M333.333333,277.777778 C333.333333,185.730319 406.620056,111.111111 497.02381,111.111111 C587.427563,111.111111 660.714286,185.730319 660.714286,277.777778 L756.147292,277.777778 C776.112647,277.777778 792.6369,293.301507 793.882304,313.227981 L830.822891,904.277364 C832.12542,925.117836 816.286788,943.068286 795.446316,944.370815 C794.661128,944.419889 793.874599,944.444444 793.087878,944.444444 L206.912122,944.444444 C186.030985,944.444444 169.10348,927.516939 169.10348,906.635802 C169.10348,905.849082 169.128035,905.062553 169.177109,904.277364 L206.117696,313.227981 C207.3631,293.301507 223.887353,277.777778 243.852708,277.777778 L333.333333,277.777778 Z M388.888889,277.777778 L605.15873,277.777778 C605.15873,216.190976 556.518783,166.666667 497.02381,166.666667 C437.528836,166.666667 388.888889,216.190976 388.888889,277.777778 Z" id="Combined-Shape"></path>
            </g>
        </g>
    </g>
</svg>