<?xml version="1.0" encoding="UTF-8"?>
<svg width="1000px" height="1000px" viewBox="0 0 1000 1000" version="1.1" xmlns="http://www.w3.org/2000/svg" xmlns:xlink="http://www.w3.org/1999/xlink">
    <!-- Generator: sketchtool 53.2 (72643) - https://sketchapp.com -->
    <title>balance-list-o</title>
    <desc>Created with sketchtool.</desc>
    <g id="icons" stroke="none" stroke-width="1" fill="none" fill-rule="evenodd">
        <g id="balance-list-o" fill="#323233">
            <g id="圆角-余额明细-线">
                <path d="M222.222222,111.111111 L777.777778,111.111111 C808.460264,111.111111 833.333333,135.984181 833.333333,166.666667 L833.333333,416.666667 C833.333333,432.00791 820.896799,444.444444 805.555556,444.444444 C790.214313,444.444444 777.777778,432.00791 777.777778,416.666667 L777.777778,166.666667 L222.222222,166.666667 L222.222222,833.333333 L416.666667,833.333333 C432.00791,833.333333 444.444444,845.769868 444.444444,861.111111 C444.444444,876.452354 432.00791,888.888889 416.666667,888.888889 L222.222222,888.888889 C191.539736,888.888889 166.666667,864.015819 166.666667,833.333333 L166.666667,166.666667 C166.666667,135.984181 191.539736,111.111111 222.222222,111.111111 Z" id="Path"></path>
                <path d="M722.222222,888.888889 C814.269681,888.888889 888.888889,814.269681 888.888889,722.222222 C888.888889,630.174764 814.269681,555.555556 722.222222,555.555556 C630.174764,555.555556 555.555556,630.174764 555.555556,722.222222 C555.555556,814.269681 630.174764,888.888889 722.222222,888.888889 Z M722.222222,944.444444 C599.492278,944.444444 500,844.952167 500,722.222222 C500,599.492278 599.492278,500 722.222222,500 C844.952167,500 944.444444,599.492278 944.444444,722.222222 C944.444444,844.952167 844.952167,944.444444 722.222222,944.444444 Z" id="Oval" fill-rule="nonzero"></path>
                <path d="M781.746032,724.634921 C794.888889,724.634921 805.555556,713.968254 805.555556,700.825397 C805.555556,687.68254 794.888889,677.015873 781.746032,677.015873 L763.460317,677.015873 L788.698413,651.777778 C798.031746,642.444444 798.031746,627.396825 788.698413,618.111111 C779.412698,608.777778 764.365079,608.777778 755.031746,618.111111 L722.222222,650.920635 L689.412698,618.111111 C680.079365,608.777778 665.031746,608.777778 655.746032,618.111111 C646.412698,627.396825 646.412698,642.444444 655.746032,651.777778 L680.984127,677.015873 L662.698413,677.015873 C649.555556,677.015873 638.888889,687.68254 638.888889,700.825397 C638.888889,713.968254 649.555556,724.634921 662.698413,724.634921 L698.412698,724.634921 L698.412698,748.444444 L662.698413,748.444444 C649.555556,748.444444 638.888889,759.111111 638.888889,772.253968 C638.888889,785.396825 649.555556,796.063492 662.698413,796.063492 L698.412698,796.063492 L698.412698,819.873016 C698.412698,833.015873 709.079365,843.68254 722.222222,843.68254 C735.365079,843.68254 746.031746,833.015873 746.031746,819.873016 L746.031746,796.063492 L781.746032,796.063492 C794.888889,796.063492 805.555556,785.396825 805.555556,772.253968 C805.555556,759.111111 794.888889,748.444444 781.746032,748.444444 L746.031746,748.444444 L746.031746,724.634921 L781.746032,724.634921 Z" id="Path"></path>
                <path d="M305.555556,277.777778 L638.888889,277.777778 C654.230132,277.777778 666.666667,290.214313 666.666667,305.555556 C666.666667,320.896799 654.230132,333.333333 638.888889,333.333333 L305.555556,333.333333 C290.214313,333.333333 277.777778,320.896799 277.777778,305.555556 C277.777778,290.214313 290.214313,277.777778 305.555556,277.777778 Z" id="Rectangle-18"></path>
                <path d="M305.555556,388.888889 L527.777778,388.888889 C543.119021,388.888889 555.555556,401.325424 555.555556,416.666667 C555.555556,432.00791 543.119021,444.444444 527.777778,444.444444 L305.555556,444.444444 C290.214313,444.444444 277.777778,432.00791 277.777778,416.666667 C277.777778,401.325424 290.214313,388.888889 305.555556,388.888889 Z" id="Rectangle-18-Copy"></path>
                <path d="M305.555556,500 L416.666667,500 C432.00791,500 444.444444,512.436535 444.444444,527.777778 C444.444444,543.119021 432.00791,555.555556 416.666667,555.555556 L305.555556,555.555556 C290.214313,555.555556 277.777778,543.119021 277.777778,527.777778 C277.777778,512.436535 290.214313,500 305.555556,500 Z" id="Rectangle-18-Copy-2"></path>
            </g>
        </g>
    </g>
</svg>