<?xml version="1.0" encoding="UTF-8"?>
<svg width="1000px" height="1000px" viewBox="0 0 1000 1000" version="1.1" xmlns="http://www.w3.org/2000/svg" xmlns:xlink="http://www.w3.org/1999/xlink">
    <!-- Generator: sketchtool 53.2 (72643) - https://sketchapp.com -->
    <title>balance-list</title>
    <desc>Created with sketchtool.</desc>
    <g id="icons" stroke="none" stroke-width="1" fill="none" fill-rule="evenodd">
        <g id="balance-list" fill="#323233">
            <g id="分组">
                <g transform="translate(166.666667, 111.111111)">
                    <path d="M555.555556,444.466667 C647.611111,444.466667 722.222222,519.022222 722.222222,611.133333 C722.222222,703.188889 647.611111,777.8 555.555556,777.8 C463.5,777.8 388.888889,703.188889 388.888889,611.133333 C388.888889,519.022222 463.5,444.466667 555.555556,444.466667 Z M618.055556,644.911111 L576.388889,644.911111 L576.388889,617.133333 L618.055556,617.133333 C629.555556,617.133333 638.888889,607.8 638.888889,596.3 C638.888889,584.8 629.555556,575.466667 618.055556,575.466667 L592.888889,575.466667 L619.388889,548.966667 C627.555556,540.855556 627.555556,527.688889 619.388889,519.522222 C611.277778,511.411111 598.111111,511.411111 589.944444,519.522222 L555.555556,553.855556 L521.166667,519.522222 C513,511.411111 499.833333,511.411111 491.722222,519.522222 C483.555556,527.688889 483.555556,540.855556 491.722222,548.966667 L518.222222,575.466667 L493.055556,575.466667 C481.555556,575.466667 472.222222,584.8 472.222222,596.3 C472.222222,607.8 481.555556,617.133333 493.055556,617.133333 L534.722222,617.133333 L534.722222,644.911111 L493.055556,644.911111 C481.555556,644.911111 472.222222,654.244444 472.222222,665.744444 C472.222222,677.244444 481.555556,686.577778 493.055556,686.577778 L534.722222,686.577778 L534.722222,710.188889 C534.722222,721.688889 544.055556,731.022222 555.555556,731.022222 C567.055556,731.022222 576.388889,721.688889 576.388889,710.188889 L576.388889,686.577778 L618.055556,686.577778 C629.555556,686.577778 638.888889,677.244444 638.888889,665.744444 C638.888889,654.244444 629.555556,644.911111 618.055556,644.911111 Z M250,444.444444 C265.333333,444.444444 277.777778,432 277.777778,416.666667 C277.777778,401.333333 265.333333,388.888889 250,388.888889 L138.888889,388.888889 C123.555556,388.888889 111.111111,401.333333 111.111111,416.666667 C111.111111,432 123.555556,444.444444 138.888889,444.444444 L250,444.444444 Z M138.888889,277.777778 C123.555556,277.777778 111.111111,290.222222 111.111111,305.555556 C111.111111,320.888889 123.555556,333.333333 138.888889,333.333333 L361.111111,333.333333 C376.444444,333.333333 388.888889,320.888889 388.888889,305.555556 C388.888889,290.222222 376.444444,277.777778 361.111111,277.777778 L138.888889,277.777778 Z M138.888889,166.666667 C123.555556,166.666667 111.111111,179.111111 111.111111,194.444444 C111.111111,209.777778 123.555556,222.222222 138.888889,222.222222 L472.222222,222.222222 C487.555556,222.222222 500,209.777778 500,194.444444 C500,179.111111 487.555556,166.666667 472.222222,166.666667 L138.888889,166.666667 Z M555.555556,388.888889 C432.833333,388.888889 333.333333,488.388889 333.333333,611.111111 C333.333333,677.833333 363.388889,737.055556 410,777.777778 L55.5555556,777.777778 C24.8333333,777.777778 0,752.944444 0,722.222222 L0,55.5555556 C0,24.8333333 24.8333333,0 55.5555556,0 L611.111111,0 C641.833333,0 666.666667,24.8333333 666.666667,55.5555556 L666.666667,419.722222 C633.833333,400.611111 596.222222,388.888889 555.555556,388.888889 Z" id="Fill-4"></path>
                </g>
            </g>
        </g>
    </g>
</svg>