<?xml version="1.0" encoding="UTF-8"?>
<svg width="1000px" height="1000px" viewBox="0 0 1000 1000" version="1.1" xmlns="http://www.w3.org/2000/svg" xmlns:xlink="http://www.w3.org/1999/xlink">
    <!-- Generator: sketchtool 53.2 (72643) - https://sketchapp.com -->
    <title>bar-chart-o</title>
    <desc>Created with sketchtool.</desc>
    <g id="icons" stroke="none" stroke-width="1" fill="none" fill-rule="evenodd">
        <g id="bar-chart-o" fill="#323233" fill-rule="nonzero">
            <path d="M166.555714,430.334286 L166.555714,847.002143 L277.667143,847.002143 L277.667143,430.334286 L166.555714,430.334286 Z M166.555714,374.778571 L277.667143,374.778571 C308.349717,374.778571 333.222857,399.651712 333.222857,430.334286 L333.222857,847.002143 C333.222857,877.684717 308.349717,902.557857 277.667143,902.557857 L166.555714,902.557857 C135.873141,902.557857 111,877.684717 111,847.002143 L111,430.334286 C111,399.651712 135.873141,374.778571 166.555714,374.778571 Z M444.334286,319.222857 L444.334286,847.002143 L555.445714,847.002143 L555.445714,319.222857 L444.334286,319.222857 Z M444.334286,263.667143 L555.445714,263.667143 C586.128288,263.667143 611.001429,288.540283 611.001429,319.222857 L611.001429,847.002143 C611.001429,877.684717 586.128288,902.557857 555.445714,902.557857 L444.334286,902.557857 C413.651712,902.557857 388.778571,877.684717 388.778571,847.002143 L388.778571,319.222857 C388.778571,288.540283 413.651712,263.667143 444.334286,263.667143 Z M722.112857,152.555714 L722.112857,847.002143 L833.224286,847.002143 L833.224286,152.555714 L722.112857,152.555714 Z M722.112857,97 L833.224286,97 C863.906859,97 888.78,121.873141 888.78,152.555714 L888.78,847.002143 C888.78,877.684717 863.906859,902.557857 833.224286,902.557857 L722.112857,902.557857 C691.430283,902.557857 666.557143,877.684717 666.557143,847.002143 L666.557143,152.555714 C666.557143,121.873141 691.430283,97 722.112857,97 Z" id="Shape"></path>
        </g>
    </g>
</svg>