<?xml version="1.0" encoding="UTF-8"?>
<svg width="1000px" height="1000px" viewBox="0 0 1000 1000" version="1.1" xmlns="http://www.w3.org/2000/svg" xmlns:xlink="http://www.w3.org/1999/xlink">
    <!-- Generator: sketchtool 53.2 (72643) - https://sketchapp.com -->
    <title>bars</title>
    <desc>Created with sketchtool.</desc>
    <g id="icons" stroke="none" stroke-width="1" fill="none" fill-rule="evenodd">
        <g id="bars" fill="#323233" fill-rule="nonzero">
            <g id="圆角-类目">
                <path d="M194.444444,277.777778 C163.761958,277.777778 138.888889,252.904708 138.888889,222.222222 C138.888889,191.539736 163.761958,166.666667 194.444444,166.666667 C225.126931,166.666667 250,191.539736 250,222.222222 C250,252.904708 225.126931,277.777778 194.444444,277.777778 Z M347.222222,180.555556 L819.444444,180.555556 C842.456309,180.555556 861.111111,199.210358 861.111111,222.222222 C861.111111,245.234087 842.456309,263.888889 819.444444,263.888889 L347.222222,263.888889 C324.210358,263.888889 305.555556,245.234087 305.555556,222.222222 C305.555556,199.210358 324.210358,180.555556 347.222222,180.555556 Z M347.222222,458.333333 L819.444444,458.333333 C842.456309,458.333333 861.111111,476.988135 861.111111,500 C861.111111,523.011865 842.456309,541.666667 819.444444,541.666667 L347.222222,541.666667 C324.210358,541.666667 305.555556,523.011865 305.555556,500 C305.555556,476.988135 324.210358,458.333333 347.222222,458.333333 Z M347.222222,736.111111 L819.444444,736.111111 C842.456309,736.111111 861.111111,754.765913 861.111111,777.777778 C861.111111,800.789642 842.456309,819.444444 819.444444,819.444444 L347.222222,819.444444 C324.210358,819.444444 305.555556,800.789642 305.555556,777.777778 C305.555556,754.765913 324.210358,736.111111 347.222222,736.111111 Z M194.444444,555.555556 C163.761958,555.555556 138.888889,530.682486 138.888889,500 C138.888889,469.317514 163.761958,444.444444 194.444444,444.444444 C225.126931,444.444444 250,469.317514 250,500 C250,530.682486 225.126931,555.555556 194.444444,555.555556 Z M194.444444,833.333333 C163.761958,833.333333 138.888889,808.460264 138.888889,777.777778 C138.888889,747.095292 163.761958,722.222222 194.444444,722.222222 C225.126931,722.222222 250,747.095292 250,777.777778 C250,808.460264 225.126931,833.333333 194.444444,833.333333 Z" id="Combined-Shape"></path>
            </g>
        </g>
    </g>
</svg>