<?xml version="1.0" encoding="UTF-8"?>
<svg width="1000px" height="1000px" viewBox="0 0 1000 1000" version="1.1" xmlns="http://www.w3.org/2000/svg" xmlns:xlink="http://www.w3.org/1999/xlink">
    <!-- Generator: sketchtool 53.2 (72643) - https://sketchapp.com -->
    <title>bell</title>
    <desc>Created with sketchtool.</desc>
    <g id="icons" stroke="none" stroke-width="1" fill="none" fill-rule="evenodd">
        <g id="bell" fill="#323233">
            <g id="合并形状">
                <path d="M527.777778,167.807605 C698.875848,181.922908 833.333333,325.25934 833.333333,500 L833.333333,777.777778 L916.666667,777.777778 C932.00791,777.777778 944.444444,790.214313 944.444444,805.555556 C944.444444,820.896799 932.00791,833.333333 916.666667,833.333333 L83.3333333,833.333333 C67.9920903,833.333333 55.5555556,820.896799 55.5555556,805.555556 C55.5555556,790.214313 67.9920903,777.777778 83.3333333,777.777778 L166.666667,777.777778 L166.666667,500 C166.666667,325.25934 301.124152,181.922908 472.222222,167.807605 L472.222222,138.888889 C472.222222,123.547646 484.658757,111.111111 500,111.111111 C515.341243,111.111111 527.777778,123.547646 527.777778,138.888889 L527.777778,167.807605 Z M416.666667,861.111111 L583.333333,861.111111 C583.333333,907.13484 546.023729,944.444444 500,944.444444 C453.976271,944.444444 416.666667,907.13484 416.666667,861.111111 Z"></path>
            </g>
        </g>
    </g>
</svg>