<?xml version="1.0" encoding="UTF-8"?>
<svg width="1000px" height="1000px" viewBox="0 0 1000 1000" version="1.1" xmlns="http://www.w3.org/2000/svg" xmlns:xlink="http://www.w3.org/1999/xlink">
    <!-- Generator: sketchtool 53.2 (72643) - https://sketchapp.com -->
    <title>bill-o</title>
    <desc>Created with sketchtool.</desc>
    <g id="icons" stroke="none" stroke-width="1" fill="none" fill-rule="evenodd">
        <g id="bill-o" fill="#323233">
            <g id="圆角-兑换记录-线">
                <g transform="translate(166.666667, 55.555556)">
                    <path d="M222.222222,55.5555556 L222.222222,111.111111 L444.444444,111.111111 L444.444444,55.5555556 L222.222222,55.5555556 Z M611.111111,111.111111 L500,111.111111 C500,141.793597 475.126931,166.666667 444.444444,166.666667 L222.222222,166.666667 C191.539736,166.666667 166.666667,141.793597 166.666667,111.111111 L55.5555556,111.111111 L55.5555556,833.333333 L611.111111,833.333333 L611.111111,111.111111 Z M666.666667,111.111111 L666.666667,833.333333 C666.666667,864.015819 641.793597,888.888889 611.111111,888.888889 L55.5555556,888.888889 C24.8730695,888.888889 3.75752084e-15,864.015819 0,833.333333 L0,111.111111 C-3.75752084e-15,80.428625 24.8730695,55.5555556 55.5555556,55.5555556 L166.666667,55.5555556 C166.666667,24.8730695 191.539736,0 222.222222,0 L444.444444,0 C475.126931,-6.16790569e-15 500,24.8730695 500,55.5555556 L611.111111,55.5555556 C641.793597,55.5555556 666.666667,80.428625 666.666667,111.111111 Z" id="Shape" fill-rule="nonzero"></path>
                    <g id="Group-2" transform="translate(222.222222, 333.333333)">
                        <path d="M111.604638,54.3640773 L150.394821,15.5738937 C161.242718,4.72599667 178.830634,4.72599667 189.678531,15.5738937 C200.526428,26.4217907 200.526428,44.0097067 189.678531,54.8576037 L161.202802,83.3333333 L180.555556,83.3333333 C195.896799,83.3333333 208.333333,95.7698681 208.333333,111.111111 C208.333333,126.452354 195.896799,138.888889 180.555556,138.888889 L138.888889,138.888889 L138.888889,166.666667 L180.555556,166.666667 C195.896799,166.666667 208.333333,179.103201 208.333333,194.444444 C208.333333,209.785687 195.896799,222.222222 180.555556,222.222222 L138.888889,222.222222 L138.888889,250 C138.888889,265.341243 126.452354,277.777778 111.111111,277.777778 C95.7698681,277.777778 83.3333333,265.341243 83.3333333,250 L83.3333333,222.222222 L41.6666667,222.222222 C26.3254236,222.222222 13.8888889,209.785687 13.8888889,194.444444 C13.8888889,179.103201 26.3254236,166.666667 41.6666667,166.666667 L83.3333333,166.666667 L83.3333333,138.888889 L41.6666667,138.888889 C26.3254236,138.888889 13.8888889,126.452354 13.8888889,111.111111 C13.8888889,95.7698681 26.3254236,83.3333333 41.6666667,83.3333333 L62.0064735,83.3333333 L33.5307439,54.8576037 C22.6828469,44.0097067 22.6828469,26.4217907 33.5307439,15.5738937 C44.3786409,4.72599667 61.966557,4.72599667 72.814454,15.5738937 L111.604638,54.3640773 L111.604638,54.3640773 Z" id="Shape"></path>
                    </g>
                </g>
            </g>
        </g>
    </g>
</svg>