<?xml version="1.0" encoding="UTF-8"?>
<svg width="1000px" height="1000px" viewBox="0 0 1000 1000" version="1.1" xmlns="http://www.w3.org/2000/svg" xmlns:xlink="http://www.w3.org/1999/xlink">
    <!-- Generator: sketchtool 53.2 (72643) - https://sketchapp.com -->
    <title>birthday-cake-o</title>
    <desc>Created with sketchtool.</desc>
    <g id="icons" stroke="none" stroke-width="1" fill="none" fill-rule="evenodd">
        <g id="birthday-cake-o" fill="#323233">
            <g id="圆角-生日特权">
                <path d="M166.666667,555.555556 L166.666667,833.333333 L833.333333,833.333333 L833.333333,555.555556 L166.666667,555.555556 Z M166.666667,500 L833.333333,500 C864.015819,500 888.888889,524.873069 888.888889,555.555556 L888.888889,833.333333 C888.888889,864.015819 864.015819,888.888889 833.333333,888.888889 L166.666667,888.888889 C135.984181,888.888889 111.111111,864.015819 111.111111,833.333333 L111.111111,555.555556 C111.111111,524.873069 135.984181,500 166.666667,500 Z" id="Rectangle-13" fill-rule="nonzero"></path>
                <path d="M277.777778,388.888889 L277.777778,500 L722.222222,500 L722.222222,388.888889 L277.777778,388.888889 Z M277.777778,333.333333 L722.222222,333.333333 C752.904708,333.333333 777.777778,358.206403 777.777778,388.888889 L777.777778,500 C777.777778,530.682486 752.904708,555.555556 722.222222,555.555556 L277.777778,555.555556 C247.095292,555.555556 222.222222,530.682486 222.222222,500 L222.222222,388.888889 C222.222222,358.206403 247.095292,333.333333 277.777778,333.333333 Z" id="Rectangle-15" fill-rule="nonzero"></path>
                <path d="M500,222.222222 C515.341243,222.222222 527.777778,234.658757 527.777778,250 L527.777778,361.111111 C527.777778,376.452354 515.341243,388.888889 500,388.888889 C484.658757,388.888889 472.222222,376.452354 472.222222,361.111111 L472.222222,250 C472.222222,234.658757 484.658757,222.222222 500,222.222222 Z M529.111122,132.425276 C529.111122,162.601328 513.886122,187.072776 495.111122,187.072776 C476.336122,187.072776 461.111122,162.601328 461.111122,132.425276 C461.111122,102.249225 476.336122,77.7777765 495.111122,77.7777765 C513.886122,77.7777765 529.111122,102.249225 529.111122,132.425276 Z" id="Shape"></path>
                <path d="M250,666.666667 L750,666.666667 C765.341243,666.666667 777.777778,679.103201 777.777778,694.444444 C777.777778,709.785687 765.341243,722.222222 750,722.222222 L250,722.222222 C234.658757,722.222222 222.222222,709.785687 222.222222,694.444444 C222.222222,679.103201 234.658757,666.666667 250,666.666667 Z" id="Rectangle-9"></path>
            </g>
        </g>
    </g>
</svg>