<?xml version="1.0" encoding="UTF-8"?>
<svg width="1000px" height="1000px" viewBox="0 0 1000 1000" version="1.1" xmlns="http://www.w3.org/2000/svg" xmlns:xlink="http://www.w3.org/1999/xlink">
    <!-- Generator: sketchtool 53.2 (72643) - https://sketchapp.com -->
    <title>brush-o</title>
    <desc>Created with sketchtool.</desc>
    <g id="icons" stroke="none" stroke-width="1" fill="none" fill-rule="evenodd">
        <g id="brush-o" fill="#323233">
            <g id="直角-店铺装修-线">
                <path d="M166.666667,500 L166.666667,111.111111 C166.666667,74.0740741 185.185185,55.5555556 222.222222,55.5555556 L777.777778,55.5555556 C814.814815,55.5555556 833.333333,74.0740741 833.333333,111.111111 L833.333333,500 C833.333333,555.555556 638.888889,527.777778 611.111111,583.333333 C583.333333,638.888889 611.111111,777.777778 611.111111,805.555556 C611.111111,833.333333 611.111111,944.444444 500,944.444444 C388.888889,944.444444 388.888889,833.333333 388.888889,805.555556 C388.888889,777.777778 416.666667,638.888889 388.888889,583.333333 C361.111111,527.777778 166.666667,555.555556 166.666667,500 Z M222.222222,277.777778 L222.222222,477.967633 C232.944322,480.643798 248.032521,483.042314 274.70354,486.59845 C280.714003,487.398463 280.714003,487.398463 286.854434,488.222649 C378.357735,500.576313 415.224253,511.778062 438.579288,558.488134 C454.781374,590.892304 458.773875,633.06764 456.037794,688.131273 C455.020551,708.603291 453.111764,729.518087 450.251114,754.310393 C449.288065,762.656818 446.336191,786.862182 445.997811,789.757213 C444.937581,798.828066 444.444444,804.299536 444.444444,805.555556 C444.444444,861.595226 456.574961,888.888889 500,888.888889 C529.683923,888.888889 541.820135,878.69447 549.47428,854.881576 C554.201428,840.174892 555.555556,825.693253 555.555556,805.555556 C555.555556,804.299536 555.062419,798.828066 554.002189,789.757213 C553.663809,786.862182 550.711935,762.656818 549.748886,754.310393 C546.888236,729.518087 544.979449,708.603291 543.962206,688.131273 C541.226125,633.06764 545.218626,590.892304 561.420712,558.488134 C584.775747,511.778062 621.642265,500.576313 713.145566,488.222649 C719.285997,487.398463 719.285997,487.398463 725.29646,486.59845 C751.967479,483.042314 767.055678,480.643798 777.777778,477.967633 L777.777778,277.777778 L222.222222,277.777778 Z M222.222222,222.222222 L777.777778,222.222222 L777.777778,111.111111 L222.222222,111.111111 L222.222222,222.222222 Z" id="Combined-Shape"></path>
            </g>
        </g>
    </g>
</svg>