<?xml version="1.0" encoding="UTF-8"?>
<svg width="1000px" height="1000px" viewBox="0 0 1000 1000" version="1.1" xmlns="http://www.w3.org/2000/svg" xmlns:xlink="http://www.w3.org/1999/xlink">
    <!-- Generator: sketchtool 53.2 (72643) - https://sketchapp.com -->
    <title>bulb-o</title>
    <desc>Created with sketchtool.</desc>
    <g id="icons" stroke="none" stroke-width="1" fill="none" fill-rule="evenodd">
        <g id="bulb-o" fill="#323233" fill-rule="nonzero">
            <g id="直角-消息类型－库存预警">
                <path d="M663.292213,652.775556 L663.292213,522.659091 C663.292213,450.247356 584.504416,374.997778 496.625546,374.997778 C408.746676,374.997778 329.958879,450.247356 329.958879,522.659091 L329.958879,652.775556 L663.292213,652.775556 Z M718.847768,522.659091 L718.847768,708.331111 L274.403324,708.331111 L274.403324,522.659091 C274.403324,423.492231 373.895602,319.442222 496.625546,319.442222 C619.35549,319.442222 718.847768,423.492231 718.847768,522.659091 Z M496.625546,97.22 C511.966789,97.22 524.403324,109.656535 524.403324,124.997778 L524.403324,180.553333 C524.403324,195.894576 511.966789,208.331111 496.625546,208.331111 C481.284303,208.331111 468.847768,195.894576 468.847768,180.553333 L468.847768,124.997778 C468.847768,109.656535 481.284303,97.22 496.625546,97.22 Z M663.292213,152.775556 C676.578119,160.446177 681.130207,177.434799 673.459585,190.720706 L645.681807,238.833228 C638.011186,252.119134 621.022563,256.671222 607.736657,249.0006 C594.450751,241.329979 589.898663,224.341357 597.569285,211.05545 L625.347063,162.942928 C633.017684,149.657022 650.006306,145.104934 663.292213,152.775556 L663.292213,152.775556 Z M797.415188,263.886667 C808.263085,274.734564 808.263085,292.32248 797.415188,303.170377 L758.131478,342.454087 C747.283581,353.301984 729.695665,353.301984 718.847768,342.454087 C707.999871,331.60619 707.999871,314.018274 718.847768,303.170377 L758.131478,263.886667 C768.979375,253.03877 786.567291,253.03877 797.415188,263.886667 L797.415188,263.886667 Z M218.847768,874.997778 C218.847768,859.656535 231.284303,847.22 246.625546,847.22 L746.625546,847.22 C761.966789,847.22 774.403324,859.656535 774.403324,874.997778 C774.403324,890.339021 761.966789,902.775556 746.625546,902.775556 L246.625546,902.775556 C231.284303,902.775556 218.847768,890.339021 218.847768,874.997778 Z M322.515846,152.775556 C335.801752,145.104934 352.790375,149.657022 360.460996,162.942928 L388.238774,211.05545 C395.909396,224.341357 391.357308,241.329979 378.071402,249.0006 C364.785496,256.671222 347.796873,252.119134 340.126252,238.833228 L312.348474,190.720706 C304.677852,177.434799 309.22994,160.446177 322.515846,152.775556 Z M202.575923,263.886667 C213.42382,253.03877 231.011736,253.03877 241.859633,263.886667 L281.143343,303.170377 C291.99124,314.018274 291.99124,331.60619 281.143343,342.454087 C270.295446,353.301984 252.70753,353.301984 241.859633,342.454087 L202.575923,303.170377 C191.728026,292.32248 191.728026,274.734564 202.575923,263.886667 L202.575923,263.886667 Z" id="Shape"></path>
            </g>
        </g>
    </g>
</svg>