<?xml version="1.0" encoding="UTF-8"?>
<svg width="1000px" height="1000px" viewBox="0 0 1000 1000" version="1.1" xmlns="http://www.w3.org/2000/svg" xmlns:xlink="http://www.w3.org/1999/xlink">
    <!-- Generator: sketchtool 53.2 (72643) - https://sketchapp.com -->
    <title>card</title>
    <desc>Created with sketchtool.</desc>
    <g id="icons" stroke="none" stroke-width="1" fill="none" fill-rule="evenodd">
        <g id="card" fill="#323233">
            <g id="Fill-1">
                <path d="M555.277778,639.333333 C555.277778,654.666667 567.722222,667.111111 583.055556,667.111111 L749.722222,667.111111 C765.055556,667.111111 777.5,654.666667 777.5,639.333333 C777.5,624 765.055556,611.555556 749.722222,611.555556 L583.055556,611.555556 C567.722222,611.555556 555.277778,624 555.277778,639.333333 L555.277778,639.333333 Z M55.5555556,333.333333 L944.444444,333.333333 L944.444444,777.777778 C944.444444,808.5 919.611111,833.333333 888.888889,833.333333 L111.111111,833.333333 C80.4444444,833.333333 55.5555556,808.5 55.5555556,777.777778 L55.5555556,333.333333 Z M944.444444,222.222222 L944.444444,277.777778 L55.5555556,277.777778 L55.5555556,222.222222 C55.5555556,191.555556 80.4444444,166.666667 111.111111,166.666667 L888.888889,166.666667 C919.611111,166.666667 944.444444,191.555556 944.444444,222.222222 L944.444444,222.222222 Z"></path>
            </g>
        </g>
    </g>
</svg>