<?xml version="1.0" encoding="UTF-8"?>
<svg width="1000px" height="1000px" viewBox="0 0 1000 1000" version="1.1" xmlns="http://www.w3.org/2000/svg" xmlns:xlink="http://www.w3.org/1999/xlink">
    <!-- Generator: sketchtool 53.2 (72643) - https://sketchapp.com -->
    <title>cart-circle-o</title>
    <desc>Created with sketchtool.</desc>
    <g id="icons" stroke="none" stroke-width="1" fill="none" fill-rule="evenodd">
        <g id="cart-circle-o" fill="#323233" fill-rule="nonzero">
            <g id="圆角-线" transform="translate(55.000000, 55.000000)">
                <path d="M445,833.888889 C659.777403,833.888889 833.888889,659.777403 833.888889,445 C833.888889,230.222597 659.777403,56.1111111 445,56.1111111 C230.222597,56.1111111 56.1111111,230.222597 56.1111111,445 C56.1111111,659.777403 230.222597,833.888889 445,833.888889 Z M445,889.444444 C199.540111,889.444444 0.555555556,690.459889 0.555555556,445 C0.555555556,199.540111 199.540111,0.555555556 445,0.555555556 C690.459889,0.555555556 889.444444,199.540111 889.444444,445 C889.444444,690.459889 690.459889,889.444444 445,889.444444 Z" id="Oval"></path>
                <path d="M278.68673,445 L618.572158,445 L654.332501,333.888889 L278.68673,333.888889 L278.68673,445 Z M278.686729,278.333333 L692.453575,278.333333 C707.794818,278.333333 720.231353,290.769868 720.231353,306.111111 C720.231353,309.000041 719.78069,311.871289 718.895618,314.6213 L665.255104,481.287966 C661.559529,492.770502 650.875643,500.555556 638.813061,500.555556 L278.68673,500.555556 L278.68673,556.303422 L639.562397,556.303422 C654.90364,556.303422 667.340175,568.739956 667.340175,584.081199 C667.340175,599.422442 654.90364,611.858977 639.562397,611.858977 L278.68673,611.858977 C248.004244,611.858977 223.131174,586.985908 223.131174,556.303422 L223.131174,500.555556 L222.777778,500.555556 L222.777778,278.3448 L195.353396,278.3448 C180.012153,278.3448 167.575619,265.908265 167.575619,250.567022 C167.575619,235.225779 180.012153,222.789244 195.353396,222.789244 L223.131174,222.789244 C253.809838,222.789244 278.680533,247.656117 278.686729,278.333333 Z" id="Combined-Shape"></path>
                <circle id="Oval" cx="278.333333" cy="667.222222" r="27.7777778"></circle>
                <circle id="Oval-Copy" cx="611.666667" cy="667.222222" r="27.7777778"></circle>
            </g>
        </g>
    </g>
</svg>