<?xml version="1.0" encoding="UTF-8"?>
<svg width="1000px" height="1000px" viewBox="0 0 1000 1000" version="1.1" xmlns="http://www.w3.org/2000/svg" xmlns:xlink="http://www.w3.org/1999/xlink">
    <!-- Generator: sketchtool 53.2 (72643) - https://sketchapp.com -->
    <title>cash-on-deliver</title>
    <desc>Created with sketchtool.</desc>
    <g id="icons" stroke="none" stroke-width="1" fill="none" fill-rule="evenodd">
        <g id="cash-on-deliver" fill="#323233">
            <g id="圆角-货到付款">
                <path d="M166.666667,277.777778 L166.666667,833.333333 L833.333333,833.333333 L833.333333,277.777778 L166.666667,277.777778 Z M111.111111,222.222222 L151.311489,141.821467 C160.722156,123.000132 179.958996,111.111111 201.001888,111.111111 L798.998112,111.111111 C820.041004,111.111111 839.277844,123.000132 848.688511,141.821467 L888.888889,222.222222 L888.888889,833.333333 C888.888889,864.015819 864.015819,888.888889 833.333333,888.888889 L166.666667,888.888889 C135.984181,888.888889 111.111111,864.015819 111.111111,833.333333 L111.111111,222.222222 Z M173.22411,222.222222 L826.77589,222.222222 L798.998112,166.666667 L201.001888,166.666667 L173.22411,222.222222 Z" id="Combined-Shape" fill-rule="nonzero"></path>
                <path d="M500.493526,443.252966 L539.28371,404.462783 C550.131607,393.614886 567.719523,393.614886 578.56742,404.462783 C589.415317,415.31068 589.415317,432.898596 578.56742,443.746493 L550.091691,472.222222 L569.444444,472.222222 C584.785687,472.222222 597.222222,484.658757 597.222222,500 C597.222222,515.341243 584.785687,527.777778 569.444444,527.777778 L527.777778,527.777778 L527.777778,555.555556 L569.444444,555.555556 C584.785687,555.555556 597.222222,567.99209 597.222222,583.333333 C597.222222,598.674576 584.785687,611.111111 569.444444,611.111111 L527.777778,611.111111 L527.777778,638.888889 C527.777778,654.230132 515.341243,666.666667 500,666.666667 C484.658757,666.666667 472.222222,654.230132 472.222222,638.888889 L472.222222,611.111111 L430.555556,611.111111 C415.214313,611.111111 402.777778,598.674576 402.777778,583.333333 C402.777778,567.99209 415.214313,555.555556 430.555556,555.555556 L472.222222,555.555556 L472.222222,527.777778 L430.555556,527.777778 C415.214313,527.777778 402.777778,515.341243 402.777778,500 C402.777778,484.658757 415.214313,472.222222 430.555556,472.222222 L450.895362,472.222222 L422.419633,443.746493 C411.571736,432.898596 411.571736,415.31068 422.419633,404.462783 C433.26753,393.614886 450.855446,393.614886 461.703343,404.462783 L500.493526,443.252966 Z" id="Shape"></path>
            </g>
        </g>
    </g>
</svg>