<?xml version="1.0" encoding="UTF-8"?>
<svg width="1000px" height="1000px" viewBox="0 0 1000 1000" version="1.1" xmlns="http://www.w3.org/2000/svg" xmlns:xlink="http://www.w3.org/1999/xlink">
    <!-- Generator: sketchtool 53.2 (72643) - https://sketchapp.com -->
    <title>cash-back-record</title>
    <desc>Created with sketchtool.</desc>
    <g id="icons" stroke="none" stroke-width="1" fill="none" fill-rule="evenodd">
        <g id="cash-back-record">
            <g id="圆角-返现记录-面">
                <g transform="translate(55.555556, 55.555556)">
                    <path d="M796.930529,598.85163 L746.335574,575.904509 C716.974291,640.641727 668.384129,694.763802 605.438558,731.105445 C441.227154,825.912943 231.250847,769.649961 136.44335,605.438558 C41.6358516,441.227154 97.8988335,231.250847 262.110237,136.44335 C426.32164,41.6358516 636.297947,97.8988335 731.105445,262.110237 L779.217967,234.332459 C669.069226,43.5492433 425.115675,-21.8179139 234.332459,88.3308271 C43.5492433,198.479568 -21.8179139,442.43312 88.3308271,633.216335 C198.479568,823.999551 442.43312,889.366708 633.216335,779.217967 C708.143658,735.958657 763.726671,672.061146 796.930529,598.85163 Z M633.216335,779.217967 C708.143658,735.958657 763.726671,672.061146 796.930529,598.85163 L746.335574,575.904509 C716.974291,640.641727 668.384129,694.763802 605.438558,731.105445 C441.227154,825.912943 231.250847,769.649961 136.44335,605.438558 C41.6358516,441.227154 97.8988335,231.250847 262.110237,136.44335 C426.32164,41.6358516 636.297947,97.8988335 731.105445,262.110237 L779.217967,234.332459 C669.069226,43.5492433 425.115675,-21.8179139 234.332459,88.3308271 C43.5492433,198.479568 -21.8179139,442.43312 88.3308271,633.216335 C198.479568,823.999551 442.43312,889.366708 633.216335,779.217967 Z M755.841604,277.103471 C771.182847,277.103471 783.619382,264.666937 783.619382,249.325694 C783.619382,233.984451 771.182847,221.547916 755.841604,221.547916 C740.500361,221.547916 728.063827,233.984451 728.063827,249.325694 C728.063827,264.666937 740.500361,277.103471 755.841604,277.103471 Z M772.08514,614.397 C787.426383,614.397 799.862918,601.960465 799.862918,586.619222 C799.862918,571.277979 787.426383,558.841444 772.08514,558.841444 C756.743897,558.841444 744.307363,571.277979 744.307363,586.619222 C744.307363,601.960465 756.743897,614.397 772.08514,614.397 Z" id="Oval-8" fill="#333333" fill-rule="nonzero"></path>
                    <path d="M819.153951,416.666667 L819.153951,347.41373 C819.153951,347.353524 819.175678,347.29534 819.21514,347.24987 C819.305637,347.145592 819.463534,347.134421 819.567811,347.224919 L930.286361,443.3122 C930.295256,443.319919 930.303594,443.328257 930.311312,443.337151 C930.40181,443.441429 930.390639,443.599325 930.286361,443.689823 L819.567811,539.777104 C819.522341,539.816566 819.464157,539.838293 819.403951,539.838293 C819.26588,539.838293 819.153951,539.726364 819.153951,539.588293 L819.153951,472.222222 L694.444444,472.222222 C679.103201,472.222222 666.666667,459.785687 666.666667,444.444444 C666.666667,429.103201 679.103201,416.666667 694.444444,416.666667 L819.153951,416.666667 Z" id="Combined-Shape" fill="#333333"></path>
                    <path d="M270.98733,382.098441 L270.98733,382.098441 C270.98733,366.757198 283.423865,354.320663 298.765108,354.320663 L576.542886,354.320663 C591.884129,354.320663 604.320663,366.757198 604.320663,382.098441 L604.320663,382.098441 C604.320663,397.439684 591.884129,409.876219 576.542886,409.876219 L298.765108,409.876219 C283.423865,409.876219 270.98733,397.439684 270.98733,382.098441 Z" id="Combined-Shape" fill="#323233" fill-rule="nonzero"></path>
                    <path d="M409.876219,382.098441 L465.431774,382.098441 L465.431774,632.098441 C465.431774,647.439684 452.99524,659.876219 437.653997,659.876219 L437.653997,659.876219 C422.312754,659.876219 409.876219,647.439684 409.876219,632.098441 L409.876219,382.098441 Z" id="Path-32-Copy-3" fill="#323233"></path>
                    <path d="M270.98733,493.209552 L270.98733,493.209552 C270.98733,477.868309 283.423865,465.431774 298.765108,465.431774 L576.542886,465.431774 C591.884129,465.431774 604.320663,477.868309 604.320663,493.209552 L604.320663,493.209552 C604.320663,508.550795 591.884129,520.98733 576.542886,520.98733 L298.765108,520.98733 C283.423865,520.98733 270.98733,508.550795 270.98733,493.209552 Z" id="Path-32-Copy-2" fill="#323233"></path>
                    <path d="M510.167372,224.946561 L510.167372,224.946561 C525.508615,224.946561 537.94515,237.383096 537.94515,252.724339 L537.94515,391.613228 L482.389595,391.613228 L482.389595,252.724339 C482.389595,237.383096 494.826129,224.946561 510.167372,224.946561 Z" id="Rectangle" fill="#323233" transform="translate(510.167372, 308.279895) rotate(30.000000) translate(-510.167372, -308.279895) "></path>
                    <path d="M343.500706,224.946561 L343.500706,224.946561 C358.841949,224.946561 371.278483,237.383096 371.278483,252.724339 L371.278483,391.613228 L315.722928,391.613228 L315.722928,252.724339 C315.722928,237.383096 328.159463,224.946561 343.500706,224.946561 Z" id="Rectangle-Copy-2" fill="#323233" transform="translate(343.500706, 308.279895) scale(-1, 1) rotate(30.000000) translate(-343.500706, -308.279895) "></path>
                </g>
            </g>
        </g>
    </g>
</svg>