<?xml version="1.0" encoding="UTF-8"?>
<svg width="1000px" height="1000px" viewBox="0 0 1000 1000" version="1.1" xmlns="http://www.w3.org/2000/svg" xmlns:xlink="http://www.w3.org/1999/xlink">
    <!-- Generator: sketchtool 53.2 (72643) - https://sketchapp.com -->
    <title>cashier-o</title>
    <desc>Created with sketchtool.</desc>
    <g id="icons" stroke="none" stroke-width="1" fill="none" fill-rule="evenodd">
        <g id="cashier-o" fill="#333333" fill-rule="nonzero">
            <g id="直角-收银开单" transform="translate(55.000000, 111.000000)">
                <path d="M56.1111111,55.6666667 L56.1111111,555.666667 L833.888889,555.666667 L833.888889,55.6666667 L56.1111111,55.6666667 Z M472.777778,611.222222 L472.777778,722.333333 L639.444444,722.333333 C654.785687,722.333333 667.222222,734.769868 667.222222,750.111111 L667.222222,750.111111 C667.222222,765.452354 654.785687,777.888889 639.444444,777.888889 L250.555556,777.888889 C235.214313,777.888889 222.777778,765.452354 222.777778,750.111111 L222.777778,750.111111 C222.777778,734.769868 235.214313,722.333333 250.555556,722.333333 L417.222222,722.333333 L417.222222,611.222222 L56.1111111,611.222222 C25.428625,611.222222 0.555555556,586.349153 0.555555556,555.666667 L0.555555556,55.6666667 C0.555555556,24.9841806 25.428625,0.111111111 56.1111111,0.111111111 L833.888889,0.111111111 C864.571375,0.111111111 889.444444,24.9841806 889.444444,55.6666667 L889.444444,555.666667 C889.444444,586.349153 864.571375,611.222222 833.888889,611.222222 L472.777778,611.222222 Z M445.493526,213.703884 L484.28371,174.913701 C495.131607,164.065804 512.719523,164.065804 523.56742,174.913701 C534.415317,185.761598 534.415317,203.349514 523.56742,214.197411 L495.091691,242.67314 L514.444444,242.67314 C529.785687,242.67314 542.222222,255.109675 542.222222,270.450918 C542.222222,285.792161 529.785687,298.228696 514.444444,298.228696 L472.777778,298.228696 L472.777778,326.006474 L514.444444,326.006474 C529.785687,326.006474 542.222222,338.443008 542.222222,353.784251 C542.222222,369.125494 529.785687,381.562029 514.444444,381.562029 L472.777778,381.562029 L472.777778,409.339807 C472.777778,424.68105 460.341243,437.117585 445,437.117585 C429.658757,437.117585 417.222222,424.68105 417.222222,409.339807 L417.222222,381.562029 L375.555556,381.562029 C360.214313,381.562029 347.777778,369.125494 347.777778,353.784251 C347.777778,338.443008 360.214313,326.006474 375.555556,326.006474 L417.222222,326.006474 L417.222222,298.228696 L375.555556,298.228696 C360.214313,298.228696 347.777778,285.792161 347.777778,270.450918 C347.777778,255.109675 360.214313,242.67314 375.555556,242.67314 L395.895362,242.67314 L367.419633,214.197411 C356.571736,203.349514 356.571736,185.761598 367.419633,174.913701 C378.26753,164.065804 395.855446,164.065804 406.703343,174.913701 L445.493526,213.703884 L445.493526,213.703884 Z" id="Combined-Shape"></path>
            </g>
        </g>
    </g>
</svg>