<?xml version="1.0" encoding="UTF-8"?>
<svg width="1000px" height="1000px" viewBox="0 0 1000 1000" version="1.1" xmlns="http://www.w3.org/2000/svg" xmlns:xlink="http://www.w3.org/1999/xlink">
    <!-- Generator: sketchtool 53.2 (72643) - https://sketchapp.com -->
    <title>certificate</title>
    <desc>Created with sketchtool.</desc>
    <g id="icons" stroke="none" stroke-width="1" fill="none" fill-rule="evenodd">
        <g id="certificate" fill="#323233" fill-rule="nonzero">
            <g id="圆角-服务保障">
                <path d="M885.463535,448.157986 C887.722722,465.117519 888.888889,482.422573 888.888889,500 C888.888889,714.777403 714.777403,888.888889 500,888.888889 C285.222597,888.888889 111.111111,714.777403 111.111111,500 C111.111111,285.222597 285.222597,111.111111 500,111.111111 C560.390049,111.111111 617.565074,124.876263 668.558643,149.440134 L644.448683,199.491404 C599.799584,177.983697 550.760804,166.666667 500,166.666667 C315.905083,166.666667 166.666667,315.905083 166.666667,500 C166.666667,684.094917 315.905083,833.333333 500,833.333333 C684.094917,833.333333 833.333333,684.094917 833.333333,500 C833.333333,485.00611 832.346913,470.15088 830.394432,455.493764 L885.463535,448.157986 Z M658.146678,202.974063 C642.805435,202.974063 630.368901,190.537528 630.368901,175.196285 C630.368901,159.855042 642.805435,147.418507 658.146678,147.418507 C673.487921,147.418507 685.924456,159.855042 685.924456,175.196285 C685.924456,190.537528 673.487921,202.974063 658.146678,202.974063 Z M858.031909,481.661283 C842.690666,481.661283 830.254131,469.224748 830.254131,453.883505 C830.254131,438.542262 842.690666,426.105727 858.031909,426.105727 C873.373152,426.105727 885.809687,438.542262 885.809687,453.883505 C885.809687,469.224748 873.373152,481.661283 858.031909,481.661283 Z M339.264551,457.652143 C332.330351,450.728192 331.209113,439.962032 337.321308,432.256478 L351.612683,414.239551 C357.470676,406.854465 368.428714,404.999621 376.173937,410.169161 L499.87012,492.730033 C506.394997,497.085054 517.624326,496.517876 523.716337,491.575433 L850.573527,226.396469 C857.920175,220.436139 869.428219,220.944134 875.867545,227.373943 L883.91882,235.413318 C890.925521,242.409664 890.416163,253.515509 883.071063,260.849753 L532.257074,611.145255 C521.34233,622.043867 503.422051,621.567025 492.186406,610.347987 L339.264551,457.652143 Z" id="Shape"></path>
            </g>
        </g>
    </g>
</svg>