<?xml version="1.0" encoding="UTF-8"?>
<svg width="1000px" height="1000px" viewBox="0 0 1000 1000" version="1.1" xmlns="http://www.w3.org/2000/svg" xmlns:xlink="http://www.w3.org/1999/xlink">
    <!-- Generator: sketchtool 53.2 (72643) - https://sketchapp.com -->
    <title>chart-trending-o</title>
    <desc>Created with sketchtool.</desc>
    <g id="icons" stroke="none" stroke-width="1" fill="none" fill-rule="evenodd">
        <g id="chart-trending-o" fill="#323233" fill-rule="nonzero">
            <path d="M727.860865,151.640699 C713.048667,151.640699 701.041009,139.633041 701.041009,124.820843 C701.041009,110.008646 713.048667,98.0009876 727.860865,98.0009876 L835.140288,98.0009876 C849.952486,98.0009876 861.960144,110.008646 861.960144,124.820843 L861.960144,232.100267 C861.960144,246.912465 849.952486,258.920123 835.140288,258.920123 C820.328091,258.920123 808.320432,246.912465 808.320432,232.100267 L808.320432,151.640699 L727.860865,151.640699 Z M191.463747,580.758394 L191.463747,848.956953 L298.74317,848.956953 L298.74317,580.758394 L191.463747,580.758394 Z M191.463747,527.118682 L298.74317,527.118682 C328.367565,527.118682 352.382882,551.133999 352.382882,580.758394 L352.382882,848.956953 C352.382882,878.581348 328.367565,902.596665 298.74317,902.596665 L191.463747,902.596665 C161.839352,902.596665 137.824035,878.581348 137.824035,848.956953 L137.824035,580.758394 C137.824035,551.133999 161.839352,527.118682 191.463747,527.118682 Z M459.662306,473.47897 L459.662306,848.956953 L566.941729,848.956953 L566.941729,473.47897 L459.662306,473.47897 Z M459.662306,419.839258 L566.941729,419.839258 C596.566124,419.839258 620.581441,443.854575 620.581441,473.47897 L620.581441,848.956953 C620.581441,878.581348 596.566124,902.596665 566.941729,902.596665 L459.662306,902.596665 C430.037911,902.596665 406.022594,878.581348 406.022594,848.956953 L406.022594,473.47897 C406.022594,443.854575 430.037911,419.839258 459.662306,419.839258 Z M727.860865,366.199547 L727.860865,848.956953 L835.140288,848.956953 L835.140288,366.199547 L727.860865,366.199547 Z M727.860865,312.559835 L835.140288,312.559835 C864.764683,312.559835 888.78,336.575152 888.78,366.199547 L888.78,848.956953 C888.78,878.581348 864.764683,902.596665 835.140288,902.596665 L727.860865,902.596665 C698.23647,902.596665 674.221153,878.581348 674.221153,848.956953 L674.221153,366.199547 C674.221153,336.575152 698.23647,312.559835 727.860865,312.559835 Z M151.508864,469.403054 C138.769987,476.960977 122.31618,472.760983 114.758257,460.022106 C107.200334,447.283228 111.400328,430.829421 124.139205,423.271498 L402.762319,257.965569 L561.468841,309.411828 L818.386057,103.878055 C829.95244,94.6249482 846.829971,96.5002294 856.083077,108.066612 C865.336184,119.632995 863.460902,136.510526 851.894519,145.763632 L572.414618,369.347554 L409.282868,316.466815 L151.508864,469.403054 Z" id="Shape"></path>
        </g>
    </g>
</svg>