<?xml version="1.0" encoding="UTF-8"?>
<svg width="1000px" height="1000px" viewBox="0 0 1000 1000" version="1.1" xmlns="http://www.w3.org/2000/svg" xmlns:xlink="http://www.w3.org/1999/xlink">
    <!-- Generator: sketchtool 53.2 (72643) - https://sketchapp.com -->
    <title>checked</title>
    <desc>Created with sketchtool.</desc>
    <defs>
        <path d="M500.445,944.89 C254.984804,944.89 56,745.905196 56,500.445 C56,254.984804 254.984804,56 500.445,56 C745.905196,56 944.89,254.984804 944.89,500.445 C944.89,745.905196 745.905196,944.89 500.445,944.89 Z M283.560602,531.539505 L421.190444,659.804175 C431.302537,669.228179 447.430809,669.628727 457.254091,660.473881 L772.987075,366.225292 C779.597673,360.064519 780.056096,350.735597 773.750057,344.858659 L766.503901,338.105576 C760.7085,332.704529 750.351248,332.277814 743.739256,337.284497 L449.567418,560.035105 C444.084601,564.186762 433.978192,564.663193 428.105796,561.00497 L316.779091,491.653751 C309.808382,487.311332 299.946136,488.869403 294.673935,495.072883 L281.811681,510.207121 C276.3107,516.679794 277.319815,525.723379 283.560602,531.539505 Z" id="path-1"></path>
    </defs>
    <g id="icons" stroke="none" stroke-width="1" fill="none" fill-rule="evenodd">
        <g id="checked">
            <g id="圆角-已选择"></g>
            <mask id="mask-2" fill="white">
                <use xlink:href="#path-1"></use>
            </mask>
            <use id="02_Mobile/01_Basic/07_checked" fill="#323233" xlink:href="#path-1"></use>
        </g>
    </g>
</svg>