<?xml version="1.0" encoding="UTF-8"?>
<svg width="1000px" height="1000px" viewBox="0 0 1000 1000" version="1.1" xmlns="http://www.w3.org/2000/svg" xmlns:xlink="http://www.w3.org/1999/xlink">
    <!-- Generator: sketchtool 53.2 (72643) - https://sketchapp.com -->
    <title>clear</title>
    <desc>Created with sketchtool.</desc>
    <g id="icons" stroke="none" stroke-width="1" fill="none" fill-rule="evenodd">
        <g id="clear" fill="#323233">
            <g id="合并形状">
                <path d="M500,944.444444 C254.540111,944.444444 55.5555556,745.459889 55.5555556,500 C55.5555556,254.540111 254.540111,55.5555556 500,55.5555556 C745.459889,55.5555556 944.444444,254.540111 944.444444,500 C944.444444,745.459889 745.459889,944.444444 500,944.444444 Z M499.664508,460.936353 L362.171523,323.443368 C351.323626,312.595471 333.73571,312.595471 322.887813,323.443368 C312.039916,334.291265 312.039916,351.879181 322.887813,362.727078 L460.380798,500.220063 L322.887813,637.713048 C312.039916,648.560945 312.039916,666.148861 322.887813,676.996758 C333.73571,687.844655 351.323626,687.844655 362.171523,676.996758 L499.664508,539.503773 L637.157493,676.996758 C648.00539,687.844655 665.593306,687.844655 676.441203,676.996758 C687.2891,666.148861 687.2891,648.560945 676.441203,637.713048 L538.948218,500.220063 L676.441203,362.727078 C687.2891,351.879181 687.2891,334.291265 676.441203,323.443368 C665.593306,312.595471 648.00539,312.595471 637.157493,323.443368 L499.664508,460.936353 Z"></path>
            </g>
        </g>
    </g>
</svg>