<?xml version="1.0" encoding="UTF-8"?>
<svg width="1000px" height="1000px" viewBox="0 0 1000 1000" version="1.1" xmlns="http://www.w3.org/2000/svg" xmlns:xlink="http://www.w3.org/1999/xlink">
    <!-- Generator: sketchtool 53.2 (72643) - https://sketchapp.com -->
    <title>cluster</title>
    <desc>Created with sketchtool.</desc>
    <g id="icons" stroke="none" stroke-width="1" fill="none" fill-rule="evenodd">
        <g id="cluster" fill="#323233">
            <g id="直角-分销市场-线">
                <g transform="translate(55.555556, 111.111111)" id="Combined-Shape">
                    <path d="M472.222222,222.222222 L472.222222,306.608045 C620.652762,317.899355 744.000839,418.924367 788.138923,555.555556 L833.333333,555.555556 C864.015819,555.555556 888.888889,580.428625 888.888889,611.111111 L888.888889,722.222222 C888.888889,752.904708 864.015819,777.777778 833.333333,777.777778 L722.222222,777.777778 C691.539736,777.777778 666.666667,752.904708 666.666667,722.222222 L666.666667,611.111111 C666.666667,580.428625 691.539736,555.555556 722.222222,555.555556 L729.169983,555.555556 C687.934214,449.96614 589.657865,372.939443 472.222222,362.35675 L472.222222,555.555556 L500,555.555556 C530.682486,555.555556 555.555556,580.428625 555.555556,611.111111 L555.555556,722.222222 C555.555556,752.904708 530.682486,777.777778 500,777.777778 L388.888889,777.777778 C358.206403,777.777778 333.333333,752.904708 333.333333,722.222222 L333.333333,611.111111 C333.333333,580.428625 358.206403,555.555556 388.888889,555.555556 L416.666667,555.555556 L416.666667,362.35675 C299.231023,372.939443 200.954675,449.96614 159.718906,555.555556 L166.666667,555.555556 C197.349153,555.555556 222.222222,580.428625 222.222222,611.111111 L222.222222,722.222222 C222.222222,752.904708 197.349153,777.777778 166.666667,777.777778 L55.5555556,777.777778 C24.8730695,777.777778 3.75752084e-15,752.904708 0,722.222222 L0,611.111111 C-3.75752084e-15,580.428625 24.8730695,555.555556 55.5555556,555.555556 L100.749965,555.555556 C144.88805,418.924367 268.236127,317.899355 416.666667,306.608045 L416.666667,222.222222 L388.888889,222.222222 C358.206403,222.222222 333.333333,197.349153 333.333333,166.666667 L333.333333,55.5555556 C333.333333,24.8730695 358.206403,5.63628126e-15 388.888889,0 L500,0 C530.682486,-5.63628126e-15 555.555556,24.8730695 555.555556,55.5555556 L555.555556,166.666667 C555.555556,197.349153 530.682486,222.222222 500,222.222222 L472.222222,222.222222 Z"></path>
                </g>
            </g>
        </g>
    </g>
</svg>