<?xml version="1.0" encoding="UTF-8"?>
<svg width="1000px" height="1000px" viewBox="0 0 1000 1000" version="1.1" xmlns="http://www.w3.org/2000/svg" xmlns:xlink="http://www.w3.org/1999/xlink">
    <!-- Generator: sketchtool 53.2 (72643) - https://sketchapp.com -->
    <title>column</title>
    <desc>Created with sketchtool.</desc>
    <g id="icons" stroke="none" stroke-width="1" fill="none" fill-rule="evenodd">
        <g id="column" fill="#323233">
            <g id="Column">
                <path d="M222.222222,111.111111 L666.666667,111.111111 C697.349153,111.111111 722.222222,135.984181 722.222222,166.666667 L722.222222,833.333333 C722.222222,864.015819 697.349153,888.888889 666.666667,888.888889 L222.222222,888.888889 C191.539736,888.888889 166.666667,864.015819 166.666667,833.333333 L166.666667,166.666667 C166.666667,135.984181 191.539736,111.111111 222.222222,111.111111 Z M805.555556,111.111111 C820.896799,111.111111 833.333333,123.547646 833.333333,138.888889 L833.333333,861.111111 C833.333333,876.452354 820.896799,888.888889 805.555556,888.888889 C790.214313,888.888889 777.777778,876.452354 777.777778,861.111111 L777.777778,138.888889 C777.777778,123.547646 790.214313,111.111111 805.555556,111.111111 Z M305.555556,277.777778 C290.214313,277.777778 277.777778,290.214313 277.777778,305.555556 C277.777778,320.896799 290.214313,333.333333 305.555556,333.333333 L583.333333,333.333333 C598.674576,333.333333 611.111111,320.896799 611.111111,305.555556 C611.111111,290.214313 598.674576,277.777778 583.333333,277.777778 L305.555556,277.777778 Z M305.555556,388.888889 C290.214313,388.888889 277.777778,401.325424 277.777778,416.666667 C277.777778,432.00791 290.214313,444.444444 305.555556,444.444444 L583.333333,444.444444 C598.674576,444.444444 611.111111,432.00791 611.111111,416.666667 C611.111111,401.325424 598.674576,388.888889 583.333333,388.888889 L305.555556,388.888889 Z M305.555556,500 C290.214313,500 277.777778,512.436535 277.777778,527.777778 C277.777778,543.119021 290.214313,555.555556 305.555556,555.555556 L472.222222,555.555556 C487.563465,555.555556 500,543.119021 500,527.777778 C500,512.436535 487.563465,500 472.222222,500 L305.555556,500 Z" id="Shape"></path>
            </g>
        </g>
    </g>
</svg>