<?xml version="1.0" encoding="UTF-8"?>
<svg width="1000px" height="1000px" viewBox="0 0 1000 1000" version="1.1" xmlns="http://www.w3.org/2000/svg" xmlns:xlink="http://www.w3.org/1999/xlink">
    <!-- Generator: sketchtool 53.2 (72643) - https://sketchapp.com -->
    <title>comment</title>
    <desc>Created with sketchtool.</desc>
    <g id="icons" stroke="none" stroke-width="1" fill="none" fill-rule="evenodd">
        <g id="comment" fill="#323233">
            <g id="形状">
                <path d="M611.111111,722.221111 L546.225016,819.550253 C542.156413,825.653158 536.919582,830.889989 530.816678,834.958592 C505.287306,851.978173 470.794565,845.079625 453.774984,819.550253 L388.888889,722.221111 L111.111111,722.221111 C80.428625,722.221111 55.5555556,697.348042 55.5555556,666.665556 L55.5555556,166.665556 C55.5555556,135.983069 80.428625,111.11 111.111111,111.11 L888.888889,111.11 C919.571375,111.11 944.444444,135.983069 944.444444,166.665556 L944.444444,666.665556 C944.444444,697.348042 919.571375,722.221111 888.888889,722.221111 L611.111111,722.221111 L611.111111,722.221111 Z M305.555556,277.776667 C290.214313,277.776667 277.777778,290.213201 277.777778,305.554444 C277.777778,320.895687 290.214313,333.332222 305.555556,333.332222 L694.444444,333.332222 C709.785687,333.332222 722.222222,320.895687 722.222222,305.554444 C722.222222,290.213201 709.785687,277.776667 694.444444,277.776667 L305.555556,277.776667 Z M305.555556,444.443333 C290.214313,444.443333 277.777778,456.879868 277.777778,472.221111 C277.777778,487.562354 290.214313,499.998889 305.555556,499.998889 L694.444444,499.998889 C709.785687,499.998889 722.222222,487.562354 722.222222,472.221111 C722.222222,456.879868 709.785687,444.443333 694.444444,444.443333 L305.555556,444.443333 Z"></path>
            </g>
        </g>
    </g>
</svg>