<?xml version="1.0" encoding="UTF-8"?>
<svg width="1000px" height="1000px" viewBox="0 0 1000 1000" version="1.1" xmlns="http://www.w3.org/2000/svg" xmlns:xlink="http://www.w3.org/1999/xlink">
    <!-- Generator: sketchtool 53.2 (72643) - https://sketchapp.com -->
    <title>comment-o</title>
    <desc>Created with sketchtool.</desc>
    <g id="icons" stroke="none" stroke-width="1" fill="none" fill-rule="evenodd">
        <g id="comment-o" fill="#323233">
            <g id="圆角-待评价-线">
                <g transform="translate(55.555556, 111.110000)">
                    <path d="M444.444444,677.623576 L525.823125,555.555556 L833.333333,555.555556 L833.333333,55.5555556 L55.5555556,55.5555556 L55.5555556,555.555556 L363.065764,555.555556 L444.444444,677.623576 Z M490.669461,708.440253 C486.600858,714.543158 481.364027,719.779989 475.261122,723.848592 C449.73175,740.868173 415.239009,733.969625 398.219428,708.440253 L333.333333,611.111111 L55.5555556,611.111111 C24.8730695,611.111111 0,586.238042 0,555.555556 L0,55.5555556 C-6.16790569e-15,24.8730695 24.8730695,0 55.5555556,0 L833.333333,0 C864.015819,0 888.888889,24.8730695 888.888889,55.5555556 L888.888889,555.555556 C888.888889,586.238042 864.015819,611.111111 833.333333,611.111111 L555.555556,611.111111 L490.669461,708.440253 Z" id="Combined-Shape" fill-rule="nonzero"></path>
                    <path d="M250,166.666667 L638.888889,166.666667 C654.230132,166.666667 666.666667,179.103201 666.666667,194.444444 C666.666667,209.785687 654.230132,222.222222 638.888889,222.222222 L250,222.222222 C234.658757,222.222222 222.222222,209.785687 222.222222,194.444444 C222.222222,179.103201 234.658757,166.666667 250,166.666667 Z" id="Rectangle-7"></path>
                    <path d="M250,333.333333 L638.888889,333.333333 C654.230132,333.333333 666.666667,345.769868 666.666667,361.111111 C666.666667,376.452354 654.230132,388.888889 638.888889,388.888889 L250,388.888889 C234.658757,388.888889 222.222222,376.452354 222.222222,361.111111 C222.222222,345.769868 234.658757,333.333333 250,333.333333 Z" id="Rectangle-7-Copy"></path>
                </g>
            </g>
        </g>
    </g>
</svg>