<?xml version="1.0" encoding="UTF-8"?>
<svg width="1000px" height="1000px" viewBox="0 0 1000 1000" version="1.1" xmlns="http://www.w3.org/2000/svg" xmlns:xlink="http://www.w3.org/1999/xlink">
    <!-- Generator: sketchtool 53.2 (72643) - https://sketchapp.com -->
    <title>comment-circle</title>
    <desc>Created with sketchtool.</desc>
    <g id="icons" stroke="none" stroke-width="1" fill="none" fill-rule="evenodd">
        <g id="comment-circle" fill="#323233">
            <path d="M500,944.444444 C254.540111,944.444444 55.5555556,745.459889 55.5555556,500 C55.5555556,254.540111 254.540111,55.5555556 500,55.5555556 C745.459889,55.5555556 944.444444,254.540111 944.444444,500 C944.444444,745.459889 745.459889,944.444444 500,944.444444 Z M694.444444,615.761448 L394.384506,615.761448 L368.055556,666.486503 L341.726605,615.761448 L305.555556,615.761448 L305.555556,333.333333 L694.444444,333.333333 L694.444444,615.761448 Z M395.791833,733.642056 L428.141788,671.317003 L718.75,671.317003 C736.008898,671.317003 750,657.325902 750,640.067003 L750,309.027778 C750,291.768879 736.008898,277.777778 718.75,277.777778 L281.25,277.777778 C263.991102,277.777778 250,291.768879 250,309.027778 L250,640.067003 C250,657.325902 263.991102,671.317003 281.25,671.317003 L307.969323,671.317003 L340.319278,733.642056 C348.270287,748.960379 367.133808,754.932767 382.452131,746.981758 C388.166737,744.015579 392.825655,739.356661 395.791833,733.642056 Z" id="Combined-Shape"></path>
        </g>
    </g>
</svg>