<?xml version="1.0" encoding="UTF-8"?>
<svg width="1000px" height="1000px" viewBox="0 0 1000 1000" version="1.1" xmlns="http://www.w3.org/2000/svg" xmlns:xlink="http://www.w3.org/1999/xlink">
    <!-- Generator: sketchtool 53.2 (72643) - https://sketchapp.com -->
    <title>coupon</title>
    <desc>Created with sketchtool.</desc>
    <g id="icons" stroke="none" stroke-width="1" fill="none" fill-rule="evenodd">
        <g id="coupon" fill="#323233" fill-rule="nonzero">
            <g id="圆角-优惠券">
                <path d="M55.5555556,388.888889 L55.5555556,222.222222 C55.5555556,191.539736 80.428625,166.666667 111.111111,166.666667 L888.888889,166.666667 C919.571375,166.666667 944.444444,191.539736 944.444444,222.222222 L944.444444,388.888889 C883.079472,388.888889 833.333333,438.635028 833.333333,500 C833.333333,561.364972 883.079472,611.111111 944.444444,611.111111 L944.444444,777.777778 C944.444444,808.460264 919.571375,833.333333 888.888889,833.333333 L111.111111,833.333333 C80.428625,833.333333 55.5555556,808.460264 55.5555556,777.777778 L55.5555556,611.111111 C116.920528,611.111111 166.666667,561.364972 166.666667,500 C166.666667,438.635028 116.920528,388.888889 55.5555556,388.888889 Z M361.111111,388.888889 C345.769868,388.888889 333.333333,401.325424 333.333333,416.666667 C333.333333,432.00791 345.769868,444.444444 361.111111,444.444444 L638.888889,444.444444 C654.230132,444.444444 666.666667,432.00791 666.666667,416.666667 C666.666667,401.325424 654.230132,388.888889 638.888889,388.888889 L361.111111,388.888889 Z M361.111111,555.555556 C345.769868,555.555556 333.333333,567.99209 333.333333,583.333333 C333.333333,598.674576 345.769868,611.111111 361.111111,611.111111 L638.888889,611.111111 C654.230132,611.111111 666.666667,598.674576 666.666667,583.333333 C666.666667,567.99209 654.230132,555.555556 638.888889,555.555556 L361.111111,555.555556 Z" id="Combined-Shape"></path>
            </g>
        </g>
    </g>
</svg>