<?xml version="1.0" encoding="UTF-8"?>
<svg width="1000px" height="1000px" viewBox="0 0 1000 1000" version="1.1" xmlns="http://www.w3.org/2000/svg" xmlns:xlink="http://www.w3.org/1999/xlink">
    <!-- Generator: sketchtool 53.2 (72643) - https://sketchapp.com -->
    <title>cross</title>
    <desc>Created with sketchtool.</desc>
    <g id="icons" stroke="none" stroke-width="1" fill="none" fill-rule="evenodd">
        <g id="cross" fill="#323233" fill-rule="nonzero">
            <g id="圆角-关闭" transform="translate(174.000000, 174.000000)">
                <path d="M386.148859,327.223294 L641.492975,582.567409 C657.76482,598.839255 657.76482,625.221129 641.492975,641.492975 C625.221129,657.76482 598.839255,657.76482 582.567409,641.492975 L327.223294,386.148859 L71.8791786,641.492975 C55.6073331,657.76482 29.225459,657.76482 12.9536135,641.492975 C-3.31823199,625.221129 -3.31823199,598.839255 12.9536135,582.567409 L268.297729,327.223294 L12.9536135,71.8791786 C-3.31823199,55.6073331 -3.31823199,29.225459 12.9536135,12.9536135 C29.225459,-3.31823199 55.6073331,-3.31823199 71.8791786,12.9536135 L327.223294,268.297729 L582.567409,12.9536135 C598.839255,-3.31823199 625.221129,-3.31823199 641.492975,12.9536135 C657.76482,29.225459 657.76482,55.6073331 641.492975,71.8791786 L386.148859,327.223294 Z" id="Path"></path>
            </g>
        </g>
    </g>
</svg>