<?xml version="1.0" encoding="UTF-8"?>
<svg width="1000px" height="1000px" viewBox="0 0 1000 1000" version="1.1" xmlns="http://www.w3.org/2000/svg" xmlns:xlink="http://www.w3.org/1999/xlink">
    <!-- Generator: sketchtool 53.2 (72643) - https://sketchapp.com -->
    <title>descending</title>
    <desc>Created with sketchtool.</desc>
    <g id="icons" stroke="none" stroke-width="1" fill="none" fill-rule="evenodd">
        <g id="descending" fill="#323233" fill-rule="nonzero">
            <g id="Reverse-order">
                <path d="M751.308714,662.774246 L817.062425,597.020535 C833.33427,580.74869 859.716145,580.74869 875.98799,597.020535 C892.259835,613.292381 892.259835,639.674255 875.98799,655.9461 L742.552919,789.381172 C736.805514,796.771775 728.623396,802.175207 719.21091,804.387124 C705.470302,807.834267 690.315274,804.18492 679.56944,793.439086 C669.614819,783.484465 665.750133,769.746045 667.975381,756.853452 L667.975381,236.046667 C667.975381,213.034802 686.630183,194.38 709.642048,194.38 C732.653912,194.38 751.308714,213.034802 751.308714,236.046667 L751.308714,662.774246 Z M153.476667,248.113308 L514.587778,248.113308 C537.599642,248.113308 556.254444,266.76811 556.254444,289.779975 C556.254444,312.79184 537.599642,331.446642 514.587778,331.446642 L153.476667,331.446642 C130.464802,331.446642 111.81,312.79184 111.81,289.779975 C111.81,266.76811 130.464802,248.113308 153.476667,248.113308 Z M153.476667,470.335531 L514.587778,470.335531 C537.599642,470.335531 556.254444,488.990333 556.254444,512.002197 C556.254444,535.014062 537.599642,553.668864 514.587778,553.668864 L153.476667,553.668864 C130.464802,553.668864 111.81,535.014062 111.81,512.002197 C111.81,488.990333 130.464802,470.335531 153.476667,470.335531 Z M153.476667,692.557753 L514.587778,692.557753 C537.599642,692.557753 556.254444,711.212555 556.254444,734.224419 C556.254444,757.236284 537.599642,775.891086 514.587778,775.891086 L153.476667,775.891086 C130.464802,775.891086 111.81,757.236284 111.81,734.224419 C111.81,711.212555 130.464802,692.557753 153.476667,692.557753 Z" id="形状"></path>
            </g>
        </g>
    </g>
</svg>