<?xml version="1.0" encoding="UTF-8"?>
<svg width="1000px" height="1000px" viewBox="0 0 1000 1000" version="1.1" xmlns="http://www.w3.org/2000/svg" xmlns:xlink="http://www.w3.org/1999/xlink">
    <!-- Generator: sketchtool 53.2 (72643) - https://sketchapp.com -->
    <title>desktop-o</title>
    <desc>Created with sketchtool.</desc>
    <g id="icons" stroke="none" stroke-width="1" fill="none" fill-rule="evenodd">
        <g id="desktop-o" fill="#323233">
            <g id="直角-外接设备管理-线-">
                <path d="M777.777778,555.555556 L777.777778,111.111111 L222.222222,111.111111 L222.222222,555.555556 L777.777778,555.555556 Z M388.888889,666.666667 L611.111111,666.666667 L611.111111,611.111111 L388.888889,611.111111 L388.888889,666.666667 Z M722.222222,722.222222 L277.777778,722.222222 L277.777778,888.888889 L722.222222,888.888889 L722.222222,722.222222 Z M777.777778,55.5555556 C808.5,55.5555556 833.333333,80.4444444 833.333333,111.111111 L833.333333,555.555556 C833.333333,586.277778 808.5,611.111111 777.777778,611.111111 L666.666667,611.111111 L666.666667,666.666667 L722.222222,666.666667 C752.944444,666.666667 777.777778,691.555556 777.777778,722.222222 L777.777778,888.888889 C777.777778,919.611111 752.944444,944.444444 722.222222,944.444444 L277.777778,944.444444 C247.055556,944.444444 222.222222,919.611111 222.222222,888.888889 L222.222222,722.222222 C222.222222,691.555556 247.055556,666.666667 277.777778,666.666667 L333.333333,666.666667 L333.333333,611.111111 L222.222222,611.111111 C191.5,611.111111 166.666667,586.277778 166.666667,555.555556 L166.666667,111.111111 C166.666667,80.4444444 191.5,55.5555556 222.222222,55.5555556 L777.777778,55.5555556 Z M583.333333,833.361111 C567.99209,833.361111 555.555556,820.924576 555.555556,805.583333 C555.555556,790.24209 567.99209,777.805556 583.333333,777.805556 L638.888889,777.805556 C654.230132,777.805556 666.666667,790.24209 666.666667,805.583333 C666.666667,820.924576 654.230132,833.361111 638.888889,833.361111 L583.333333,833.361111 Z" id="Shape"></path>
            </g>
        </g>
    </g>
</svg>