<?xml version="1.0" encoding="UTF-8"?>
<svg width="1000px" height="1000px" viewBox="0 0 1000 1000" version="1.1" xmlns="http://www.w3.org/2000/svg" xmlns:xlink="http://www.w3.org/1999/xlink">
    <!-- Generator: sketchtool 53.2 (72643) - https://sketchapp.com -->
    <title>diamond-o</title>
    <desc>Created with sketchtool.</desc>
    <g id="icons" stroke="none" stroke-width="1" fill="none" fill-rule="evenodd">
        <g id="diamond-o" fill="#323233" fill-rule="nonzero">
            <g id="圆角-积分">
                <path d="M116.009177,405.663936 L500.036957,829.397659 L883.991789,405.74462 L762.017627,222.222251 L237.926286,222.222219 L116.009177,405.663936 Z M65.6223649,432.796323 C53.7070702,419.672342 52.2303633,401.195542 61.9340182,386.659023 L195.252014,186.062836 C203.307934,174.010831 217.768129,166.649932 233.360043,166.666695 L766.639845,166.666695 C782.24935,166.666695 796.714432,174.059356 804.746896,186.145771 L938.068801,386.741958 C947.769524,401.274947 946.29184,419.751748 934.376546,432.879258 L534.418649,874.189987 C525.967898,883.508675 513.322557,888.906491 499.980398,888.888846 C486.638239,888.875611 474.009512,883.446915 465.580262,874.107052 L65.6223649,432.796323 Z M305.555556,333.333333 L694.444444,333.333333 C709.785687,333.333333 722.222222,345.769868 722.222222,361.111111 C722.222222,376.452354 709.785687,388.888889 694.444444,388.888889 L305.555556,388.888889 C290.214313,388.888889 277.777778,376.452354 277.777778,361.111111 C277.777778,345.769868 290.214313,333.333333 305.555556,333.333333 Z" id="Shape"></path>
            </g>
        </g>
    </g>
</svg>