<?xml version="1.0" encoding="UTF-8"?>
<svg width="1000px" height="1000px" viewBox="0 0 1000 1000" version="1.1" xmlns="http://www.w3.org/2000/svg" xmlns:xlink="http://www.w3.org/1999/xlink">
    <!-- Generator: sketchtool 53.2 (72643) - https://sketchapp.com -->
    <title>discount</title>
    <desc>Created with sketchtool.</desc>
    <g id="icons" stroke="none" stroke-width="1" fill="none" fill-rule="evenodd">
        <g id="discount" fill="#323233">
            <g id="圆角-折扣-线">
                <path d="M470.172438,865.550326 L500.026425,846.551309 L529.865158,865.574273 C562.212532,886.19656 586.377656,892.049656 603.799654,887.381446 C621.221652,882.713236 639.222716,865.561743 656.92522,831.528632 L673.276568,800.093122 L708.675561,801.664462 C746.970958,803.364373 770.813591,796.35413 783.585929,783.581792 C796.358267,770.809454 803.36851,746.96682 801.6686,708.671423 L800.097257,673.272373 L831.532841,656.921045 C865.565886,639.218638 882.717349,621.217605 887.385584,603.795517 C892.053818,586.373428 886.200732,562.208345 865.578454,529.861088 L846.555447,500.022382 L865.55442,470.168368 C886.18149,437.756047 892.040235,413.567602 887.385584,396.196208 C882.730933,378.824814 865.562888,360.806378 831.493162,343.05002 L800.154304,326.716928 L801.664711,291.409526 C803.307959,252.996856 796.284179,229.108182 783.585929,216.409933 C770.88768,203.711683 746.999007,196.687904 708.586336,198.331151 L673.278878,199.841561 L656.945805,168.502629 C639.189544,134.432969 621.17114,117.264954 603.799654,112.610279 C586.428169,107.955603 562.239766,113.814338 529.827562,134.441399 L499.986794,153.432003 L470.153645,134.429434 C437.773852,113.80475 413.59709,107.948835 396.200346,112.610279 C378.803602,117.271722 360.793869,134.431475 343.064488,168.482871 L326.722276,199.870041 L291.369084,198.329226 C253.015019,196.657622 229.149371,203.674632 216.414071,216.409933 C203.67877,229.145233 196.66176,253.010882 198.333364,291.364946 L199.874864,326.733853 L168.467159,343.070679 C134.434114,360.773086 117.282651,378.774119 112.614416,396.196208 C107.946182,413.618297 113.799268,437.78338 134.421546,470.130637 L153.444553,499.969342 L134.44558,529.823357 C113.81851,562.235677 107.959765,586.424122 112.614416,603.795517 C117.269067,621.166911 134.437112,639.185346 168.506838,656.941705 L199.845696,673.274797 L198.335289,708.582198 C196.692041,746.994869 203.715821,770.883542 216.414071,783.581792 C229.11232,796.280041 253.000993,803.303821 291.413664,801.660574 L326.721122,800.150164 L343.054195,831.489095 C360.810456,865.558756 378.82886,882.72677 396.200346,887.381446 C413.571831,892.036121 437.760234,886.177387 470.172438,865.550326 Z M500,912.419679 C455.555311,940.70419 416.162481,950.245627 381.82151,941.043992 C347.480539,931.842356 318.136066,903.882814 293.788092,857.165365 C241.13527,859.417788 202.24936,847.984501 177.130361,822.865502 C152.011362,797.746503 140.578074,758.860592 142.830497,706.207771 C96.1130215,681.859696 68.1534792,652.515224 58.9518705,618.174352 C49.7502618,583.833481 59.2916993,544.440651 87.5761831,499.995862 C59.276812,455.606634 49.7353744,416.213804 58.9518705,381.817372 C68.1683665,347.420941 96.1279089,318.076468 142.830497,293.783954 C140.537474,241.171732 151.970762,202.285822 177.130361,177.126223 C202.28996,151.966624 241.17587,140.533336 293.788092,142.82636 C318.108386,96.1163275 347.452858,68.1567851 381.82151,58.9477328 C416.190161,49.7386804 455.582991,59.2801179 500,87.5720454 C544.444689,59.2875349 583.837519,49.7460973 618.17849,58.9477328 C652.519461,68.1493682 681.863934,96.1089105 706.211908,142.82636 C758.86473,140.573936 797.75064,152.007224 822.869639,177.126223 C847.988638,202.245222 859.421926,241.131132 857.169503,293.783954 C903.886978,318.132028 931.846521,347.476501 941.04813,381.817372 C950.249738,416.158243 940.708301,455.551073 912.423817,499.995862 C940.723188,544.385091 950.264626,583.777921 941.04813,618.174352 C931.831633,652.570784 903.872091,681.915257 857.169503,706.207771 C859.503126,758.779392 848.069838,797.665303 822.869639,822.865502 C797.66944,848.065701 758.78353,859.498988 706.211908,857.165365 C681.919295,903.86798 652.574822,931.827522 618.17849,941.043992 C583.782158,950.260461 544.389328,940.719024 500,912.419679 Z" id="Path-Copy" fill-rule="nonzero"></path>
                <path d="M612.444444,492.888889 C636.888889,492.888889 655.555556,501.333333 668.888889,519.111111 C680.444444,534.222222 686.666667,554.666667 686.666667,580 C686.666667,604.888889 680.444444,625.333333 668.888889,640.888889 C655.555556,657.777778 636.888889,666.666667 612.444444,666.666667 C587.555556,666.666667 568.444444,657.777778 555.111111,640.888889 C543.111111,624.888889 537.333333,604.888889 537.333333,580 C537.333333,554.666667 543.111111,534.222222 555.111111,519.111111 C568.444444,501.333333 587.555556,492.888889 612.444444,492.888889 Z M568.444444,343.111111 L604.888889,343.111111 L426.666667,672.888889 L390.666667,672.888889 L568.444444,343.111111 Z M384,349.333333 C408.444444,349.333333 427.111111,357.777778 440.444444,375.555556 C452,390.666667 458.222222,411.111111 458.222222,436.444444 C458.222222,461.333333 452,481.777778 440.444444,497.333333 C427.111111,514.222222 408.444444,523.111111 384,523.111111 C359.111111,523.111111 340,514.222222 326.666667,497.333333 C314.666667,481.333333 308.888889,461.333333 308.888889,436.444444 C308.888889,411.111111 314.666667,390.666667 326.666667,375.555556 C340,357.777778 359.111111,349.333333 384,349.333333 Z M612.444444,523.555556 C600.888889,523.555556 592.444444,529.333333 587.111111,540.888889 C583.111111,550.222222 581.333333,563.111111 581.333333,580 C581.333333,596 583.111111,608.888889 587.111111,618.666667 C592.444444,630.222222 600.888889,636 612.444444,636 C623.555556,636 631.555556,629.777778 636.888889,617.777778 C640.444444,608.444444 642.666667,596 642.666667,580 C642.666667,563.555556 640.444444,550.666667 636.444444,541.333333 C631.555556,529.333333 623.555556,523.555556 612.444444,523.555556 Z M384,380 C372.444444,380 364,385.777778 358.666667,397.333333 C354.666667,406.666667 352.888889,419.555556 352.888889,436.444444 C352.888889,452.444444 354.666667,465.333333 358.666667,475.111111 C364,486.666667 372.444444,492.444444 384,492.444444 C395.111111,492.444444 403.111111,486.222222 408.444444,474.222222 C412,464.888889 414.222222,452.444444 414.222222,436.444444 C414.222222,420 412,407.111111 408,397.777778 C403.111111,385.777778 395.111111,380 384,380 Z" id="%"></path>
            </g>
        </g>
    </g>
</svg>