<?xml version="1.0" encoding="UTF-8"?>
<svg width="1000px" height="1000px" viewBox="0 0 1000 1000" version="1.1" xmlns="http://www.w3.org/2000/svg" xmlns:xlink="http://www.w3.org/1999/xlink">
    <!-- Generator: sketchtool 53.2 (72643) - https://sketchapp.com -->
    <title>edit</title>
    <desc>Created with sketchtool.</desc>
    <defs>
        <path d="M743.81996,256.670516 L665.230092,178.080648 L625.935158,217.375582 L704.525026,295.96545 L743.81996,256.670516 L743.81996,256.670516 Z M802.762361,276.317983 L704.525026,374.555318 L547.34529,217.375582 L645.582625,119.138247 C656.433622,108.287251 674.026563,108.287251 684.877559,119.138247 L802.762361,237.023049 C813.613358,247.874046 813.613358,265.466987 802.762361,276.317983 Z M138.785714,833.428571 L861.214286,833.428571 C876.559912,833.428571 889,845.868659 889,861.214286 C889,876.559912 876.559912,889 861.214286,889 L138.785714,889 C123.440088,889 111,876.559912 111,861.214286 C111,845.868659 123.440088,833.428571 138.785714,833.428571 Z M508.050356,256.670516 L665.230092,413.850252 L350.87062,728.209724 L195.265152,759.330818 C180.217528,762.340343 165.579316,752.581535 162.569791,737.53391 C161.850351,733.936711 161.850351,730.232655 162.569791,726.635456 L193.690884,571.029988 L508.050356,256.670516 Z M244.883367,598.427373 L225.2359,696.664708 L323.473235,677.017241 L586.640224,413.850252 L508.050356,335.260384 L244.883367,598.427373 Z" id="path-1"></path>
    </defs>
    <g id="icons" stroke="none" stroke-width="1" fill="none" fill-rule="evenodd">
        <g id="edit">
            <g id="圆角-编辑"></g>
            <mask id="mask-2" fill="white">
                <use xlink:href="#path-1"></use>
            </mask>
            <use id="Shape" fill="#000000" xlink:href="#path-1"></use>
        </g>
    </g>
</svg>