<?xml version="1.0" encoding="UTF-8"?>
<svg width="1000px" height="1000px" viewBox="0 0 1000 1000" version="1.1" xmlns="http://www.w3.org/2000/svg" xmlns:xlink="http://www.w3.org/1999/xlink">
    <!-- Generator: sketchtool 53.2 (72643) - https://sketchapp.com -->
    <title>enlarge</title>
    <desc>Created with sketchtool.</desc>
    <defs>
        <path d="M111,805.446429 L111,652.668214 C111,629.656284 129.654855,611.001429 152.666786,611.001429 C175.678716,611.001429 194.333571,629.656284 194.333571,652.668214 L194.333571,805.446429 L347.111786,805.446429 C370.123716,805.446429 388.778571,824.101284 388.778571,847.113214 C388.778571,870.125145 370.123716,888.78 347.111786,888.78 L166.571429,888.78 C135.880176,888.78 111,863.899824 111,833.208571 L111,805.446429 Z M194.333571,111 L347.111786,111 C370.123716,111 388.778571,129.654855 388.778571,152.666786 C388.778571,175.678716 370.123716,194.333571 347.111786,194.333571 L194.333571,194.333571 L194.333571,347.111786 C194.333571,370.123716 175.678716,388.778571 152.666786,388.778571 C129.654855,388.778571 111,370.123716 111,347.111786 L111,166.571429 C111,135.880176 135.880176,111 166.571429,111 L194.333571,111 Z M888.78,194.333571 L888.78,347.111786 C888.78,370.123716 870.125145,388.778571 847.113214,388.778571 C824.101284,388.778571 805.446429,370.123716 805.446429,347.111786 L805.446429,194.333571 L652.668214,194.333571 C629.656284,194.333571 611.001429,175.678716 611.001429,152.666786 C611.001429,129.654855 629.656284,111 652.668214,111 L833.208571,111 C863.899824,111 888.78,135.880176 888.78,166.571429 L888.78,194.333571 Z M805.446429,888.78 L652.668214,888.78 C629.656284,888.78 611.001429,870.125145 611.001429,847.113214 C611.001429,824.101284 629.656284,805.446429 652.668214,805.446429 L805.446429,805.446429 L805.446429,652.668214 C805.446429,629.656284 824.101284,611.001429 847.113214,611.001429 C870.125145,611.001429 888.78,629.656284 888.78,652.668214 L888.78,833.208571 C888.78,863.899824 863.899824,888.78 833.208571,888.78 L805.446429,888.78 Z" id="path-1"></path>
    </defs>
    <g id="icons" stroke="none" stroke-width="1" fill="none" fill-rule="evenodd">
        <g id="enlarge">
            <g id="查看大图">
                <mask id="mask-2" fill="white">
                    <use xlink:href="#path-1"></use>
                </mask>
                <use id="形状" fill="#323233" xlink:href="#path-1"></use>
            </g>
        </g>
    </g>
</svg>