<?xml version="1.0" encoding="UTF-8"?>
<svg width="1000px" height="1000px" viewBox="0 0 1000 1000" version="1.1" xmlns="http://www.w3.org/2000/svg" xmlns:xlink="http://www.w3.org/1999/xlink">
    <!-- Generator: sketchtool 53.2 (72643) - https://sketchapp.com -->
    <title>expand</title>
    <desc>Created with sketchtool.</desc>
    <g id="icons" stroke="none" stroke-width="1" fill="none" fill-rule="evenodd">
        <g id="expand" fill="#323233">
            <g id="Fill-1">
                <path d="M777.777778,416.666667 C777.777778,432 765.333333,444.444444 750,444.444444 C734.666667,444.444444 722.222222,432 722.222222,416.666667 L722.222222,317.055556 L594.833333,444.444444 C584,455.277778 566.388889,455.277778 555.555556,444.444444 C544.722222,433.611111 544.722222,416 555.555556,405.166667 L682.944444,277.777778 L583.333333,277.777778 C568,277.777778 555.555556,265.333333 555.555556,250 C555.555556,234.666667 568,222.222222 583.333333,222.222222 L750,222.222222 C765.333333,222.222222 777.777778,234.666667 777.777778,250 L777.777778,416.666667 Z M444.444444,594.833333 L317.055556,722.222222 L416.666667,722.222222 C432,722.222222 444.444444,734.666667 444.444444,750 C444.444444,765.333333 432,777.777778 416.666667,777.777778 L250,777.777778 C234.666667,777.777778 222.222222,765.333333 222.222222,750 L222.222222,583.333333 C222.222222,568 234.666667,555.555556 250,555.555556 C265.333333,555.555556 277.777778,568 277.777778,583.333333 L277.777778,682.944444 L405.166667,555.555556 C416,544.722222 433.611111,544.722222 444.444444,555.555556 C455.277778,566.388889 455.277778,584 444.444444,594.833333 L444.444444,594.833333 Z M833.333333,111.111111 L166.666667,111.111111 C135.944444,111.111111 111.111111,135.944444 111.111111,166.666667 L111.111111,833.333333 C111.111111,864.055556 135.944444,888.888889 166.666667,888.888889 L833.333333,888.888889 C864.055556,888.888889 888.888889,864.055556 888.888889,833.333333 L888.888889,166.666667 C888.888889,135.944444 864.055556,111.111111 833.333333,111.111111 L833.333333,111.111111 Z"></path>
            </g>
        </g>
    </g>
</svg>