<?xml version="1.0" encoding="UTF-8"?>
<svg width="1000px" height="1000px" viewBox="0 0 1000 1000" version="1.1" xmlns="http://www.w3.org/2000/svg" xmlns:xlink="http://www.w3.org/1999/xlink">
    <!-- Generator: sketchtool 53.2 (72643) - https://sketchapp.com -->
    <title>expand-o</title>
    <desc>Created with sketchtool.</desc>
    <g id="icons" stroke="none" stroke-width="1" fill="none" fill-rule="evenodd">
        <g id="expand-o" fill="#323233">
            <g id="圆角-全屏-线">
                <path d="M166.666667,166.666667 L166.666667,833.333333 L833.333333,833.333333 L833.333333,166.666667 L166.666667,166.666667 Z M166.666667,111.111111 L833.333333,111.111111 C864.015819,111.111111 888.888889,135.984181 888.888889,166.666667 L888.888889,833.333333 C888.888889,864.015819 864.015819,888.888889 833.333333,888.888889 L166.666667,888.888889 C135.984181,888.888889 111.111111,864.015819 111.111111,833.333333 L111.111111,166.666667 C111.111111,135.984181 135.984181,111.111111 166.666667,111.111111 Z" id="Rectangle-7" fill-rule="nonzero"></path>
                <g id="Group-2" transform="translate(555.555556, 222.222222)">
                    <path d="M27.7777778,0 L194.444444,0 C209.785687,-2.81814063e-15 222.222222,12.4365347 222.222222,27.7777778 C222.222222,43.1190208 209.785687,55.5555556 194.444444,55.5555556 L27.7777778,55.5555556 C12.4365347,55.5555556 1.87876042e-15,43.1190208 0,27.7777778 C-1.87876042e-15,12.4365347 12.4365347,2.81814063e-15 27.7777778,0 Z" id="Rectangle-55"></path>
                    <path d="M194.444444,0 C209.785687,-2.81814063e-15 222.222222,12.4365347 222.222222,27.7777778 L222.222222,194.444444 C222.222222,209.785687 209.785687,222.222222 194.444444,222.222222 C179.103201,222.222222 166.666667,209.785687 166.666667,194.444444 L166.666667,27.7777778 C166.666667,12.4365347 179.103201,2.81814063e-15 194.444444,0 Z" id="Rectangle-9"></path>
                    <path d="M47.4196328,214.086299 C36.5717358,224.934196 18.9838197,224.934196 8.13592274,214.086299 C-2.71197425,203.238402 -2.71197425,185.650486 8.13592274,174.802589 L174.802589,8.13592274 C185.650486,-2.71197425 203.238402,-2.71197425 214.086299,8.13592274 C224.934196,18.9838197 224.934196,36.5717358 214.086299,47.4196328 L47.4196328,214.086299 Z" id="Path-23" fill-rule="nonzero"></path>
                </g>
                <g id="Group-2-Copy" transform="translate(333.333333, 666.666667) scale(-1, -1) translate(-333.333333, -666.666667) translate(222.222222, 555.555556)">
                    <path d="M27.7777778,0 L194.444444,0 C209.785687,-2.81814063e-15 222.222222,12.4365347 222.222222,27.7777778 C222.222222,43.1190208 209.785687,55.5555556 194.444444,55.5555556 L27.7777778,55.5555556 C12.4365347,55.5555556 1.87876042e-15,43.1190208 0,27.7777778 C-1.87876042e-15,12.4365347 12.4365347,2.81814063e-15 27.7777778,0 Z" id="Rectangle-55"></path>
                    <path d="M194.444444,0 C209.785687,-2.81814063e-15 222.222222,12.4365347 222.222222,27.7777778 L222.222222,194.444444 C222.222222,209.785687 209.785687,222.222222 194.444444,222.222222 C179.103201,222.222222 166.666667,209.785687 166.666667,194.444444 L166.666667,27.7777778 C166.666667,12.4365347 179.103201,2.81814063e-15 194.444444,0 Z" id="Rectangle-9"></path>
                    <path d="M47.4196328,214.086299 C36.5717358,224.934196 18.9838197,224.934196 8.13592274,214.086299 C-2.71197425,203.238402 -2.71197425,185.650486 8.13592274,174.802589 L174.802589,8.13592274 C185.650486,-2.71197425 203.238402,-2.71197425 214.086299,8.13592274 C224.934196,18.9838197 224.934196,36.5717358 214.086299,47.4196328 L47.4196328,214.086299 Z" id="Path-23" fill-rule="nonzero"></path>
                </g>
            </g>
        </g>
    </g>
</svg>