<?xml version="1.0" encoding="UTF-8"?>
<svg width="1000px" height="1000px" viewBox="0 0 1000 1000" version="1.1" xmlns="http://www.w3.org/2000/svg" xmlns:xlink="http://www.w3.org/1999/xlink">
    <!-- Generator: sketchtool 53.2 (72643) - https://sketchapp.com -->
    <title>fail</title>
    <desc>Created with sketchtool.</desc>
    <g id="icons" stroke="none" stroke-width="1" fill="none" fill-rule="evenodd">
        <g id="fail" fill="#323233">
            <g id="失败">
                <path d="M444.455198,125.97088 C444.271769,117.764056 450.131449,111.111111 458.73295,111.111111 L541.267159,111.111111 C549.335972,111.111111 555.737588,117.35026 555.544911,125.97088 L543.792058,651.806898 C543.608629,660.013721 536.639484,666.666667 529.106901,666.666667 L470.893207,666.666667 C462.966248,666.666667 456.400728,660.427517 456.20805,651.806898 L444.455198,125.97088 Z M500,833.333333 C469.317514,833.333333 444.444444,808.460264 444.444444,777.777778 C444.444444,747.095292 469.317514,722.222222 500,722.222222 C530.682486,722.222222 555.555556,747.095292 555.555556,777.777778 C555.555556,808.460264 530.682486,833.333333 500,833.333333 Z" id="Shape"></path>
            </g>
        </g>
    </g>
</svg>