<?xml version="1.0" encoding="UTF-8"?>
<svg width="1000px" height="1000px" viewBox="0 0 1000 1000" version="1.1" xmlns="http://www.w3.org/2000/svg" xmlns:xlink="http://www.w3.org/1999/xlink">
    <!-- Generator: sketchtool 53.2 (72643) - https://sketchapp.com -->
    <title>failure</title>
    <desc>Created with sketchtool.</desc>
    <g id="icons" stroke="none" stroke-width="1" fill="none" fill-rule="evenodd">
        <g id="failure" fill="#323233" fill-rule="nonzero">
            <g id="圆角-交易失败-线">
                <path d="M777.777778,111.111111 C808.460264,111.111111 833.333333,135.984181 833.333333,166.666667 L833.333333,888.888889 C833.333333,919.571375 808.460264,944.444444 777.777778,944.444444 L222.222222,944.444444 C191.539736,944.444444 166.666667,919.571375 166.666667,888.888889 L166.666667,166.666667 C166.666667,135.984181 191.539736,111.111111 222.222222,111.111111 L388.888889,111.111111 L388.888889,166.666667 L222.222222,166.666667 L222.222222,888.888889 L777.777778,888.888889 L777.777778,166.666667 L611.111111,166.666667 L611.111111,111.111111 L777.777778,111.111111 Z M416.666667,111.111111 C401.325424,111.111111 388.888889,123.547646 388.888889,138.888889 C388.888889,154.230132 401.325424,166.666667 416.666667,166.666667 L583.333333,166.666667 C598.674576,166.666667 611.111111,154.230132 611.111111,138.888889 C611.111111,123.547646 598.674576,111.111111 583.333333,111.111111 L416.666667,111.111111 Z M541.044229,500 L602.610573,561.566344 C613.944624,572.900395 613.944624,591.276522 602.610573,602.610573 C591.276522,613.944624 572.900395,613.944624 561.566344,602.610573 L500,541.044229 L437.553397,603.490832 C426.7055,614.338729 409.117584,614.338729 398.269687,603.490832 L396.509168,601.730313 C385.661271,590.882416 385.661271,573.2945 396.509168,562.446603 L458.955771,500 L397.389427,438.433656 C386.055376,427.099605 386.055376,408.723478 397.389427,397.389427 C408.723478,386.055376 427.099605,386.055376 438.433656,397.389427 L500,458.955771 L562.446603,396.509168 C573.2945,385.661271 590.882416,385.661271 601.730313,396.509168 L603.490832,398.269687 C614.338729,409.117584 614.338729,426.7055 603.490832,437.553397 L541.044229,500 L541.044229,500 Z M416.666667,55.5555556 L583.333333,55.5555556 C629.357062,55.5555556 666.666667,92.8651597 666.666667,138.888889 C666.666667,184.912618 629.357062,222.222222 583.333333,222.222222 L416.666667,222.222222 C370.642938,222.222222 333.333333,184.912618 333.333333,138.888889 C333.333333,92.8651597 370.642938,55.5555556 416.666667,55.5555556 Z" id="Shape"></path>
            </g>
        </g>
    </g>
</svg>