<?xml version="1.0" encoding="UTF-8"?>
<svg width="1000px" height="1000px" viewBox="0 0 1000 1000" version="1.1" xmlns="http://www.w3.org/2000/svg" xmlns:xlink="http://www.w3.org/1999/xlink">
    <!-- Generator: sketchtool 53.2 (72643) - https://sketchapp.com -->
    <title>flower-o</title>
    <desc>Created with sketchtool.</desc>
    <g id="icons" stroke="none" stroke-width="1" fill="none" fill-rule="evenodd">
        <g id="flower-o" fill="#323233" fill-rule="nonzero">
            <g id="直角-消息类型－商品评价" transform="translate(138.000000, 83.000000)">
                <path d="M151.860564,354.776449 C159.163318,432.082869 221.813918,492.4775 299.336305,496.941568 L356.768671,500.249006 L428.595373,496.459753 C508.235553,492.258296 572.112527,429.090574 577.203036,349.502288 C582.240297,270.743172 584.906708,210.68596 585.261373,170.254254 C561.697022,182.75163 550.928967,187.807082 536.101673,192.216356 C501.914512,202.382782 468.074976,197.535039 445.650078,165.607879 C443.98097,163.231508 431.487711,145.227868 427.304832,139.291922 C419.301169,127.93388 412.186138,118.182218 405.128852,109.008137 C391.334228,91.0758905 378.820763,76.8058342 367.887471,66.8122927 C360.480925,60.0423622 355.728468,57.0069797 356.727414,56.1474992 C357.014616,57.9623189 345.220535,67.9114096 331.386502,85.6148317 C314.804658,106.83463 297.848747,135.045552 287.18077,157.508962 C268.883034,196.038251 232.002096,205.391221 195.282625,195.607988 C179.314266,191.35351 168.796155,186.447643 141.107778,172.089062 C140.609289,208.941373 144.028498,271.866775 151.860564,354.776449 Z M390.847479,554.083973 L390.847479,804.350413 L335.291923,804.350413 L335.291923,554.659797 L296.142242,552.40523 C191.224992,546.363649 106.434672,464.62652 96.5512406,360.001247 C83.5480136,222.350042 81.8077195,141.001959 91.3303585,115.956998 C111.061679,64.0627539 216.728479,176.355167 236.996831,133.676379 C257.265184,90.9975912 311.820997,1.41596022 356.634627,0.342317557 C401.448257,-0.731325102 463.741266,94.7074492 491.11214,133.676379 C518.483014,172.645309 634.127292,44.0379671 639.838799,124.857817 C642.428816,161.507483 640.030987,237.570962 632.645311,353.048255 C625.755895,460.761809 539.305934,546.251975 431.522163,551.93816 L390.847479,554.083973 L390.847479,554.083973 Z M281.935364,777.96413 L229.42382,796.101318 C191.909264,687.487603 151.270997,637.806114 112.085153,639.275543 C101.628788,639.271383 88.0082685,646.892722 73.8455215,660.587486 C68.43185,665.822273 63.3799353,671.500541 58.7529158,677.32232 C56.2429652,680.480375 51.3797807,687.102172 51.0454488,687.50198 L8.42728691,651.863349 C-9.16522782,672.901212 22.8552348,632.612627 35.2271937,620.649478 C58.7660194,597.888451 84.1071705,583.708851 111.040802,583.740047 C182.093853,581.038469 237.177844,648.380284 281.935364,777.96413 Z M447.756435,777.980155 L447.710039,777.96413 C492.467559,648.380284 547.551549,581.038469 618.6046,583.740047 C645.538232,583.708851 670.879383,597.888451 694.418209,620.649478 C705.872737,631.725511 734.16978,667.081845 724.341587,655.568364 C727.285063,659.976861 729.001076,665.274703 729.001076,670.973341 C729.001076,686.314584 716.564541,698.751118 701.223298,698.751118 C692.0053,698.751118 683.83601,694.261065 678.783208,687.348737 L678.599954,687.50198 C678.265622,687.102172 673.402437,680.480375 670.892487,677.32232 C666.265467,671.500541 661.213553,665.822273 655.799881,660.587486 C641.637134,646.892722 628.016615,639.271383 617.56025,639.275543 C578.374406,637.806114 537.736138,687.487603 500.221582,796.101318 L500.209189,796.097037 C496.877665,807.703351 486.183815,816.1959 473.506424,816.1959 C458.165181,816.1959 445.728646,803.759365 445.728646,788.418122 C445.728646,784.726308 446.448854,781.202707 447.756435,777.980155 Z M256.567424,817.535669 C241.226181,817.535669 228.789646,805.099134 228.789646,789.757891 C228.789646,774.416648 241.226181,761.980113 256.567424,761.980113 C271.908667,761.980113 284.345202,774.416648 284.345202,789.757891 C284.345202,805.099134 271.908667,817.535669 256.567424,817.535669 Z M363.06221,833.378346 C347.720967,833.378346 335.284432,820.941811 335.284432,805.600568 C335.284432,790.259325 347.720967,777.82279 363.06221,777.82279 C378.403453,777.82279 390.839988,790.259325 390.839988,805.600568 C390.839988,820.941811 378.403453,833.378346 363.06221,833.378346 Z M28.6666667,698.773397 C13.3254236,698.773397 0.888888889,686.336862 0.888888889,670.995619 C0.888888889,655.654376 13.3254236,643.217841 28.6666667,643.217841 C44.0079097,643.217841 56.4444444,655.654376 56.4444444,670.995619 C56.4444444,686.336862 44.0079097,698.773397 28.6666667,698.773397 Z" id="Shape"></path>
            </g>
        </g>
    </g>
</svg>