<?xml version="1.0" encoding="UTF-8"?>
<svg width="1000px" height="1000px" viewBox="0 0 1000 1000" version="1.1" xmlns="http://www.w3.org/2000/svg" xmlns:xlink="http://www.w3.org/1999/xlink">
    <!-- Generator: sketchtool 53.2 (72643) - https://sketchapp.com -->
    <title>gift-card-o</title>
    <desc>Created with sketchtool.</desc>
    <g id="icons" stroke="none" stroke-width="1" fill="none" fill-rule="evenodd">
        <g id="gift-card-o" fill="#323233" fill-rule="nonzero">
            <g id="圆角-礼品卡-线">
                <path d="M111.111111,222.222378 L111.111111,777.777933 L888.888889,777.777933 L888.888889,222.222378 L111.111111,222.222378 Z M111.111111,166.666822 L888.888889,166.666822 C919.571372,166.666822 944.444444,191.539891 944.444444,222.222378 L944.444444,777.777933 C944.444444,808.460417 919.571372,833.333489 888.888889,833.333489 L111.111111,833.333489 C80.428625,833.333489 55.5555556,808.460417 55.5555556,777.777933 L55.5555556,222.222378 C55.5555556,191.539891 80.428625,166.666822 111.111111,166.666822 Z" id="Combined-Shape"></path>
                <path d="M583.578507,534.542278 L655.279744,570.392896 C669.001367,577.253708 674.563156,593.93907 667.702344,607.660695 C660.841528,621.38232 644.156167,626.944107 630.434544,620.083295 L527.777778,568.754912 L527.777778,833.333333 L472.222222,833.333333 L472.222222,568.754912 L369.565457,620.083295 C355.843832,626.944107 339.15847,621.38232 332.297657,607.660695 C325.436845,593.93907 330.998632,577.253708 344.720257,570.392896 L416.659082,534.423483 C384.007528,527.551232 358.18153,517.213482 344.523779,504.342399 C303.246633,465.442762 303.246633,400.491995 343.932927,359.805572 C363.535669,340.202767 389.680956,329.365079 417.403359,329.365079 C437.075597,329.365079 455.946684,334.819361 472.222222,344.959754 L472.222222,222.222222 L527.777778,222.222222 L527.777778,345.466056 C544.234485,335.001027 563.403817,329.365079 583.400983,329.365079 C611.123389,329.365079 637.268672,340.202767 656.871417,359.805572 C697.557711,400.491995 697.557711,465.442762 656.280561,504.342399 C642.543883,517.287863 616.497917,527.670629 583.578507,534.542278 Z M451.587998,399.089219 C442.397423,389.898615 430.390335,384.920635 417.403359,384.920635 C404.420413,384.920635 392.404405,389.901484 383.2167,399.089219 C364.423067,417.882912 364.423067,446.757244 382.625848,463.911569 C391.684626,472.448572 426.837696,482.098188 470.572661,486.236945 C467.062304,443.028301 459.151782,406.588373 451.587998,399.089219 Z M549.216344,399.089219 C541.652561,406.588373 533.742038,443.028301 530.231681,486.236945 C573.966647,482.098188 609.119717,472.448572 618.178494,463.911569 C636.381278,446.757244 636.381278,417.882912 617.587644,399.089219 C608.399937,389.901484 596.383929,384.920635 583.400983,384.920635 C570.414007,384.920635 558.40692,389.898615 549.216344,399.089219 Z" id="Combined-Shape"></path>
            </g>
        </g>
    </g>
</svg>