<?xml version="1.0" encoding="UTF-8"?>
<svg width="1000px" height="1000px" viewBox="0 0 1000 1000" version="1.1" xmlns="http://www.w3.org/2000/svg" xmlns:xlink="http://www.w3.org/1999/xlink">
    <!-- Generator: sketchtool 53.2 (72643) - https://sketchapp.com -->
    <title>gift-o</title>
    <desc>Created with sketchtool.</desc>
    <g id="icons" stroke="none" stroke-width="1" fill="none" fill-rule="evenodd">
        <g id="gift-o" fill="#323233" fill-rule="nonzero">
            <g id="圆角-送礼-线">
                <path d="M555.555556,833.333333 L555.555556,277.777778 L444.444444,277.777778 L444.444444,833.333333 L555.555556,833.333333 Z M611.111111,277.777778 L611.111111,444.444444 L777.777778,444.444444 L833.333333,444.444444 L833.333333,277.777778 L611.111111,277.777778 L611.111111,222.222222 L689.702623,222.222222 C678.262719,189.855767 647.394967,166.666667 611.111111,166.666667 C574.827255,166.666667 543.959503,189.855767 532.519603,222.222222 L555.555556,222.222222 Z M611.111111,500 L611.111111,833.333333 L777.777778,833.333333 L777.777778,500 L611.111111,500 Z M388.888889,833.333333 L388.888889,500 L222.222222,500 L222.222222,833.333333 L388.888889,833.333333 Z M388.888889,277.777778 L166.666667,277.777778 L166.666667,444.444444 L222.222222,444.444444 L388.888889,444.444444 L388.888889,277.777778 Z M444.444444,888.888889 L222.222222,888.888889 C191.539736,888.888889 166.666667,864.015819 166.666667,833.333333 L166.666667,500 C135.984181,500 111.111111,475.126931 111.111111,444.444444 L111.111111,277.777778 C111.111111,247.095292 135.984181,222.222222 166.666667,222.222222 L252.778281,222.222222 C265.646901,158.826658 321.695614,111.111111 388.888889,111.111111 C434.322195,111.111111 474.660314,132.926199 500.000002,166.65313 C525.339689,132.926197 565.677807,111.111111 611.111111,111.111111 C678.304386,111.111111 734.353099,158.826658 747.221719,222.222222 L833.333333,222.222222 C864.015819,222.222222 888.888889,247.095292 888.888889,277.777778 L888.888889,444.444444 C888.888889,475.126931 864.015819,500 833.333333,500 L833.333333,833.333333 C833.333333,864.015819 808.460264,888.888889 777.777778,888.888889 L555.555556,888.888889 L444.444444,888.888889 Z M467.480397,222.222222 C456.040497,189.855767 425.172745,166.666667 388.888889,166.666667 C352.605033,166.666667 321.737281,189.855767 310.297381,222.222222 L444.444444,222.222222 L467.4804,222.222222 Z" id="形状结合"></path>
            </g>
        </g>
    </g>
</svg>