<?xml version="1.0" encoding="UTF-8"?>
<svg width="1000px" height="1000px" viewBox="0 0 1000 1000" version="1.1" xmlns="http://www.w3.org/2000/svg" xmlns:xlink="http://www.w3.org/1999/xlink">
    <!-- Generator: sketchtool 53.2 (72643) - https://sketchapp.com -->
    <title>gift-card</title>
    <desc>Created with sketchtool.</desc>
    <g id="icons" stroke="none" stroke-width="1" fill="none" fill-rule="evenodd">
        <g id="gift-card" fill="#323233" fill-rule="nonzero">
            <g id="圆角-礼品卡-面">
                <path d="M583.578507,534.542278 C616.497917,527.670629 642.543883,517.287863 656.280561,504.342399 C697.557711,465.442762 697.557711,400.491995 656.871417,359.805572 C637.268672,340.202767 611.123389,329.365079 583.400983,329.365079 C563.403817,329.365079 544.234485,335.001027 527.777778,345.466056 L527.777778,166.666667 L472.222222,166.666667 L472.222222,344.959754 C455.946684,334.819361 437.075597,329.365079 417.403359,329.365079 C389.680956,329.365079 363.535669,340.202767 343.932927,359.805572 C303.246633,400.491995 303.246633,465.442762 344.523779,504.342399 C358.18153,517.213482 384.007528,527.551232 416.659082,534.423483 L344.720257,570.392896 C330.998632,577.253708 325.436845,593.93907 332.297657,607.660695 C339.15847,621.38232 355.843832,626.944107 369.565457,620.083295 L472.222222,568.754912 L472.222222,833.333333 L527.777778,833.333333 L527.777778,568.754912 L630.434544,620.083295 C644.156167,626.944107 660.841528,621.38232 667.702344,607.660695 C674.563156,593.93907 669.001367,577.253708 655.279744,570.392896 L583.578507,534.542278 Z M111.111111,166.666822 L888.888889,166.666822 C919.571372,166.666822 944.444444,191.539891 944.444444,222.222378 L944.444444,777.777933 C944.444444,808.460417 919.571372,833.333489 888.888889,833.333489 L111.111111,833.333489 C80.428625,833.333489 55.5555556,808.460417 55.5555556,777.777933 L55.5555556,222.222378 C55.5555556,191.539891 80.428625,166.666822 111.111111,166.666822 Z M549.216344,399.089219 C558.40692,389.898615 570.414007,384.920635 583.400983,384.920635 C596.383929,384.920635 608.399937,389.901484 617.587644,399.089219 C636.381278,417.882912 636.381278,446.757244 618.178494,463.911569 C609.119717,472.448572 573.966647,482.098188 530.231681,486.236945 C533.742038,443.028301 541.652561,406.588373 549.216344,399.089219 Z M451.587998,399.089219 C459.151782,406.588373 467.062304,443.028301 470.572661,486.236945 C426.837696,482.098188 391.684626,472.448572 382.625848,463.911569 C364.423067,446.757244 364.423067,417.882912 383.2167,399.089219 C392.404405,389.901484 404.420413,384.920635 417.403359,384.920635 C430.390335,384.920635 442.397423,389.898615 451.587998,399.089219 Z" id="Combined-Shape"></path>
            </g>
        </g>
    </g>
</svg>