<?xml version="1.0" encoding="UTF-8"?>
<svg width="1000px" height="1000px" viewBox="0 0 1000 1000" version="1.1" xmlns="http://www.w3.org/2000/svg" xmlns:xlink="http://www.w3.org/1999/xlink">
    <!-- Generator: sketchtool 53.2 (72643) - https://sketchapp.com -->
    <title>gift</title>
    <desc>Created with sketchtool.</desc>
    <g id="icons" stroke="none" stroke-width="1" fill="none" fill-rule="evenodd">
        <g id="gift" fill="#323233">
            <g id="圆角-送礼-面">
                <g id="Group-2" transform="translate(111.111111, 111.111111)">
                    <path d="M356.369286,111.111111 C344.929386,78.7446563 314.061634,55.5555556 277.777778,55.5555556 C241.493921,55.5555556 210.62617,78.7446563 199.18627,111.111111 L356.369286,111.111111 L356.369286,111.111111 Z M141.66717,111.111111 C154.53579,47.7155466 210.584502,0 277.777778,0 C323.211082,0 363.5492,21.8150861 388.888889,55.5420152 C414.228578,21.8150861 454.566696,0 500,0 C567.193275,0 623.241988,47.7155466 636.110608,111.111111 L722.222222,111.111111 C752.904708,111.111111 777.777778,135.984181 777.777778,166.666667 L777.777778,333.333333 C777.777778,364.015819 752.904708,388.888889 722.222222,388.888889 L722.222222,722.222222 C722.222222,752.904708 697.349153,777.777778 666.666667,777.777778 L111.111111,777.777778 C80.428625,777.777778 55.5555556,752.904708 55.5555556,722.222222 L55.5555556,388.888889 C24.8730695,388.888889 -3.75752084e-15,364.015819 0,333.333333 L0,166.666667 C3.75752084e-15,135.984181 24.8730695,111.111111 55.5555556,111.111111 L141.66717,111.111111 Z M421.408492,111.111111 L578.591508,111.111111 C567.151608,78.7446563 536.283856,55.5555556 500,55.5555556 C463.716144,55.5555556 432.848392,78.7446563 421.408492,111.111111 L421.408492,111.111111 Z M333.333333,111.111111 L333.333333,777.777778 L444.444444,777.777778 L444.444444,111.111111 L333.333333,111.111111 Z" id="Combined-Shape"></path>
                </g>
            </g>
        </g>
    </g>
</svg>