<?xml version="1.0" encoding="UTF-8"?>
<svg width="1000px" height="1000px" viewBox="0 0 1000 1000" version="1.1" xmlns="http://www.w3.org/2000/svg" xmlns:xlink="http://www.w3.org/1999/xlink">
    <!-- Generator: sketchtool 53.2 (72643) - https://sketchapp.com -->
    <title>gold-coin</title>
    <desc>Created with sketchtool.</desc>
    <g id="icons" stroke="none" stroke-width="1" fill="none" fill-rule="evenodd">
        <g id="gold-coin" fill="#323233">
            <g id="形状-copy">
                <path d="M500,944.444444 C254.540111,944.444444 55.5555556,745.459889 55.5555556,500 C55.5555556,254.540111 254.540111,55.5555556 500,55.5555556 C745.459889,55.5555556 944.444444,254.540111 944.444444,500 C944.444444,745.459889 745.459889,944.444444 500,944.444444 Z M444.049623,416.666667 L361.111111,416.666667 C345.769868,416.666667 333.333333,429.103201 333.333333,444.444444 C333.333333,459.785687 345.769868,472.222222 361.111111,472.222222 L472.222222,472.222222 L472.222222,555.555556 L361.111111,555.555556 C345.769868,555.555556 333.333333,567.99209 333.333333,583.333333 C333.333333,598.674576 345.769868,611.111111 361.111111,611.111111 L472.222222,611.111111 L472.222222,722.222222 C472.222222,737.563465 484.658757,750 500,750 C515.341243,750 527.777778,737.563465 527.777778,722.222222 L527.777778,611.111111 L638.888889,611.111111 C654.230132,611.111111 666.666667,598.674576 666.666667,583.333333 C666.666667,567.99209 654.230132,555.555556 638.888889,555.555556 L527.777778,555.555556 L527.777778,472.222222 L638.888889,472.222222 C654.230132,472.222222 666.666667,459.785687 666.666667,444.444444 C666.666667,429.103201 654.230132,416.666667 638.888889,416.666667 L557.924483,416.666667 L637.887806,336.703343 C648.735703,325.855446 648.735703,308.26753 637.887806,297.419633 C627.039909,286.571736 609.451993,286.571736 598.604096,297.419633 L500.987053,395.036676 L403.37001,297.419633 C392.522113,286.571736 374.934196,286.571736 364.086299,297.419633 C353.238402,308.26753 353.238402,325.855446 364.086299,336.703343 L444.049623,416.666667 Z"></path>
            </g>
        </g>
    </g>
</svg>