<?xml version="1.0" encoding="UTF-8"?>
<svg width="1000px" height="1000px" viewBox="0 0 1000 1000" version="1.1" xmlns="http://www.w3.org/2000/svg" xmlns:xlink="http://www.w3.org/1999/xlink">
    <!-- Generator: sketchtool 53.2 (72643) - https://sketchapp.com -->
    <title>good-job</title>
    <desc>Created with sketchtool.</desc>
    <g id="icons" stroke="none" stroke-width="1" fill="none" fill-rule="evenodd">
        <g id="good-job" fill="#323233" fill-rule="nonzero">
            <path d="M333.222857,888.78 L333.222857,388.912825 C350.08847,382.814948 362.278457,377.614957 369.79282,373.312853 C390.794084,361.28926 408.606917,344.915232 423.23132,324.19077 C445.422299,292.743598 449.55535,278.254054 473.640569,190.237716 C475.223218,184.454131 478.40668,176.552276 483.190957,166.532149 C505.329227,129.425576 536.844067,110.914957 577.735478,111.000294 C617.2389,111.000294 648.838925,129.510912 672.535551,166.532149 C678.441254,176.751514 682.621803,188.166386 685.077196,200.776765 C687.532589,213.387144 687.532589,227.867292 685.077196,244.21721 L641.345542,396.824842 C640.571729,399.246693 640.571729,401.016323 641.345542,402.133735 C642.179539,403.338052 643.397061,403.940211 644.998108,403.940211 L777.852525,403.940211 L777.706207,404.248606 L795.029732,404.248606 C846.592379,404.248606 888.78,444.873722 888.78,496.436369 C888.78,504.248891 887.217496,512.061414 885.654991,519.873936 L838.898388,818.467299 C829.523361,859.092415 792.023254,888.78 748.273129,888.78 L333.222857,888.78 Z M277.667143,888.78 L166.555714,888.78 C135.873141,888.78 111,863.906859 111,833.224286 L111,444.334286 C111,413.651712 135.873141,388.778571 166.555714,388.778571 L277.667143,388.778571 L277.667143,888.78 L277.667143,888.78 Z" id="Shape"></path>
        </g>
    </g>
</svg>