<?xml version="1.0" encoding="UTF-8"?>
<svg width="1000px" height="1000px" viewBox="0 0 1000 1000" version="1.1" xmlns="http://www.w3.org/2000/svg" xmlns:xlink="http://www.w3.org/1999/xlink">
    <!-- Generator: sketchtool 53.2 (72643) - https://sketchapp.com -->
    <title>good-job-o</title>
    <desc>Created with sketchtool.</desc>
    <g id="icons" stroke="none" stroke-width="1" fill="none" fill-rule="evenodd">
        <g id="good-job-o" fill="#000000" fill-rule="nonzero">
            <path d="M333.222857,388.912825 C350.08847,382.814948 362.278457,377.614957 369.79282,373.312853 C390.794084,361.28926 408.606917,344.915232 423.23132,324.19077 C445.422299,292.743598 449.55535,278.254054 473.640569,190.237716 C475.223218,184.454131 478.40668,176.552276 483.190957,166.532149 C505.329227,129.425576 536.844067,110.914957 577.735478,111.000294 C617.2389,111.000294 648.838925,129.510912 672.535551,166.532149 C678.441254,176.751514 682.621803,188.166386 685.077196,200.776765 C687.532589,213.387144 687.532589,227.867292 685.077196,244.21721 L641.345542,396.824842 C640.571729,399.246693 640.571729,401.016323 641.345542,402.133735 C642.179539,403.338052 643.397061,403.940211 644.998108,403.940211 L777.852525,403.940211 L777.706207,404.248606 L795.029732,404.248606 C846.592379,404.248606 888.78,444.873722 888.78,496.436369 C888.78,504.248891 887.217496,512.061414 885.654991,519.873936 L838.898388,818.467299 C829.523361,859.092415 792.023254,888.78 748.273129,888.78 L166.555714,888.78 C135.873141,888.78 111,863.906859 111,833.224286 L111,444.334286 C111,413.651712 135.873141,388.778571 166.555714,388.778571 L333.222857,388.778571 L333.222857,388.912825 L333.222857,388.912825 Z M333.222857,450.282018 L333.222857,833.224286 L747.633763,833.224286 C761.696304,833.224286 774.196339,823.849259 777.321348,809.786719 C814.589973,610.782484 833.224286,506.853202 833.224286,497.998874 C833.224286,480.811324 819.161746,466.748784 801.974196,466.748784 L748.052955,466.748784 L747.778712,467.326807 L646.591348,467.326807 C624.284349,467.326807 606.584456,459.662633 593.491668,444.334286 C573.852488,421.341765 575.04922,401.131192 582.192187,375.470467 C598.461074,317.02537 612.240325,266.429395 623.529939,223.682543 C623.202988,193.692597 609.423737,176.797731 582.192187,172.997945 C554.960638,169.198159 536.95762,184.194356 528.183133,217.986538 L504.890353,298.697887 C478.243769,370.623762 426.141889,419.169228 348.584712,444.334286 L333.222857,450.282018 L333.222857,450.282018 Z M166.555714,833.224286 L277.667143,833.224286 L277.667143,444.334286 L166.555714,444.334286 L166.555714,833.224286 Z" id="Shape"></path>
        </g>
    </g>
</svg>