<?xml version="1.0" encoding="UTF-8"?>
<svg width="1000px" height="1000px" viewBox="0 0 1000 1000" version="1.1" xmlns="http://www.w3.org/2000/svg" xmlns:xlink="http://www.w3.org/1999/xlink">
    <!-- Generator: sketchtool 53.2 (72643) - https://sketchapp.com -->
    <title>goods-collect</title>
    <desc>Created with sketchtool.</desc>
    <g id="icons" stroke="none" stroke-width="1" fill="none" fill-rule="evenodd">
        <g id="goods-collect" fill="#323233">
            <g id="合并形状">
                <path d="M619.096387,888.888889 L222.222222,888.888889 C191.539736,888.888889 166.666667,864.015819 166.666667,833.333333 C166.666667,832.177336 166.702748,831.021619 166.774857,829.867873 L199.760968,302.090095 C201.59095,272.810377 225.871484,250 255.208333,250 L305.137108,250 C320.521017,170.857051 390.208269,111.111111 473.849932,111.111111 C557.491596,111.111111 627.178847,170.857051 642.562756,250 L709.852642,250 C739.189491,250 763.470025,272.810377 765.300008,302.090095 L784.707008,612.602105 C771.358458,614.637675 758.462179,618.722206 746.408337,624.637769 C728.513362,615.858849 708.777311,611.111111 688.465331,611.111111 C612.394429,611.111111 551.974932,675.245597 551.974932,752.60475 C551.974932,754.902377 552.032557,756.679633 552.192374,758.732834 C552.302497,774.345108 555.745549,790.102157 562.008111,805.877212 C561.580073,804.759677 561.580073,804.759677 561.801809,805.357157 C562.038587,805.994123 562.038587,805.994123 562.473784,807.100144 C566.803908,817.72775 572.274747,828.038876 578.869564,838.388907 C589.561968,855.169768 603.130253,871.973881 619.096385,888.888889 Z M362.273909,250 L585.425955,250 C571.205716,201.824547 526.633605,166.666667 473.849932,166.666667 C421.066259,166.666667 376.494149,201.824547 362.273909,250 Z M880.205632,782.323537 C879.005755,785.793243 877.477491,789.376092 875.532428,793.210368 C875.448226,793.31932 875.292452,793.579129 875.065107,793.989795 C874.787241,794.492651 874.559896,794.995507 874.319921,795.498363 C873.486322,797.09493 872.576942,798.942926 871.351805,800.841207 C839.182478,857.286789 758.222375,916.912934 754.761677,919.678641 C752.222991,921.690065 749.216984,922.708349 746.185716,922.708349 C743.167079,922.708349 740.211593,921.752922 737.685537,919.766641 C733.643847,916.548363 638.689392,846.915384 614.022452,786.384099 C613.89615,786.069814 613.782477,785.730386 613.643544,785.378387 C609.740787,775.547553 607.745202,766.345289 607.745202,757.960166 C607.745202,757.545309 607.770463,757.180739 607.808354,756.778454 C607.656791,755.634457 607.530488,754.201317 607.530488,752.60475 C607.530488,705.198004 643.855177,666.666667 688.465331,666.666667 C710.467281,666.666667 731.307245,676.409501 746.438322,692.991176 C761.493617,676.409501 782.333582,666.666667 804.373423,666.666667 C848.970946,666.666667 885.308265,705.223147 885.308265,752.60475 C885.308265,754.176175 885.194593,755.496171 885.144072,756.476741 C885.169332,756.891597 885.194593,757.419595 885.194593,757.985308 C885.194593,765.427577 883.540026,773.372701 880.205632,782.323537 Z"></path>
            </g>
        </g>
    </g>
</svg>