<?xml version="1.0" encoding="UTF-8"?>
<svg width="1000px" height="1000px" viewBox="0 0 1000 1000" version="1.1" xmlns="http://www.w3.org/2000/svg" xmlns:xlink="http://www.w3.org/1999/xlink">
    <!-- Generator: sketchtool 53.2 (72643) - https://sketchapp.com -->
    <title>graphic</title>
    <desc>Created with sketchtool.</desc>
    <g id="icons" stroke="none" stroke-width="1" fill="none" fill-rule="evenodd">
        <g id="graphic" fill="#333333">
            <g id="Graphic">
                <path d="M166,140.971332 C166,110.059219 191.320053,85 221.692961,85 L776.973706,85 C807.732079,85 832.666667,109.940011 832.666667,140.971332 L832.666667,862.362001 C832.666667,893.274114 807.346614,918.333333 776.973706,918.333333 L221.692961,918.333333 C190.934588,918.333333 166,893.393322 166,862.362001 L166,140.971332 Z M304.888889,196.111111 C289.547646,196.111111 277.111111,208.547646 277.111111,223.888889 L277.111111,501.666667 C277.111111,517.00791 289.547646,529.444444 304.888889,529.444444 L693.777778,529.444444 C709.119021,529.444444 721.555556,517.00791 721.555556,501.666667 L721.555556,223.888889 C721.555556,208.547646 709.119021,196.111111 693.777778,196.111111 L304.888889,196.111111 Z M304.888889,640.555556 C289.547646,640.555556 277.111111,652.99209 277.111111,668.333333 C277.111111,683.674576 289.547646,696.111111 304.888889,696.111111 L693.777778,696.111111 C709.119021,696.111111 721.555556,683.674576 721.555556,668.333333 C721.555556,652.99209 709.119021,640.555556 693.777778,640.555556 L304.888889,640.555556 Z M304.888889,751.666667 C289.547646,751.666667 277.111111,764.103201 277.111111,779.444444 C277.111111,794.785687 289.547646,807.222222 304.888889,807.222222 L527.111111,807.222222 C542.452354,807.222222 554.888889,794.785687 554.888889,779.444444 C554.888889,764.103201 542.452354,751.666667 527.111111,751.666667 L304.888889,751.666667 Z" id="Shape"></path>
            </g>
        </g>
    </g>
</svg>