<?xml version="1.0" encoding="UTF-8"?>
<svg width="1000px" height="1000px" viewBox="0 0 1000 1000" version="1.1" xmlns="http://www.w3.org/2000/svg" xmlns:xlink="http://www.w3.org/1999/xlink">
    <!-- Generator: sketchtool 53.2 (72643) - https://sketchapp.com -->
    <title>home-o</title>
    <desc>Created with sketchtool.</desc>
    <g id="icons" stroke="none" stroke-width="1" fill="none" fill-rule="evenodd">
        <g id="home-o" fill="#323233" fill-rule="nonzero">
            <g id="首页" transform="translate(104.000000, 92.000000)">
                <path d="M7.11111111,352.444444 C-2.87283752,340.796504 -1.52390594,323.260394 10.1240341,313.276445 L359.844924,13.5156826 C380.649909,-4.31716163 411.350091,-4.31716163 432.155076,13.5156826 L781.875966,313.276445 C793.523906,323.260394 794.872838,340.796504 784.888889,352.444444 C774.90494,364.092385 757.36883,365.441316 745.72089,355.457367 L396,55.696605 L46.2791104,355.457367 C34.6311704,365.441316 17.0950597,364.092385 7.11111111,352.444444 Z" id="Path"></path>
                <path d="M118.222222,545.131941 L118.222222,685.777778 L673.777778,685.777778 L673.777778,545.131941 L396,313.65046 L118.222222,545.131941 Z M62.6666667,545.131941 C62.6666667,528.644172 69.9901672,513.008194 82.6564222,502.452981 L360.4342,270.9715 C381.036753,253.802706 410.963247,253.802706 431.5658,270.9715 L709.343578,502.452981 C722.009833,513.008194 729.333333,528.644172 729.333333,545.131941 L729.333333,685.777778 C729.333333,716.460264 704.460264,741.333333 673.777778,741.333333 L118.222222,741.333333 C87.5397361,741.333333 62.6666667,716.460264 62.6666667,685.777778 L62.6666667,545.131941 Z" id="Path-5"></path>
            </g>
        </g>
    </g>
</svg>