<?xml version="1.0" encoding="UTF-8"?>
<svg width="1000px" height="1000px" viewBox="0 0 1000 1000" version="1.1" xmlns="http://www.w3.org/2000/svg" xmlns:xlink="http://www.w3.org/1999/xlink">
    <!-- Generator: sketchtool 53.2 (72643) - https://sketchapp.com -->
    <title>hot-sale</title>
    <desc>Created with sketchtool.</desc>
    <g id="icons" stroke="none" stroke-width="1" fill="none" fill-rule="evenodd" opacity="0.900000036">
        <g id="hot-sale" fill="#323233">
            <g id="圆角-热卖-面">
                <g id="热卖" transform="translate(222.222222, 0.000000)">
                    <path d="M55.5555556,0 L500,0 C530.682486,-5.63628126e-15 555.555556,24.8730695 555.555556,55.5555556 L555.555556,944.444444 C555.555556,975.126931 530.682486,1000 500,1000 L55.5555556,1000 C24.8730695,1000 3.75752084e-15,975.126931 0,944.444444 L0,55.5555556 C-3.75752084e-15,24.8730695 24.8730695,5.63628126e-15 55.5555556,0 Z M409.006128,348.444444 C415.001332,348.444444 419.664269,345.444444 423.661071,339.777778 C429.323208,331.111111 432.986944,312.111111 434.652278,282.777778 L408.339995,269.777778 C408.339995,280.444444 407.673861,290.444444 406.67466,299.444444 C405.342393,308.777778 403.677058,313.777778 402.011724,313.777778 C400.679456,313.777778 399.014122,310.777778 397.015721,304.777778 C392.352784,291.444444 390.354383,267.444444 390.354383,232.444444 L390.354383,164.444444 L322.40874,164.444444 L322.40874,124.444444 L288.435918,124.444444 L288.435918,164.444444 L254.463096,164.444444 L254.463096,198.444444 L288.435918,198.444444 C287.769784,212.777778 286.437517,226.444444 284.106048,239.111111 C277.777778,235.111111 271.11644,231.111111 264.455103,227.111111 L246.136424,254.444444 C255.462297,259.777778 264.788169,265.777778 274.114042,272.777778 C264.455103,295.777778 250.133227,314.444444 230.815348,328.777778 L256.461497,351.777778 C275.779376,336.777778 291.100453,317.777778 302.09166,294.777778 C312.7498,303.777778 323.40794,314.111111 334.06608,325.444444 L353.717026,295.444444 C341.060485,282.777778 328.070877,271.444444 314.415135,260.777778 C319.078071,242.111111 321.742606,221.111111 322.40874,198.444444 L356.381561,198.444444 L356.381561,232.444444 C356.381561,283.777778 363.709033,317.777778 378.030909,333.777778 C386.024514,343.111111 396.349587,348.111111 409.006128,348.444444 Z M130.22915,162.777778 L130.22915,196.777778 L173.527844,196.777778 L173.527844,245.111111 C156.541434,248.777778 139.221956,251.777778 121.569411,254.111111 L129.896083,286.444444 C144.551026,283.777778 158.872902,280.777778 173.527844,277.777778 L173.527844,306.111111 C173.527844,313.777778 170.197176,317.777778 164.201972,317.777778 C155.542233,317.777778 146.21636,316.777778 136.557421,315.444444 L144.551026,348.777778 L176.525446,348.777778 C197.841727,348.777778 208.499867,337.444444 208.499867,314.777778 L208.499867,269.444444 C219.824141,266.444444 231.148415,263.444444 242.472689,260.111111 L242.472689,226.777778 L208.499867,236.777778 L208.499867,196.777778 L245.137224,196.777778 L245.137224,162.777778 L208.499867,162.777778 L208.499867,124.777778 L173.527844,124.777778 L173.527844,162.777778 L130.22915,162.777778 Z M163.202771,355.777778 C151.878497,378.777778 138.222755,398.444444 122.901679,414.777778 L151.54543,435.777778 C166.866507,417.444444 180.522249,395.444444 192.17959,369.777778 L163.202771,355.777778 Z M246.802558,365.444444 L214.162004,372.111111 C220.157208,390.111111 225.486278,410.777778 229.48308,434.444444 L264.455103,426.111111 C259.126033,404.444444 253.463896,384.111111 246.802558,365.444444 Z M315.747402,360.777778 L283.106848,367.777778 C292.43272,386.777778 300.093259,408.777778 306.088463,433.777778 L340.727418,425.444444 C333.399947,402.111111 325.073275,380.777778 315.747402,360.777778 Z M379.030109,350.111111 L350.719424,367.777778 C369.704237,392.444444 384.692246,414.777778 395.683453,434.777778 L424.660272,414.444444 C414.002132,396.111111 399.014122,374.777778 379.030109,350.111111 Z M170.530242,715.888889 L154.209965,740.222222 C174.527045,746.888889 194.511058,755.888889 214.162004,767.555556 L138.222755,767.555556 L138.222755,800.555556 L259.459099,800.555556 L252.464695,807.555556 C233.146816,823.555556 196.176392,836.888889 140.88729,847.888889 L159.539035,877.555556 C214.162004,866.222222 253.463896,850.222222 277.444711,829.555556 C316.746603,841.888889 355.049294,858.222222 392.685851,878.888889 L412.336797,848.555556 C377.697842,832.222222 339.395151,817.888889 297.761791,805.888889 C298.760991,804.222222 299.760192,802.555556 301.092459,800.555556 L419.331202,800.555556 L419.331202,767.555556 L314.082068,767.555556 C316.080469,758.888889 317.412736,749.555556 318.07887,739.888889 L318.07887,685.555556 L284.439115,685.555556 L284.439115,739.888889 C283.439915,749.222222 281.441513,758.555556 278.776978,767.555556 L223.820943,767.555556 L238.475886,745.222222 C217.825739,733.888889 195.177192,723.888889 170.530242,715.888889 Z M198.50786,681.222222 L182.187583,705.222222 C205.502265,711.888889 228.150813,721.222222 250.133227,732.888889 L267.452705,706.555556 C246.469491,696.555556 223.487876,687.888889 198.50786,681.222222 Z M141.886491,645.888889 L141.886491,677.555556 L377.031708,677.555556 C372.035705,695.555556 366.373568,711.555556 359.71223,725.222222 L392.352784,734.555556 C400.679456,712.555556 407.340794,690.222222 412.336797,667.555556 L412.336797,645.888889 L295.763389,645.888889 L295.763389,623.555556 L389.022116,623.555556 L389.022116,592.222222 L295.763389,592.222222 L295.763389,569.555556 L261.790568,569.555556 L261.790568,592.222222 L166.53344,592.222222 L166.53344,623.555556 L261.790568,623.555556 L261.790568,645.888889 L141.886491,645.888889 Z" id="Combined-Shape"></path>
                </g>
            </g>
        </g>
    </g>
</svg>