<?xml version="1.0" encoding="UTF-8"?>
<svg width="1000px" height="1000px" viewBox="0 0 1000 1000" version="1.1" xmlns="http://www.w3.org/2000/svg" xmlns:xlink="http://www.w3.org/1999/xlink">
    <!-- Generator: sketchtool 53.2 (72643) - https://sketchapp.com -->
    <title>hot-o</title>
    <desc>Created with sketchtool.</desc>
    <g id="icons" stroke="none" stroke-width="1" fill="none" fill-rule="evenodd">
        <g id="hot-o" fill="#323233" fill-rule="nonzero">
            <g id="圆角-hot1-线">
                <path d="M500,111.313736 L386.156429,225.157307 L225.157307,225.157307 L225.157307,386.156429 L111.313736,500 L225.157307,613.843571 L225.157307,774.842693 L386.156429,774.842693 L500,888.686264 L613.843571,774.842693 L774.842693,774.842693 L774.842693,613.843571 L888.686264,500 L774.842693,386.156429 L774.842693,225.157307 L613.843571,225.157307 L500,111.313736 Z M363.144565,169.601752 L460.71629,72.0300264 C482.412084,50.3342324 517.587916,50.3342324 539.28371,72.0300264 L636.855435,169.601752 L774.842693,169.601752 C805.525179,169.601752 830.398248,194.474821 830.398248,225.157307 L830.398248,363.144565 L927.969974,460.71629 C949.665768,482.412084 949.665768,517.587916 927.969974,539.28371 L830.398248,636.855435 L830.398248,774.842693 C830.398248,805.525179 805.525179,830.398248 774.842693,830.398248 L636.855435,830.398248 L539.28371,927.969974 C517.587916,949.665768 482.412084,949.665768 460.71629,927.969974 L363.144565,830.398248 L225.157307,830.398248 C194.474821,830.398248 169.601752,805.525179 169.601752,774.842693 L169.601752,636.855435 L72.0300264,539.28371 C50.3342324,517.587916 50.3342324,482.412084 72.0300264,460.71629 L169.601752,363.144565 L169.601752,225.157307 C169.601752,194.474821 194.474821,169.601752 225.157307,169.601752 L363.144565,169.601752 Z M277.980403,419.415128 L321.455534,419.415128 L321.455534,475.813544 L368.961473,475.813544 L368.961473,419.415128 L412.628547,419.415128 L412.628547,580.584872 L368.961473,580.584872 L368.961473,515.391381 L321.455534,515.391381 L321.455534,580.584872 L277.980403,580.584872 L277.980403,419.415128 Z M436.045616,500.109938 C436.045616,473.797875 442.443658,453.312885 455.239934,438.654354 C468.036211,423.995822 485.854758,416.666667 508.696111,416.666667 C532.113297,416.666667 550.155776,423.867562 562.824089,438.269569 C575.492403,452.671576 581.826465,472.845077 581.826465,498.790677 C581.826465,517.62689 579.059311,533.073085 573.524922,545.129727 C567.990532,557.186369 559.99298,566.567689 549.532024,573.273967 C539.071068,579.980245 526.035057,583.333333 510.4236,583.333333 C494.556217,583.333333 481.424236,580.438317 471.027261,574.648197 C460.630287,568.858077 452.200866,559.696633 445.738747,547.163588 C439.276627,534.630544 436.045616,518.946151 436.045616,500.109938 Z M479.520747,500.329815 C479.520747,516.600785 482.15994,528.290788 487.438404,535.400176 C492.716868,542.509564 499.89867,546.064204 508.984026,546.064204 C518.325308,546.064204 525.555095,542.582855 530.673606,535.620053 C535.792116,528.65725 538.351333,516.16104 538.351333,498.131047 C538.351333,482.959467 535.680151,471.874119 530.337705,464.87467 C524.99526,457.875222 517.749477,454.37555 508.60014,454.37555 C499.83469,454.37555 492.796844,457.93019 487.486389,465.039578 C482.175935,472.148965 479.520747,483.91226 479.520747,500.329815 Z M590.271965,419.415128 L722.424848,419.415128 L722.424848,459.212841 L678.085972,459.212841 L678.085972,580.584872 L634.610841,580.584872 L634.610841,459.212841 L590.271965,459.212841 L590.271965,419.415128 Z" id="Shape"></path>
            </g>
        </g>
    </g>
</svg>