<?xml version="1.0" encoding="UTF-8"?>
<svg width="1000px" height="1000px" viewBox="0 0 1000 1000" version="1.1" xmlns="http://www.w3.org/2000/svg" xmlns:xlink="http://www.w3.org/1999/xlink">
    <!-- Generator: sketchtool 53.2 (72643) - https://sketchapp.com -->
    <title>hot</title>
    <desc>Created with sketchtool.</desc>
    <g id="icons" stroke="none" stroke-width="1" fill="none" fill-rule="evenodd">
        <g id="hot" fill="#464647" fill-rule="nonzero">
            <g id="圆角-hot1-面">
                <path d="M363.144565,169.601752 L460.71629,72.0300264 C482.412084,50.3342324 517.587916,50.3342324 539.28371,72.0300264 L636.855435,169.601752 L774.842693,169.601752 C805.525179,169.601752 830.398248,194.474821 830.398248,225.157307 L830.398248,363.144565 L927.969974,460.71629 C949.665768,482.412084 949.665768,517.587916 927.969974,539.28371 L830.398248,636.855435 L830.398248,774.842693 C830.398248,805.525179 805.525179,830.398248 774.842693,830.398248 L636.855435,830.398248 L539.28371,927.969974 C517.587916,949.665768 482.412084,949.665768 460.71629,927.969974 L363.144565,830.398248 L225.157307,830.398248 C194.474821,830.398248 169.601752,805.525179 169.601752,774.842693 L169.601752,636.855435 L72.0300264,539.28371 C50.3342324,517.587916 50.3342324,482.412084 72.0300264,460.71629 L169.601752,363.144565 L169.601752,225.157307 C169.601752,194.474821 194.474821,169.601752 225.157307,169.601752 L363.144565,169.601752 Z M250,419.415128 L250,580.584872 L298.909523,580.584872 L298.909523,515.391381 L352.353703,515.391381 L352.353703,580.584872 L401.479162,580.584872 L401.479162,419.415128 L352.353703,419.415128 L352.353703,475.813544 L298.909523,475.813544 L298.909523,419.415128 L250,419.415128 Z M427.823364,500.109938 C427.823364,518.946151 431.458252,534.630544 438.728136,547.163588 C445.998021,559.696633 455.481119,568.858077 467.177715,574.648197 C478.874312,580.438317 493.647791,583.333333 511.498596,583.333333 C529.061486,583.333333 543.726998,579.980245 555.495573,573.273967 C567.264149,566.567689 576.261395,557.186369 582.487584,545.129727 C588.713772,533.073085 591.826819,517.62689 591.826819,498.790677 C591.826819,472.845077 584.701,452.671576 570.449147,438.269569 C556.197294,423.867562 535.899506,416.666667 509.555172,416.666667 C483.858649,416.666667 463.812783,423.995822 449.416973,438.654354 C435.021162,453.312885 427.823364,473.797875 427.823364,500.109938 Z M476.732887,500.329815 C476.732887,483.91226 479.719973,472.148965 485.694235,465.039578 C491.668496,457.93019 499.586073,454.37555 509.447204,454.37555 C519.740208,454.37555 527.891714,457.875222 533.901965,464.87467 C539.912216,471.874119 542.917296,482.959467 542.917296,498.131047 C542.917296,516.16104 540.038177,528.65725 534.279853,535.620053 C528.521529,542.582855 520.388018,546.064204 509.879076,546.064204 C499.65805,546.064204 491.578522,542.509564 485.64025,535.400176 C479.701979,528.290788 476.732887,516.600785 476.732887,500.329815 Z M601.328007,419.415128 L601.328007,459.212841 L651.209242,459.212841 L651.209242,580.584872 L700.118765,580.584872 L700.118765,459.212841 L750,459.212841 L750,419.415128 L601.328007,419.415128 Z" id="Shape"></path>
            </g>
        </g>
    </g>
</svg>