<?xml version="1.0" encoding="UTF-8"?>
<svg width="1000px" height="1000px" viewBox="0 0 1000 1000" version="1.1" xmlns="http://www.w3.org/2000/svg" xmlns:xlink="http://www.w3.org/1999/xlink">
    <!-- Generator: sketchtool 53.2 (72643) - https://sketchapp.com -->
    <title>hotel-o</title>
    <desc>Created with sketchtool.</desc>
    <g id="icons" stroke="none" stroke-width="1" fill="none" fill-rule="evenodd">
        <g id="hotel-o" fill="#323233" fill-rule="nonzero">
            <path d="M166.555714,388.778571 L166.555714,833.224286 L333.222857,833.224286 L333.222857,388.778571 L166.555714,388.778571 Z M166.555714,333.222857 L333.222857,333.222857 C363.905431,333.222857 388.778571,358.095998 388.778571,388.778571 L388.778571,833.224286 C388.778571,863.906859 363.905431,888.78 333.222857,888.78 L166.555714,888.78 C135.873141,888.78 111,863.906859 111,833.224286 L111,388.778571 C111,358.095998 135.873141,333.222857 166.555714,333.222857 Z M611.001429,277.667143 C626.342715,277.667143 638.779286,290.103713 638.779286,305.445 L638.779286,361.000714 C638.779286,376.342001 626.342715,388.778571 611.001429,388.778571 C595.660142,388.778571 583.223571,376.342001 583.223571,361.000714 L583.223571,305.445 C583.223571,290.103713 595.660142,277.667143 611.001429,277.667143 Z M611.001429,499.89 C626.342715,499.89 638.779286,512.32657 638.779286,527.667857 L638.779286,583.223571 C638.779286,598.564858 626.342715,611.001429 611.001429,611.001429 C595.660142,611.001429 583.223571,598.564858 583.223571,583.223571 L583.223571,527.667857 C583.223571,512.32657 595.660142,499.89 611.001429,499.89 Z M722.112857,388.778571 C737.454144,388.778571 749.890714,401.215142 749.890714,416.556429 L749.890714,472.112143 C749.890714,487.45343 737.454144,499.89 722.112857,499.89 C706.77157,499.89 694.335,487.45343 694.335,472.112143 L694.335,416.556429 C694.335,401.215142 706.77157,388.778571 722.112857,388.778571 Z M722.112857,611.001429 C737.454144,611.001429 749.890714,623.437999 749.890714,638.779286 L749.890714,694.335 C749.890714,709.676287 737.454144,722.112857 722.112857,722.112857 C706.77157,722.112857 694.335,709.676287 694.335,694.335 L694.335,638.779286 C694.335,623.437999 706.77157,611.001429 722.112857,611.001429 Z M499.89,166.555714 L499.89,833.224286 L833.224286,833.224286 L833.224286,166.555714 L499.89,166.555714 Z M499.89,111 L833.224286,111 C863.906859,111 888.78,135.873141 888.78,166.555714 L888.78,833.224286 C888.78,863.906859 863.906859,888.78 833.224286,888.78 L499.89,888.78 C469.207426,888.78 444.334286,863.906859 444.334286,833.224286 L444.334286,166.555714 C444.334286,135.873141 469.207426,111 499.89,111 Z" id="Shape"></path>
        </g>
    </g>
</svg>