<?xml version="1.0" encoding="UTF-8"?>
<svg width="1000px" height="1000px" viewBox="0 0 1000 1000" version="1.1" xmlns="http://www.w3.org/2000/svg" xmlns:xlink="http://www.w3.org/1999/xlink">
    <!-- Generator: sketchtool 53.2 (72643) - https://sketchapp.com -->
    <title>idcard</title>
    <desc>Created with sketchtool.</desc>
    <g id="icons" stroke="none" stroke-width="1" fill="none" fill-rule="evenodd">
        <g id="idcard" fill="#323233">
            <g id="圆角-信用卡支付-线-copy">
                <path d="M888.888889,166.666667 C919.555556,166.666667 944.444444,191.555556 944.444444,222.222222 L944.444444,277.777778 L944.444444,333.333333 L944.444444,777.777778 C944.444444,808.5 919.555556,833.333333 888.888889,833.333333 L111.111111,833.333333 C80.4444444,833.333333 55.5555556,808.5 55.5555556,777.777778 L55.5555556,333.333333 L55.5555556,277.777778 L55.5555556,222.222222 C55.5555556,191.555556 80.4444444,166.666667 111.111111,166.666667 L888.888889,166.666667 Z M111.111111,277.777778 L888.888889,277.777778 L888.888889,222.222222 L111.111111,222.222222 L111.111111,277.777778 Z M111.111111,777.777778 L888.888889,777.777778 L888.888889,333.333333 L111.111111,333.333333 L111.111111,777.777778 Z M305.555556,611.111111 L694.444444,611.111111 C709.785687,611.111111 722.222222,623.547646 722.222222,638.888889 C722.222222,654.230132 709.785687,666.666667 694.444444,666.666667 L305.555556,666.666667 C290.214313,666.666667 277.777778,654.230132 277.777778,638.888889 C277.777778,623.547646 290.214313,611.111111 305.555556,611.111111 Z" id="Fill-1"></path>
            </g>
        </g>
    </g>
</svg>