<?xml version="1.0" encoding="UTF-8"?>
<svg width="1000px" height="1000px" viewBox="0 0 1000 1000" version="1.1" xmlns="http://www.w3.org/2000/svg" xmlns:xlink="http://www.w3.org/1999/xlink">
    <!-- Generator: sketchtool 53.2 (72643) - https://sketchapp.com -->
    <title>info-o</title>
    <desc>Created with sketchtool.</desc>
    <g id="icons" stroke="none" stroke-width="1" fill="none" fill-rule="evenodd">
        <g id="info-o" fill="#323233">
            <g id="直角-详细信息-线" transform="translate(55.000000, 55.000000)">
                <path d="M445,833.888889 C659.777403,833.888889 833.888889,659.777403 833.888889,445 C833.888889,230.222597 659.777403,56.1111111 445,56.1111111 C230.222597,56.1111111 56.1111111,230.222597 56.1111111,445 C56.1111111,659.777403 230.222597,833.888889 445,833.888889 Z M445,889.444444 C199.540111,889.444444 0.555555556,690.459889 0.555555556,445 C0.555555556,199.540111 199.540111,0.555555556 445,0.555555556 C690.459889,0.555555556 889.444444,199.540111 889.444444,445 C889.444444,690.459889 690.459889,889.444444 445,889.444444 Z" id="Oval-4" fill-rule="nonzero"></path>
                <path d="M472.777778,639.444444 L500.555556,639.444444 C515.896799,639.444444 528.333333,651.880979 528.333333,667.222222 C528.333333,682.563465 515.896799,695 500.555556,695 L389.444444,695 C374.103201,695 361.666667,682.563465 361.666667,667.222222 C361.666667,651.880979 374.103201,639.444444 389.444444,639.444444 L417.222222,639.444444 L417.222222,389.444444 L403.333333,389.444444 C387.99209,389.444444 375.555556,377.00791 375.555556,361.666667 C375.555556,346.325424 387.99209,333.888889 403.333333,333.888889 L445,333.888889 C460.341243,333.888889 472.777778,346.325424 472.777778,361.666667 L472.777778,639.444444 Z" id="Combined-Shape"></path>
                <circle id="Oval" cx="445" cy="236.666667" r="41.6666667"></circle>
            </g>
        </g>
    </g>
</svg>