<?xml version="1.0" encoding="UTF-8"?>
<svg width="1000px" height="1000px" viewBox="0 0 1000 1000" version="1.1" xmlns="http://www.w3.org/2000/svg" xmlns:xlink="http://www.w3.org/1999/xlink">
    <!-- Generator: sketchtool 53.2 (72643) - https://sketchapp.com -->
    <title>invition</title>
    <desc>Created with sketchtool.</desc>
    <g id="icons" stroke="none" stroke-width="1" fill="none" fill-rule="evenodd">
        <g id="invition" fill="#323233">
            <g id="分组" transform="translate(111.000000, 111.000000)">
                <path d="M278.05,193.794444 C278.05,200.294444 279.661111,207.461111 282.772222,215.127778 C282.883333,215.405556 282.994444,215.683333 283.105556,215.85 C302.827778,262.905556 378.772222,316.961111 381.994444,319.461111 C383.994444,321.016667 386.383333,321.738889 388.772222,321.738889 C391.216667,321.738889 393.661111,320.961111 395.661111,319.405556 C398.438889,317.294444 463.216667,270.961111 488.938889,227.127778 C489.883333,225.627778 490.661111,224.183333 491.327778,222.961111 C491.55,222.572222 491.716667,222.183333 491.938889,221.794444 L492.05,221.627778 C492.105556,221.461111 492.161111,221.294444 492.272222,221.183333 C493.827778,218.183333 495.05,215.461111 496.05,212.738889 C498.716667,205.794444 499.994444,199.572222 499.994444,193.85 L499.994444,192.627778 C499.994444,191.905556 500.105556,190.85 500.105556,189.683333 C500.105556,152.85 471.05,122.961111 435.327778,122.961111 C417.772222,122.961111 401.05,130.461111 388.994444,143.35 C376.883333,130.461111 360.216667,122.961111 342.661111,122.961111 C306.994444,122.961111 277.883333,152.85 277.883333,189.683333 C277.883333,190.905556 277.994444,192.016667 278.105556,192.85 C278.105556,193.183333 278.05,193.461111 278.05,193.794444" id="Fill-1"></path>
                <g transform="translate(0.111111, 0.111111)" id="Fill-3">
                    <path d="M611.111111,301.866667 L409.055556,423.088889 C403,426.755556 396,428.7 388.888889,428.7 C381.777778,428.7 374.777778,426.755556 368.722222,423.088889 L166.666667,301.866667 L166.666667,55.5333333 L611.111111,55.5333333 L611.111111,301.866667 Z M722.222222,166.644444 L666.666667,166.644444 L666.666667,55.5333333 C666.666667,24.8666667 641.833333,-0.0222222222 611.111111,-0.0222222222 L166.666667,-0.0222222222 C135.944444,-0.0222222222 111.111111,24.8666667 111.111111,55.5333333 L111.111111,166.644444 L55.5555556,166.644444 C24.8333333,166.644444 0,191.533333 0,222.2 L0,722.2 C0,752.922222 24.8333333,777.755556 55.5555556,777.755556 L722.222222,777.755556 C752.944444,777.755556 777.777778,752.922222 777.777778,722.2 L777.777778,222.2 C777.777778,191.533333 752.944444,166.644444 722.222222,166.644444 L722.222222,166.644444 Z"></path>
                </g>
            </g>
        </g>
    </g>
</svg>