<?xml version="1.0" encoding="UTF-8"?>
<svg width="1000px" height="1000px" viewBox="0 0 1000 1000" version="1.1" xmlns="http://www.w3.org/2000/svg" xmlns:xlink="http://www.w3.org/1999/xlink">
    <!-- Generator: sketchtool 53.2 (72643) - https://sketchapp.com -->
    <title>label</title>
    <desc>Created with sketchtool.</desc>
    <g id="icons" stroke="none" stroke-width="1" fill="none" fill-rule="evenodd">
        <g id="label" fill="#323233">
            <g id="Fill-2">
                <path d="M638.633333,333.333333 L360.855556,333.333333 C345.522222,333.333333 333.077778,320.888889 333.077778,305.555556 C333.077778,290.222222 345.522222,277.777778 360.855556,277.777778 L638.633333,277.777778 C653.966667,277.777778 666.411111,290.222222 666.411111,305.555556 C666.411111,320.888889 653.966667,333.333333 638.633333,333.333333 M638.633333,500 L360.855556,500 C345.522222,500 333.077778,487.555556 333.077778,472.222222 C333.077778,456.888889 345.522222,444.444444 360.855556,444.444444 L638.633333,444.444444 C653.966667,444.444444 666.411111,456.888889 666.411111,472.222222 C666.411111,487.555556 653.966667,500 638.633333,500 M777.522222,55.5555556 L221.966667,55.5555556 C191.244444,55.5555556 166.411111,80.3888889 166.411111,111.111111 L166.411111,916.611111 C166.411111,937.277778 188.188889,950.722222 206.633333,941.444444 L474.911111,807.333333 C490.522222,799.555556 508.966667,799.555556 524.577778,807.333333 L792.855556,941.444444 C811.3,950.722222 833.077778,937.277778 833.077778,916.611111 L833.077778,111.111111 C833.077778,80.3888889 808.244444,55.5555556 777.522222,55.5555556"></path>
            </g>
        </g>
    </g>
</svg>