<?xml version="1.0" encoding="UTF-8"?>
<svg width="1000px" height="1000px" viewBox="0 0 1000 1000" version="1.1" xmlns="http://www.w3.org/2000/svg" xmlns:xlink="http://www.w3.org/1999/xlink">
    <!-- Generator: sketchtool 53.2 (72643) - https://sketchapp.com -->
    <title>label-o</title>
    <desc>Created with sketchtool.</desc>
    <g id="icons" stroke="none" stroke-width="1" fill="none" fill-rule="evenodd">
        <g id="label-o" fill="#323233" fill-rule="nonzero">
            <g id="直角-标签管理-线">
                <path d="M777.777778,854.553667 L777.777778,111.111111 L222.222222,111.111111 L222.222222,854.553667 L500,715.664778 L777.777778,854.553667 Z M222.222222,55.5555556 L777.777778,55.5555556 C808.460264,55.5555556 833.333333,80.428625 833.333333,111.111111 L833.333333,854.553667 C833.333333,885.236153 808.460264,910.109223 777.777778,910.109223 C769.15305,910.109223 760.646769,908.101162 752.932578,904.244067 L500,777.777778 L247.067422,904.244067 C219.624172,917.965692 186.253448,906.842117 172.531823,879.398867 C168.674727,871.684676 166.666667,863.178395 166.666667,854.553667 L166.666667,111.111111 C166.666667,80.428625 191.539736,55.5555556 222.222222,55.5555556 Z M361.111111,277.777778 L638.888889,277.777778 C654.230132,277.777778 666.666667,290.214313 666.666667,305.555556 L666.666667,305.555556 C666.666667,320.896799 654.230132,333.333333 638.888889,333.333333 L361.111111,333.333333 C345.769868,333.333333 333.333333,320.896799 333.333333,305.555556 L333.333333,305.555556 C333.333333,290.214313 345.769868,277.777778 361.111111,277.777778 Z M361.111111,444.444444 L638.888889,444.444444 C654.230132,444.444444 666.666667,456.880979 666.666667,472.222222 L666.666667,472.222222 C666.666667,487.563465 654.230132,500 638.888889,500 L361.111111,500 C345.769868,500 333.333333,487.563465 333.333333,472.222222 L333.333333,472.222222 C333.333333,456.880979 345.769868,444.444444 361.111111,444.444444 Z" id="Shape"></path>
            </g>
        </g>
    </g>
</svg>