<?xml version="1.0" encoding="UTF-8"?>
<svg width="1000px" height="1000px" viewBox="0 0 1000 1000" version="1.1" xmlns="http://www.w3.org/2000/svg" xmlns:xlink="http://www.w3.org/1999/xlink">
    <!-- Generator: sketchtool 53.2 (72643) - https://sketchapp.com -->
    <title>live</title>
    <desc>Created with sketchtool.</desc>
    <g id="icons" stroke="none" stroke-width="1" fill="none" fill-rule="evenodd">
        <g id="live" fill="#323233">
            <g id="Live">
                <g id="圆角-待评价-面" transform="translate(111.111111, 111.111111)">
                    <path d="M317.061488,182.938512 L457.924483,182.938512 L604.949294,35.9137005 C615.797191,25.0658035 633.385107,25.0658035 644.233004,35.9137005 C655.080901,46.7615975 655.080901,64.3495136 644.233004,75.1974106 L536.491903,182.938512 L722.222222,182.938512 C752.904708,182.938512 777.777778,207.811582 777.777778,238.494068 L777.777778,682.938512 C777.777778,713.620998 752.904708,738.494068 722.222222,738.494068 L55.5555556,738.494068 C24.8730695,738.494068 3.75752084e-15,713.620998 0,682.938512 L0,238.494068 C-3.75752084e-15,207.811582 24.8730695,182.938512 55.5555556,182.938512 L238.494068,182.938512 L130.752966,75.1974106 C119.905069,64.3495136 119.905069,46.7615975 130.752966,35.9137005 C141.600863,25.0658035 159.188779,25.0658035 170.036676,35.9137005 L317.061488,182.938512 Z M463.652766,486.107332 C465.254564,484.825894 466.709489,483.370969 467.990926,481.769172 C477.574525,469.789674 475.632265,452.30933 463.652766,442.725731 L350.685974,352.352297 C345.760611,348.412007 339.640875,346.26532 333.333333,346.26532 C317.99209,346.26532 305.555556,358.701854 305.555556,374.043097 L305.555556,554.789966 C305.555556,561.097508 307.702243,567.217244 311.642533,572.142606 C321.226132,584.122104 338.706475,586.064365 350.685974,576.480766 L463.652766,486.107332 Z" id="Shape"></path>
                </g>
            </g>
        </g>
    </g>
</svg>