<?xml version="1.0" encoding="UTF-8"?>
<svg width="1000px" height="1000px" viewBox="0 0 1000 1000" version="1.1" xmlns="http://www.w3.org/2000/svg" xmlns:xlink="http://www.w3.org/1999/xlink">
    <!-- Generator: sketchtool 53.2 (72643) - https://sketchapp.com -->
    <title>location-o</title>
    <desc>Created with sketchtool.</desc>
    <defs>
        <path d="M778.114167,380.983332 C778.114167,231.911077 654.022086,110.555833 500.335,110.555833 C346.647914,110.555833 222.555833,231.911077 222.555833,380.983332 C222.555833,527.467324 313.81482,697.491193 500.400955,889.217519 C686.904312,698.176836 778.114167,528.182902 778.114167,380.983332 Z M540.154922,928.027097 C539.823659,928.366421 539.488066,928.70149 539.148223,929.032222 C517.160051,950.43089 481.988067,949.953002 460.589399,927.96483 C264.86284,726.848034 167,544.520582 167,380.983332 C167,200.947709 316.239163,55 500.335,55 C684.430837,55 833.67,200.947709 833.67,380.983332 C833.67,545.240461 735.831641,727.588383 540.154922,928.027097 Z M500.335,555.0025 C423.628401,555.0025 361.445417,492.819515 361.445417,416.112917 C361.445417,339.406318 423.628401,277.223333 500.335,277.223333 C577.041599,277.223333 639.224583,339.406318 639.224583,416.112917 C639.224583,492.819515 577.041599,555.0025 500.335,555.0025 Z M500.335,499.446667 C546.358959,499.446667 583.66875,462.136876 583.66875,416.112917 C583.66875,370.088957 546.358959,332.779167 500.335,332.779167 C454.311041,332.779167 417.00125,370.088957 417.00125,416.112917 C417.00125,462.136876 454.311041,499.446667 500.335,499.446667 Z" id="path-1"></path>
    </defs>
    <g id="icons" stroke="none" stroke-width="1" fill="none" fill-rule="evenodd">
        <g id="location-o">
            <g id="圆角-其他分店-线"></g>
            <mask id="mask-2" fill="white">
                <use xlink:href="#path-1"></use>
            </mask>
            <use id="Shape" fill="#323233" fill-rule="nonzero" xlink:href="#path-1"></use>
        </g>
    </g>
</svg>