<?xml version="1.0" encoding="UTF-8"?>
<svg width="1000px" height="1000px" viewBox="0 0 1000 1000" version="1.1" xmlns="http://www.w3.org/2000/svg" xmlns:xlink="http://www.w3.org/1999/xlink">
    <!-- Generator: sketchtool 53.2 (72643) - https://sketchapp.com -->
    <title>location</title>
    <desc>Created with sketchtool.</desc>
    <g id="icons" stroke="none" stroke-width="1" fill="none" fill-rule="evenodd">
        <g id="location" fill="#323233" stroke="#323233">
            <g id="圆角-其他分店-面" transform="translate(166.000000, 55.000000)">
                <path d="M294.263367,872.809794 L294.264205,872.808979 L294.612922,873.167304 C315.818892,894.957469 350.674146,895.431053 372.464312,874.225083 C372.801094,873.89733 373.133666,873.565278 373.461945,873.22901 C569.05512,672.875873 666.833333,490.640048 666.833333,326.537257 C666.833333,146.781204 517.821239,1.05555556 334,1.05555556 C150.178761,1.05555556 1.16666667,146.781204 1.16666667,326.537257 C1.16666667,489.823122 98.8533795,671.919466 294.263367,872.809794 Z M334,445.5 C272.358885,445.5 222.388889,395.530003 222.388889,333.888889 C222.388889,272.247774 272.358885,222.277778 334,222.277778 C395.641115,222.277778 445.611111,272.247774 445.611111,333.888889 C445.611111,395.530003 395.641115,445.5 334,445.5 Z" id="形状"></path>
            </g>
        </g>
    </g>
</svg>