<?xml version="1.0" encoding="UTF-8"?>
<svg width="1000px" height="1000px" viewBox="0 0 1000 1000" version="1.1" xmlns="http://www.w3.org/2000/svg" xmlns:xlink="http://www.w3.org/1999/xlink">
    <!-- Generator: sketchtool 53.2 (72643) - https://sketchapp.com -->
    <title>lock</title>
    <desc>Created with sketchtool.</desc>
    <g id="icons" stroke="none" stroke-width="1" fill="none" fill-rule="evenodd">
        <g id="lock" fill="#323233" fill-rule="nonzero">
            <g id="Lock">
                <path d="M277.777778,444.444444 L277.777778,333.333333 C277.777778,210.603389 377.270056,111.111111 500,111.111111 C622.729944,111.111111 722.222222,210.603389 722.222222,333.333333 L722.222222,444.444444 L791.666667,444.444444 C814.678531,444.444444 833.333333,463.099247 833.333333,486.111111 L833.333333,847.222222 C833.333333,870.234087 814.678531,888.888889 791.666667,888.888889 L208.333333,888.888889 C185.321469,888.888889 166.666667,870.234087 166.666667,847.222222 L166.666667,486.111111 C166.666667,463.099247 185.321469,444.444444 208.333333,444.444444 L277.777778,444.444444 Z M361.111111,444.444444 L638.888889,444.444444 L638.888889,333.333333 C638.888889,256.627118 576.706215,194.444444 500,194.444444 C423.293785,194.444444 361.111111,256.627118 361.111111,333.333333 L361.111111,444.444444 Z" id="Shape"></path>
            </g>
        </g>
    </g>
</svg>