<?xml version="1.0" encoding="UTF-8"?>
<svg width="1000px" height="1000px" viewBox="0 0 1000 1000" version="1.1" xmlns="http://www.w3.org/2000/svg" xmlns:xlink="http://www.w3.org/1999/xlink">
    <!-- Generator: sketchtool 53.2 (72643) - https://sketchapp.com -->
    <title>medal-o</title>
    <desc>Created with sketchtool.</desc>
    <g id="icons" stroke="none" stroke-width="1" fill="none" fill-rule="evenodd">
        <g id="medal-o" fill="#323233" fill-rule="nonzero">
            <g id="圆角-积分商城1-线">
                <g transform="translate(166.666667, 55.555556)" id="Shape">
                    <path d="M279.75242,226.505851 C297.196403,223.68718 315.093789,222.222222 333.333333,222.222222 C347.932031,222.222222 362.311534,223.160703 376.414804,224.980624 C380.600213,225.487093 384.758368,226.069415 388.888889,226.727509 L388.888889,55.5555556 L444.444444,55.5555556 L444.444444,240.732841 C457.800212,245.423854 470.805172,251.014634 483.443603,257.501934 L555.555556,149.786998 L555.555556,55.5555556 L111.111111,55.5555556 L111.111111,149.93444 L182.511631,257.716831 C195.406812,251.166674 208.648721,245.524265 222.222222,240.793462 L222.222222,55.5555556 L277.777778,55.5555556 L277.777778,226.816467 C278.435345,226.711023 279.093559,226.607484 279.75242,226.505851 L279.75242,226.505851 Z M530.642398,286.864248 C613.134156,347.542654 666.666667,445.297511 666.666667,555.555556 C666.666667,739.650472 517.42825,888.888889 333.333333,888.888889 C149.238417,888.888889 0,739.650472 0,555.555556 C0,445.550284 53.2873389,347.990938 135.457373,287.28216 L64.7961713,180.615804 C58.7694644,171.518211 55.5555556,160.847157 55.5555556,149.93444 L55.5555556,55.5555556 C55.5555556,24.8730695 80.428625,0 111.111111,0 L555.555556,0 C586.238042,-6.16790569e-15 611.111111,24.8730695 611.111111,55.5555556 L611.111111,149.786998 C611.111111,160.79174 607.842818,171.548575 601.720748,180.693224 L530.642398,286.864248 Z M499.697995,333.086465 L499.532724,333.333333 C493.988664,329.0576 488.344406,325.029676 482.599951,321.249562 C448.901842,299.737147 410.252919,285.294912 368.743902,280.013574 C357.324927,278.673067 345.634948,278.002814 333.673963,278.002814 C318.545628,278.002814 303.814957,279.075043 289.481948,281.2195 C156.905426,302.244509 55.5555556,417.064267 55.5555556,555.555556 C55.5555556,708.967986 179.920903,833.333333 333.333333,833.333333 C486.745764,833.333333 611.111111,708.967986 611.111111,555.555556 C611.111111,464.541262 567.339,383.750493 499.697995,333.086465 L499.697995,333.086465 Z"></path>
                    <path d="M333.333333,476.988135 L254.765913,555.555556 L333.333333,634.122976 L411.900753,555.555556 L333.333333,476.988135 Z M372.617043,437.704425 L451.184464,516.271845 C472.880258,537.967639 472.880258,573.143472 451.184464,594.839266 L372.617043,673.406686 C350.921249,695.10248 315.745417,695.10248 294.049623,673.406686 L215.482203,594.839266 C193.786409,573.143472 193.786409,537.967639 215.482203,516.271845 L294.049623,437.704425 C315.745417,416.008631 350.921249,416.008631 372.617043,437.704425 Z"></path>
                </g>
            </g>
        </g>
    </g>
</svg>