<?xml version="1.0" encoding="UTF-8"?>
<svg width="1000px" height="1000px" viewBox="0 0 1000 1000" version="1.1" xmlns="http://www.w3.org/2000/svg" xmlns:xlink="http://www.w3.org/1999/xlink">
    <!-- Generator: sketchtool 53.2 (72643) - https://sketchapp.com -->
    <title>medal</title>
    <desc>Created with sketchtool.</desc>
    <g id="icons" stroke="none" stroke-width="1" fill="none" fill-rule="evenodd">
        <g id="medal" fill="#323233">
            <g id="medel">
                <path d="M500.005556,277.777778 C684.061111,277.777778 833.338889,427 833.338889,611.111111 C833.338889,795.166667 684.061111,944.444444 500.005556,944.444444 C315.894444,944.444444 166.672222,795.166667 166.672222,611.111111 C166.672222,427 315.894444,277.777778 500.005556,277.777778 Z M617.838889,650.388889 C639.561111,628.666667 639.561111,593.555556 617.838889,571.833333 L539.283333,493.277778 C517.561111,471.555556 482.394444,471.555556 460.727778,493.277778 L382.172222,571.833333 C360.45,593.555556 360.45,628.666667 382.172222,650.388889 L460.727778,728.944444 C482.394444,750.666667 517.561111,750.666667 539.283333,728.944444 L617.838889,650.388889 Z M444.444444,226.616667 C400.722222,232.95 359.222222,246.283333 321.444444,265.894444 L277.777778,222.227778 L277.777778,111.116667 C277.777778,80.3944444 302.611111,55.5611111 333.333333,55.5611111 L666.666667,55.5611111 C697.388889,55.5611111 722.222222,80.3944444 722.222222,111.116667 L722.222222,222.227778 L678.555556,265.894444 C640.777778,246.283333 599.277778,232.95 555.555556,226.616667 L555.555556,111.116667 L444.444444,111.116667 L444.444444,226.616667 Z" id="Fill-1"></path>
            </g>
        </g>
    </g>
</svg>