<?xml version="1.0" encoding="UTF-8"?>
<svg width="1000px" height="1000px" viewBox="0 0 1000 1000" version="1.1" xmlns="http://www.w3.org/2000/svg" xmlns:xlink="http://www.w3.org/1999/xlink">
    <!-- Generator: sketchtool 53.2 (72643) - https://sketchapp.com -->
    <title>more</title>
    <desc>Created with sketchtool.</desc>
    <g id="icons" stroke="none" stroke-width="1" fill="none" fill-rule="evenodd">
        <g id="more" fill="#323233">
            <g id="直角-详细信息-面" transform="translate(55.000000, 55.000000)">
                <path d="M445,889.444444 C199.540111,889.444444 0.555555556,690.459889 0.555555556,445 C0.555555556,199.540111 199.540111,0.555555556 445,0.555555556 C690.459889,0.555555556 889.444444,199.540111 889.444444,445 C889.444444,690.459889 690.459889,889.444444 445,889.444444 Z M445,500.555556 C475.682486,500.555556 500.555556,475.682486 500.555556,445 C500.555556,414.317514 475.682486,389.444444 445,389.444444 C414.317514,389.444444 389.444444,414.317514 389.444444,445 C389.444444,475.682486 414.317514,500.555556 445,500.555556 Z M222.777778,500.555556 C253.460264,500.555556 278.333333,475.682486 278.333333,445 C278.333333,414.317514 253.460264,389.444444 222.777778,389.444444 C192.095292,389.444444 167.222222,414.317514 167.222222,445 C167.222222,475.682486 192.095292,500.555556 222.777778,500.555556 Z M667.222222,500.555556 C697.904708,500.555556 722.777778,475.682486 722.777778,445 C722.777778,414.317514 697.904708,389.444444 667.222222,389.444444 C636.539736,389.444444 611.666667,414.317514 611.666667,445 C611.666667,475.682486 636.539736,500.555556 667.222222,500.555556 Z" id="Combined-Shape"></path>
            </g>
        </g>
    </g>
</svg>