<?xml version="1.0" encoding="UTF-8"?>
<svg width="1000px" height="1000px" viewBox="0 0 1000 1000" version="1.1" xmlns="http://www.w3.org/2000/svg" xmlns:xlink="http://www.w3.org/1999/xlink">
    <!-- Generator: sketchtool 53.2 (72643) - https://sketchapp.com -->
    <title>more-o</title>
    <desc>Created with sketchtool.</desc>
    <g id="icons" stroke="none" stroke-width="1" fill="none" fill-rule="evenodd">
        <g id="more-o" fill="#323233">
            <g>
                <path d="M500,881.944444 C710.942092,881.944444 881.944444,710.942092 881.944444,500 C881.944444,289.057908 710.942092,118.055556 500,118.055556 C289.057908,118.055556 118.055556,289.057908 118.055556,500 C118.055556,710.942092 289.057908,881.944444 500,881.944444 Z M500,944.444444 C254.540111,944.444444 55.5555556,745.459889 55.5555556,500 C55.5555556,254.540111 254.540111,55.5555556 500,55.5555556 C745.459889,55.5555556 944.444444,254.540111 944.444444,500 C944.444444,745.459889 745.459889,944.444444 500,944.444444 Z" id="Oval" fill-rule="nonzero"></path>
                <circle id="Oval-16" cx="500" cy="500" r="55.5555556"></circle>
                <circle id="Oval-16-Copy" cx="277.777778" cy="500" r="55.5555556"></circle>
                <circle id="Oval-16-Copy-2" cx="722.222222" cy="500" r="55.5555556"></circle>
            </g>
        </g>
    </g>
</svg>