<?xml version="1.0" encoding="UTF-8"?>
<svg width="1000px" height="1000px" viewBox="0 0 1000 1000" version="1.1" xmlns="http://www.w3.org/2000/svg" xmlns:xlink="http://www.w3.org/1999/xlink">
    <!-- Generator: sketchtool 53.2 (72643) - https://sketchapp.com -->
    <title>new-arrival-o</title>
    <desc>Created with sketchtool.</desc>
    <g id="icons" stroke="none" stroke-width="1" fill="none" fill-rule="evenodd">
        <g id="new-arrival-o" fill="#464647" fill-rule="nonzero">
            <g id="直角-新品2-线">
                <path d="M55.5555556,277.777778 L55.5555556,722.222222 L722.222222,722.222222 C844.952167,722.222222 944.444444,622.729944 944.444444,500 C944.444444,377.270056 844.952167,277.777778 722.222222,277.777778 L55.5555556,277.777778 Z M0,222.222222 L722.222222,222.222222 C875.634653,222.222222 1000,346.587569 1000,500 C1000,653.412431 875.634653,777.777778 722.222222,777.777778 L0,777.777778 L0,222.222222 Z M464.333333,340.444444 L479.666667,368.444444 C451,378.444444 419.333333,384.444444 384.666667,386.777778 L384.666667,440.777778 L487.666667,440.777778 L487.666667,471.111111 L455.666667,471.111111 L455.666667,645.777778 L424.666667,645.777778 L424.666667,471.111111 L384.666667,471.111111 L384.666667,504.777778 C383,563.444444 370,610.111111 345.666667,645.111111 L323.333333,621.111111 C342.333333,593.111111 352.666667,554.444444 354,504.777778 L354,360.777778 C395,360.111111 431.666667,353.111111 464.333333,340.444444 Z M186,364.111111 L245.333333,364.111111 C241.333333,355.444444 236.666667,347.111111 231.666667,339.444444 L264.333333,334.111111 C268.333333,343.111111 272.666667,353.111111 276.666667,364.111111 L338.333333,364.111111 L338.333333,393.444444 L186,393.444444 L186,364.111111 Z M182.666667,439.777778 L218,439.777778 C213.666667,428.111111 208.666667,417.111111 203,407.111111 L230.666667,396.777778 C236,408.777778 241.333333,423.111111 246,439.777778 L277.666667,439.777778 C283,425.777778 287.666667,411.444444 291.666667,396.444444 L320,406.444444 C316,418.777778 311.333333,429.777778 306.333333,439.777778 L340.333333,439.777778 L340.333333,468.777778 L278.666667,468.777778 L278.666667,498.777778 L334.666667,498.777778 L334.666667,527.444444 L278.666667,527.444444 L278.666667,616.777778 C278.666667,636.777778 267.666667,646.777778 245.666667,646.777778 L228.333333,646.777778 L221.333333,617.444444 C226.333333,618.777778 231,619.444444 235.333333,619.444444 C243.333333,619.444444 247.333333,616.111111 247.333333,609.444444 L247.333333,527.444444 L188,527.444444 L188,498.777778 L247.333333,498.777778 L247.333333,468.777778 L182.666667,468.777778 L182.666667,439.777778 Z M208,542.111111 L236.666667,548.111111 C228.666667,581.777778 217.666667,611.111111 203,636.111111 L177,619.444444 C191.666667,595.444444 202,569.444444 208,542.111111 Z M312.333333,539.777778 C321,561.111111 328,580.444444 333,597.777778 L306.333333,607.777778 C301,587.111111 294.333333,566.777778 286.333333,546.777778 L312.333333,539.777778 Z M572,349.111111 L761.333333,349.111111 L761.333333,465.444444 L572,465.444444 L572,349.111111 Z M729.666667,435.444444 L729.666667,379.111111 L603.666667,379.111111 L603.666667,435.444444 L729.666667,435.444444 Z M650.666667,490.444444 L650.666667,640.444444 L620,640.444444 L620,624.444444 L558.333333,624.444444 L558.333333,640.444444 L527.333333,640.444444 L527.333333,490.444444 L650.666667,490.444444 Z M558.333333,594.777778 L620,594.777778 L620,520.444444 L558.333333,520.444444 L558.333333,594.777778 Z M806,490.444444 L806,640.444444 L774.333333,640.444444 L774.333333,624.444444 L710,624.444444 L710,640.444444 L679,640.444444 L679,490.444444 L806,490.444444 Z M710,594.777778 L774.333333,594.777778 L774.333333,520.444444 L710,520.444444 L710,594.777778 Z" id="Combined-Shape"></path>
            </g>
        </g>
    </g>
</svg>