<?xml version="1.0" encoding="UTF-8"?>
<svg width="1000px" height="1000px" viewBox="0 0 1000 1000" version="1.1" xmlns="http://www.w3.org/2000/svg" xmlns:xlink="http://www.w3.org/1999/xlink">
    <!-- Generator: sketchtool 53.2 (72643) - https://sketchapp.com -->
    <title>new-arrival</title>
    <desc>Created with sketchtool.</desc>
    <g id="icons" stroke="none" stroke-width="1" fill="none" fill-rule="evenodd">
        <g id="new-arrival" fill="#464647">
            <g id="圆角-新品2-面">
                <g id="新品" transform="translate(0.000000, 222.222222)">
                    <path d="M0,0 L722.222222,0 C875.634653,-2.81814063e-14 1000,124.365347 1000,277.777778 C1000,431.190208 875.634653,555.555556 722.222222,555.555556 L0,555.555556 L0,0 Z M465.335034,138.170937 C432.627953,150.226391 395.915923,156.571367 354.531454,157.205864 L354.531454,294.891837 C353.196471,341.527409 342.850354,378.011019 324.160593,404.342669 L349.191522,429.405323 C373.55496,395.776951 386.571043,351.044873 388.239772,294.891837 L388.239772,264.753203 L424.28431,264.753203 L424.28431,430.03982 L458.660119,430.03982 L458.660119,264.753203 L489.364726,264.753203 L489.364726,233.345573 L388.239772,233.345573 L388.239772,184.172011 C422.615581,182.268518 453.987679,176.875289 482.356066,167.992323 L465.335034,138.170937 Z M186.657355,160.378352 L186.657355,190.834236 L339.846642,190.834236 L339.846642,160.378352 L279.104921,160.378352 C275.099972,150.226391 271.428769,141.026176 267.42382,132.777708 L231.379282,138.488186 C236.051722,145.150411 240.390417,152.447133 244.395365,160.378352 L186.657355,160.378352 Z M183.319898,232.393827 L183.319898,262.532461 L246.731585,262.532461 L246.731585,288.229613 L188.65983,288.229613 L188.65983,318.368248 L246.731585,318.368248 L246.731585,393.55621 C246.731585,399.583937 242.726637,402.756425 235.384231,402.756425 C231.379282,402.756425 226.706842,401.804678 221.700656,400.535683 L229.376808,430.991567 L246.731585,430.991567 C269.76004,430.991567 281.441141,421.156854 281.441141,401.487429 L281.441141,318.368248 L336.175439,318.368248 L336.175439,288.229613 L281.441141,288.229613 L281.441141,262.532461 L341.849116,262.532461 L341.849116,232.393827 L309.475781,232.393827 C313.814476,223.193612 317.819424,213.358899 321.824373,202.572441 L290.786021,192.103231 C287.114818,206.062177 282.776124,219.386626 277.769938,232.393827 L248.400314,232.393827 C243.727874,216.848636 239.055434,203.524187 234.049248,192.103231 L203.344642,203.206938 C208.684573,212.089904 213.357013,221.924617 217.361962,232.393827 L183.319898,232.393827 Z M207.34959,330.74095 C201.675913,356.438102 191.663541,380.866258 177.312475,403.708171 L206.348353,421.156854 C220.365673,397.363195 231.045537,369.445302 238.721688,337.085926 L207.34959,330.74095 Z M315.483204,328.837458 L286.781072,336.13418 C294.123478,354.851858 300.464647,374.204034 305.470833,393.873459 L334.840456,383.087 C330.168016,366.590063 323.493102,348.506882 315.483204,328.837458 Z M572.467411,146.102157 L572.467411,259.359973 L764.371201,259.359973 L764.371201,146.102157 L572.467411,146.102157 Z M729.3279,228.269592 L607.510712,228.269592 L607.510712,177.192538 L729.3279,177.192538 L729.3279,228.269592 Z M653.233876,280.298393 L527.411738,280.298393 L527.411738,424.96384 L561.453802,424.96384 L561.453802,410.053147 L619.525558,410.053147 L619.525558,424.96384 L653.233876,424.96384 L653.233876,280.298393 Z M561.453802,379.280014 L561.453802,311.388774 L619.525558,311.388774 L619.525558,379.280014 L561.453802,379.280014 Z M809.093128,280.298393 L679.266042,280.298393 L679.266042,424.96384 L713.308106,424.96384 L713.308106,410.053147 L774.383573,410.053147 L774.383573,424.96384 L809.093128,424.96384 L809.093128,280.298393 Z M713.308106,379.280014 L713.308106,311.388774 L774.383573,311.388774 L774.383573,379.280014 L713.308106,379.280014 Z" id="Combined-Shape"></path>
                </g>
            </g>
        </g>
    </g>
</svg>