<?xml version="1.0" encoding="UTF-8"?>
<svg width="1000px" height="1000px" viewBox="0 0 1000 1000" version="1.1" xmlns="http://www.w3.org/2000/svg" xmlns:xlink="http://www.w3.org/1999/xlink">
    <!-- Generator: sketchtool 53.2 (72643) - https://sketchapp.com -->
    <title>new-o</title>
    <desc>Created with sketchtool.</desc>
    <g id="icons" stroke="none" stroke-width="1" fill="none" fill-rule="evenodd">
        <g id="new-o" fill="#323233" fill-rule="nonzero">
            <g id="圆角-new-线">
                <path d="M222.222222,55.5555556 L222.222222,631.944444 C222.222222,680.030917 270.440857,722.222222 333.333333,722.222222 L666.666667,722.222222 C729.559143,722.222222 777.777778,680.030917 777.777778,631.944444 L777.777778,55.5555556 L222.222222,55.5555556 Z M166.666667,0 L833.333333,0 L833.333333,631.944444 C833.333333,712.48597 758.714125,777.777778 666.666667,777.777778 L333.333333,777.777778 C241.285875,777.777778 166.666667,712.48597 166.666667,631.944444 L166.666667,0 Z M311.792879,472.222222 L277.777778,472.222222 L277.777778,305.555556 L306.416929,305.555556 L366.236591,402.460152 L367.018547,402.460152 L367.018547,305.555556 L401.033649,305.555556 L401.033649,472.222222 L372.687731,472.222222 L312.574836,374.393624 L311.792879,374.393624 L311.792879,472.222222 Z M519.011314,438.034188 L519.011314,472.222222 L422.341959,472.222222 L422.341959,305.555556 L519.011314,305.555556 L519.011314,339.74359 L458.214207,339.74359 L458.214207,372.892123 L515.394766,372.892123 L515.394766,404.077154 L458.214207,404.077154 L458.214207,438.034188 L519.011314,438.034188 Z M627.019036,368.156618 L603.267111,472.222222 L569.447499,472.222222 L532.597806,305.555556 L569.642988,305.555556 L588.703174,418.168168 L589.485131,418.168168 L613.041566,305.555556 L641.778462,305.555556 L665.334897,418.168168 L666.116854,418.168168 L685.17704,305.555556 L722.222222,305.555556 L685.372529,472.222222 L651.552916,472.222222 L627.800992,368.156618 L627.019036,368.156618 Z" id="Shape"></path>
            </g>
        </g>
    </g>
</svg>