<?xml version="1.0" encoding="UTF-8"?>
<svg width="1000px" height="1000px" viewBox="0 0 1000 1000" version="1.1" xmlns="http://www.w3.org/2000/svg" xmlns:xlink="http://www.w3.org/1999/xlink">
    <!-- Generator: sketchtool 53.2 (72643) - https://sketchapp.com -->
    <title>new</title>
    <desc>Created with sketchtool.</desc>
    <g id="icons" stroke="none" stroke-width="1" fill="none" fill-rule="evenodd">
        <g id="new" fill="#464647">
            <g id="圆角-new-面">
                <path d="M166.666667,-2.27373675e-13 L833.333333,-2.27373675e-13 L833.333333,631.944444 C833.333333,712.48597 758.714125,777.777778 666.666667,777.777778 L333.333333,777.777778 C241.285875,777.777778 166.666667,712.48597 166.666667,631.944444 L166.666667,-2.27373675e-13 Z M311.792879,472.222222 L311.792879,374.393624 L312.574836,374.393624 L372.687731,472.222222 L401.033649,472.222222 L401.033649,305.555556 L367.018547,305.555556 L367.018547,402.460152 L366.236591,402.460152 L306.416929,305.555556 L277.777778,305.555556 L277.777778,472.222222 L311.792879,472.222222 Z M519.011314,438.034188 L458.214207,438.034188 L458.214207,404.077154 L515.394766,404.077154 L515.394766,372.892123 L458.214207,372.892123 L458.214207,339.74359 L519.011314,339.74359 L519.011314,305.555556 L422.341959,305.555556 L422.341959,472.222222 L519.011314,472.222222 L519.011314,438.034188 Z M627.019036,368.156618 L627.800992,368.156618 L651.552916,472.222222 L685.372529,472.222222 L722.222222,305.555556 L685.17704,305.555556 L666.116854,418.168168 L665.334897,418.168168 L641.778462,305.555556 L613.041566,305.555556 L589.485131,418.168168 L588.703174,418.168168 L569.642988,305.555556 L532.597806,305.555556 L569.447499,472.222222 L603.267111,472.222222 L627.019036,368.156618 Z" id="02_Mobile/06_Brands&amp;Tags/17_new"></path>
            </g>
        </g>
    </g>
</svg>