<?xml version="1.0" encoding="UTF-8"?>
<svg width="1000px" height="1000px" viewBox="0 0 1000 1000" version="1.1" xmlns="http://www.w3.org/2000/svg" xmlns:xlink="http://www.w3.org/1999/xlink">
    <!-- Generator: sketchtool 53.2 (72643) - https://sketchapp.com -->
    <title>newspaper-o</title>
    <desc>Created with sketchtool.</desc>
    <g id="icons" stroke="none" stroke-width="1" fill="none" fill-rule="evenodd">
        <g id="newspaper-o" fill="#251714">
            <g id="直角-有赞小报-线-">
                <path d="M777.777778,833.333333 L833.333333,833.333333 L833.333333,666.666667 L777.777778,666.666667 L777.777778,833.333333 Z M833.333333,611.111111 C864.055556,611.111111 888.888889,635.944444 888.888889,666.666667 L888.888889,833.333333 C888.888889,864.055556 864.055556,888.888889 833.333333,888.888889 L166.666667,888.888889 C135.944444,888.888889 111.111111,864.055556 111.111111,833.333333 L111.111111,166.666667 C111.111111,135.944444 135.944444,111.111111 166.666667,111.111111 L722.222222,111.111111 C752.944444,111.111111 777.777778,135.944444 777.777778,166.666667 L777.777778,611.111111 L833.333333,611.111111 Z M166.666667,833.333333 L722.222222,833.333333 L722.222222,166.666667 L166.666667,166.666667 L166.666667,833.333333 Z M277.777778,611.111111 L388.888889,611.111111 L388.888889,444.444444 L277.777778,444.444444 L277.777778,611.111111 Z M250,666.666667 C234.658757,666.666667 222.222222,654.230132 222.222222,638.888889 L222.222222,416.666667 C222.222222,401.325424 234.658757,388.888889 250,388.888889 L416.666667,388.888889 C432.00791,388.888889 444.444444,401.325424 444.444444,416.666667 L444.444444,638.888889 C444.444444,654.230132 432.00791,666.666667 416.666667,666.666667 L250,666.666667 Z M250,333.333333 C234.658757,333.333333 222.222222,320.896799 222.222222,305.555556 C222.222222,290.214313 234.658757,277.777778 250,277.777778 L638.888889,277.777778 C654.230132,277.777778 666.666667,290.214313 666.666667,305.555556 C666.666667,320.896799 654.230132,333.333333 638.888889,333.333333 L250,333.333333 Z M527.777778,444.444444 C512.436535,444.444444 500,432.00791 500,416.666667 C500,401.325424 512.436535,388.888889 527.777778,388.888889 L638.888889,388.888889 C654.230132,388.888889 666.666667,401.325424 666.666667,416.666667 C666.666667,432.00791 654.230132,444.444444 638.888889,444.444444 L527.777778,444.444444 Z M527.777778,555.555556 C512.436535,555.555556 500,543.119021 500,527.777778 C500,512.436535 512.436535,500 527.777778,500 L638.888889,500 C654.230132,500 666.666667,512.436535 666.666667,527.777778 C666.666667,543.119021 654.230132,555.555556 638.888889,555.555556 L527.777778,555.555556 Z M527.805556,666.666667 C512.448971,666.666667 500,654.217695 500,638.861111 C500,623.504527 512.448971,611.055556 527.805556,611.055556 L638.861111,611.055556 C654.217695,611.055556 666.666667,623.504527 666.666667,638.861111 C666.666667,654.217695 654.217695,666.666667 638.861111,666.666667 L527.805556,666.666667 Z" id="Shape"></path>
            </g>
        </g>
    </g>
</svg>