<?xml version="1.0" standalone="no" ?>
<!DOCTYPE svg PUBLIC "-//W3C//DTD SVG 1.1//EN" "http://www.w3.org/Graphics/SVG/1.1/DTD/svg11.dtd">
<svg class="icon" width="200px" height="200.00px" viewBox="0 0 1024 1024" version="1.1" xmlns="http://www.w3.org/2000/svg">
    <path fill="#707070" d="M432.56 527.168a150.192 150.192 0 0 1-73.6-129.248V342.24a150.256 150.256 0 0 1 300.512 0v55.664a150.176 150.176 0 0 1-72.048 128.32A344.432 344.432 0 0 1 824.736 718.4c2.56 5.552 7.232 11.2 7.232 16.928v4.784H832V829.92a16 16 0 0 1-16 16H208a16 16 0 0 1-16-16V749.904l0.32-0.032c0-5.28-0.032-10.656 0.336-16.096 0.368-5.408 4.416-10.608 6.8-15.792a344.432 344.432 0 0 1 233.104-190.816zM240 744.928v52.992h544v-53.008a296.16 296.16 0 0 0-544 0zM509.216 240a102.256 102.256 0 0 0-102.256 102.256v55.664a102.256 102.256 0 0 0 204.512 0V342.24A102.256 102.256 0 0 0 509.232 240z" />
</svg>