<?xml version="1.0" encoding="UTF-8"?>
<svg width="1000px" height="1000px" viewBox="0 0 1000 1000" version="1.1" xmlns="http://www.w3.org/2000/svg" xmlns:xlink="http://www.w3.org/1999/xlink">
    <!-- Generator: sketchtool 53.2 (72643) - https://sketchapp.com -->
    <title>notes-o</title>
    <desc>Created with sketchtool.</desc>
    <g id="icons" stroke="none" stroke-width="1" fill="none" fill-rule="evenodd">
        <g id="notes-o" fill="#323233">
            <g id="直角-备注-线">
                <path d="M833.333333,833.333333 L833.333333,222.222222 L722.222222,222.222222 L722.222222,250 C722.222222,265.341243 709.785687,277.777778 694.444444,277.777778 C679.103201,277.777778 666.666667,265.341243 666.666667,250 L666.666667,222.222222 L333.333333,222.222222 L333.333333,250 C333.333333,265.341243 320.896799,277.777778 305.555556,277.777778 C290.214313,277.777778 277.777778,265.341243 277.777778,250 L277.777778,222.222222 L166.666667,222.222222 L166.666667,833.333333 L833.333333,833.333333 Z M722.222222,166.666667 L833.333333,166.666667 C864.055556,166.666667 888.888889,191.5 888.888889,222.222222 L888.888889,833.333333 C888.888889,864.055556 864.055556,888.888889 833.333333,888.888889 L166.666667,888.888889 C135.944444,888.888889 111.111111,864.055556 111.111111,833.333333 L111.111111,222.222222 C111.111111,191.5 135.944444,166.666667 166.666667,166.666667 L277.777778,166.666667 L277.777778,138.888889 C277.777778,123.547646 290.214313,111.111111 305.555556,111.111111 C320.896799,111.111111 333.333333,123.547646 333.333333,138.888889 L333.333333,166.666667 L666.666667,166.666667 L666.666667,138.888889 C666.666667,123.547646 679.103201,111.111111 694.444444,111.111111 C709.785687,111.111111 722.222222,123.547646 722.222222,138.888889 L722.222222,166.666667 Z M305.555556,611.111111 C290.214313,611.111111 277.777778,598.674576 277.777778,583.333333 C277.777778,567.99209 290.214313,555.555556 305.555556,555.555556 L694.444444,555.555556 C709.785687,555.555556 722.222222,567.99209 722.222222,583.333333 C722.222222,598.674576 709.785687,611.111111 694.444444,611.111111 L305.555556,611.111111 Z M305.555556,500 C290.214313,500 277.777778,487.563465 277.777778,472.222222 C277.777778,456.880979 290.214313,444.444444 305.555556,444.444444 L694.444444,444.444444 C709.785687,444.444444 722.222222,456.880979 722.222222,472.222222 C722.222222,487.563465 709.785687,500 694.444444,500 L305.555556,500 Z M305.555556,722.222222 C290.214313,722.222222 277.777778,709.785687 277.777778,694.444444 C277.777778,679.103201 290.214313,666.666667 305.555556,666.666667 L472.222222,666.666667 C487.563465,666.666667 500,679.103201 500,694.444444 C500,709.785687 487.563465,722.222222 472.222222,722.222222 L305.555556,722.222222 Z" id="Shape"></path>
            </g>
        </g>
    </g>
</svg>