<?xml version="1.0" encoding="UTF-8"?>
<svg width="1000px" height="1000px" viewBox="0 0 1000 1000" version="1.1" xmlns="http://www.w3.org/2000/svg" xmlns:xlink="http://www.w3.org/1999/xlink">
    <!-- Generator: sketchtool 53.2 (72643) - https://sketchapp.com -->
    <title>orders-o</title>
    <desc>Created with sketchtool.</desc>
    <defs>
        <path d="M222.555833,111.555833 L222.555833,889.3375 L778.114167,889.3375 L778.114167,111.555833 L222.555833,111.555833 Z M222.555833,56 L778.114167,56 C808.796806,56 833.67,80.8731938 833.67,111.555833 L833.67,889.3375 C833.67,920.02014 808.796806,944.893333 778.114167,944.893333 L222.555833,944.893333 C191.873194,944.893333 167,920.02014 167,889.3375 L167,111.555833 C167,80.8731938 191.873194,56 222.555833,56 Z M361.445417,333.779167 L639.224583,333.779167 C654.565903,333.779167 667.0025,346.215764 667.0025,361.557083 C667.0025,376.898403 654.565903,389.335 639.224583,389.335 L361.445417,389.335 C346.104097,389.335 333.6675,376.898403 333.6675,361.557083 C333.6675,346.215764 346.104097,333.779167 361.445417,333.779167 Z M361.445417,500.446667 L639.224583,500.446667 C654.565903,500.446667 667.0025,512.883264 667.0025,528.224583 C667.0025,543.565903 654.565903,556.0025 639.224583,556.0025 L361.445417,556.0025 C346.104097,556.0025 333.6675,543.565903 333.6675,528.224583 C333.6675,512.883264 346.104097,500.446667 361.445417,500.446667 Z M361.445417,667.114167 L528.112917,667.114167 C543.454236,667.114167 555.890833,679.550764 555.890833,694.892083 C555.890833,710.233403 543.454236,722.67 528.112917,722.67 L361.445417,722.67 C346.104097,722.67 333.6675,710.233403 333.6675,694.892083 C333.6675,679.550764 346.104097,667.114167 361.445417,667.114167 Z" id="path-1"></path>
    </defs>
    <g id="icons" stroke="none" stroke-width="1" fill="none" fill-rule="evenodd">
        <g id="orders-o">
            <mask id="mask-2" fill="white">
                <use xlink:href="#path-1"></use>
            </mask>
            <use id="Shape" fill="#000000" fill-rule="nonzero" xlink:href="#path-1"></use>
        </g>
    </g>
</svg>