<?xml version="1.0" encoding="UTF-8"?>
<svg width="1000px" height="1000px" viewBox="0 0 1000 1000" version="1.1" xmlns="http://www.w3.org/2000/svg" xmlns:xlink="http://www.w3.org/1999/xlink">
    <!-- Generator: sketchtool 53.2 (72643) - https://sketchapp.com -->
    <title>pause-circle</title>
    <desc>Created with sketchtool.</desc>
    <g id="icons" stroke="none" stroke-width="1" fill="none" fill-rule="evenodd">
        <g id="pause-circle" fill="#323233">
            <g id="Pause">
                <path d="M500,944.444444 C254.540111,944.444444 55.5555556,745.459889 55.5555556,500 C55.5555556,254.540111 254.540111,55.5555556 500,55.5555556 C745.459889,55.5555556 944.444444,254.540111 944.444444,500 C944.444444,745.459889 745.459889,944.444444 500,944.444444 Z M409.722222,333.333333 C390.545668,333.333333 375,348.879002 375,368.055556 L375,631.944444 C375,651.120998 390.545668,666.666667 409.722222,666.666667 C428.898776,666.666667 444.444444,651.120998 444.444444,631.944444 L444.444444,368.055556 C444.444444,348.879002 428.898776,333.333333 409.722222,333.333333 Z M590.277778,333.333333 C571.101224,333.333333 555.555556,348.879002 555.555556,368.055556 L555.555556,631.944444 C555.555556,651.120998 571.101224,666.666667 590.277778,666.666667 C609.454332,666.666667 625,651.120998 625,631.944444 L625,368.055556 C625,348.879002 609.454332,333.333333 590.277778,333.333333 Z" id="Shape"></path>
            </g>
        </g>
    </g>
</svg>