<?xml version="1.0" encoding="UTF-8"?>
<svg width="1000px" height="1000px" viewBox="0 0 1000 1000" version="1.1" xmlns="http://www.w3.org/2000/svg" xmlns:xlink="http://www.w3.org/1999/xlink">
    <!-- Generator: sketchtool 53.2 (72643) - https://sketchapp.com -->
    <title>pause</title>
    <desc>Created with sketchtool.</desc>
    <g id="icons" stroke="none" stroke-width="1" fill="none" fill-rule="evenodd">
        <g id="pause" fill="#323233">
            <g id="Pause1">
                <g id="Group-8" transform="translate(250.000000, 138.888889)">
                    <path d="M83.3333333,0 C129.357062,-8.45442189e-15 166.666667,37.3096042 166.666667,83.3333333 L166.666667,638.888889 C166.666667,684.912618 129.357062,722.222222 83.3333333,722.222222 C37.3096042,722.222222 5.63628126e-15,684.912618 0,638.888889 L0,83.3333333 C-5.63628126e-15,37.3096042 37.3096042,8.45442189e-15 83.3333333,0 Z M416.666667,0 C462.690396,-8.45442189e-15 500,37.3096042 500,83.3333333 L500,638.888889 C500,684.912618 462.690396,722.222222 416.666667,722.222222 C370.642938,722.222222 333.333333,684.912618 333.333333,638.888889 L333.333333,83.3333333 C333.333333,37.3096042 370.642938,8.45442189e-15 416.666667,0 Z" id="形状"></path>
                </g>
            </g>
        </g>
    </g>
</svg>