<?xml version="1.0" encoding="UTF-8"?>
<svg width="1000px" height="1000px" viewBox="0 0 1000 1000" version="1.1" xmlns="http://www.w3.org/2000/svg" xmlns:xlink="http://www.w3.org/1999/xlink">
    <!-- Generator: sketchtool 53.2 (72643) - https://sketchapp.com -->
    <title>pause-circle-o</title>
    <desc>Created with sketchtool.</desc>
    <g id="icons" stroke="none" stroke-width="1" fill="none" fill-rule="evenodd">
        <g id="pause-circle-o" fill="#323233">
            <g id="圆角-暂停-线">
                <path d="M409.722222,333.333333 C428.898776,333.333333 444.444444,348.879002 444.444444,368.055556 L444.444444,631.944444 C444.444444,651.120998 428.898776,666.666667 409.722222,666.666667 C390.545668,666.666667 375,651.120998 375,631.944444 L375,368.055556 C375,348.879002 390.545668,333.333333 409.722222,333.333333 Z M590.277778,333.333333 C609.454332,333.333333 625,348.879002 625,368.055556 L625,631.944444 C625,651.120998 609.454332,666.666667 590.277778,666.666667 C571.101224,666.666667 555.555556,651.120998 555.555556,631.944444 L555.555556,368.055556 C555.555556,348.879002 571.101224,333.333333 590.277778,333.333333 Z M500,888.888889 C714.777403,888.888889 888.888889,714.777403 888.888889,500 C888.888889,285.222597 714.777403,111.111111 500,111.111111 C285.222597,111.111111 111.111111,285.222597 111.111111,500 C111.111111,714.777403 285.222597,888.888889 500,888.888889 Z M500,944.444444 C254.540111,944.444444 55.5555556,745.459889 55.5555556,500 C55.5555556,254.540111 254.540111,55.5555556 500,55.5555556 C745.459889,55.5555556 944.444444,254.540111 944.444444,500 C944.444444,745.459889 745.459889,944.444444 500,944.444444 Z" id="Combined-Shape"></path>
            </g>
        </g>
    </g>
</svg>