<?xml version="1.0" encoding="UTF-8"?>
<svg width="1000px" height="1000px" viewBox="0 0 1000 1000" version="1.1" xmlns="http://www.w3.org/2000/svg" xmlns:xlink="http://www.w3.org/1999/xlink">
    <!-- Generator: sketchtool 53.2 (72643) - https://sketchapp.com -->
    <title>photo-o</title>
    <desc>Created with sketchtool.</desc>
    <g id="icons" stroke="none" stroke-width="1" fill="none" fill-rule="evenodd">
        <g id="photo-o" fill="#323233">
            <g id="圆角-图片-线">
                <path d="M305.555556,388.888889 C290.222222,388.888889 277.777778,376.388889 277.777778,361.111111 C277.777778,345.833333 290.222222,333.333333 305.555556,333.333333 C320.888889,333.333333 333.333333,345.833333 333.333333,361.111111 C333.333333,376.388889 320.888889,388.888889 305.555556,388.888889 M305.555556,277.777778 C259.5,277.777778 222.222222,315.111111 222.222222,361.111111 C222.222222,407.111111 259.5,444.444444 305.555556,444.444444 C351.611111,444.444444 388.888889,407.111111 388.888889,361.111111 C388.888889,315.111111 351.611111,277.777778 305.555556,277.777778" id="Fill-4"></path>
                <path d="M653.888889,327.666667 C642.833333,314.722222 627.277778,308.222222 611.722222,308.222222 C595.944444,308.222222 580.166667,314.944444 569.055556,328.277778 L333.333333,611.111111 L261.555556,539.277778 C250.666667,528.388889 236.444444,523 222.222222,523 C208.055556,523 193.833333,528.388889 182.944444,539.277778 L111.111111,611.111111 L111.111111,222.222222 L888.888889,222.222222 L888.888889,601.833333 L653.888889,327.666667 Z M888.888889,777.777778 L111.111111,777.777778 L111.111111,689.666667 L222.222222,578.555556 L294.055556,650.388889 C317.166667,673.5 355.111111,671.722222 376.055556,646.611111 L611.611111,363.777778 L611.722222,363.777778 L888.888889,687.222222 L888.888889,777.777778 Z M888.888889,166.666667 L111.111111,166.666667 C80.4444444,166.666667 55.5555556,191.5 55.5555556,222.222222 L55.5555556,666.666667 L55.5555556,777.777778 C55.5555556,808.444444 80.4444444,833.333333 111.111111,833.333333 L888.888889,833.333333 C919.611111,833.333333 944.444444,808.444444 944.444444,777.777778 L944.444444,666.666667 L944.444444,222.222222 C944.444444,191.5 919.611111,166.666667 888.888889,166.666667 L888.888889,166.666667 Z" id="Fill-1"></path>
            </g>
        </g>
    </g>
</svg>