<?xml version="1.0" encoding="UTF-8"?>
<svg width="1000px" height="1000px" viewBox="0 0 1000 1000" version="1.1" xmlns="http://www.w3.org/2000/svg" xmlns:xlink="http://www.w3.org/1999/xlink">
    <!-- Generator: sketchtool 53.2 (72643) - https://sketchapp.com -->
    <title>photo</title>
    <desc>Created with sketchtool.</desc>
    <g id="icons" stroke="none" stroke-width="1" fill="none" fill-rule="evenodd">
        <g id="photo" fill="#323233">
            <g id="圆角-图片-面">
                <path d="M305.583333,277.755556 C259.583333,277.755556 222.25,315.088889 222.25,361.088889 C222.25,407.088889 259.583333,444.422222 305.583333,444.422222 C351.583333,444.422222 388.916667,407.088889 388.916667,361.088889 C388.916667,315.088889 351.583333,277.755556 305.583333,277.755556 M653.888889,327.666667 C631.555556,301.555556 591.055556,301.833333 569.055556,328.277778 L333.333333,611.111111 L261.555556,539.277778 C239.833333,517.555556 204.666667,517.555556 182.944444,539.277778 L111.111111,611.111111 L111.111111,222.222222 L888.888889,222.222222 L888.888889,601.833333 L653.888889,327.666667 Z M888.888889,166.666667 L111.111111,166.666667 C80.4444444,166.666667 55.5555556,191.5 55.5555556,222.222222 L55.5555556,666.666667 L55.5555556,777.777778 C55.5555556,808.444444 80.4444444,833.333333 111.111111,833.333333 L888.888889,833.333333 C919.611111,833.333333 944.444444,808.444444 944.444444,777.777778 L944.444444,666.666667 L944.444444,222.222222 C944.444444,191.5 919.611111,166.666667 888.888889,166.666667 L888.888889,166.666667 Z" id="Fill-4"></path>
            </g>
        </g>
    </g>
</svg>