<?xml version="1.0" encoding="UTF-8"?>
<svg width="1000px" height="1000px" viewBox="0 0 1000 1000" version="1.1" xmlns="http://www.w3.org/2000/svg" xmlns:xlink="http://www.w3.org/1999/xlink">
    <!-- Generator: sketchtool 53.2 (72643) - https://sketchapp.com -->
    <title>photograph</title>
    <desc>Created with sketchtool.</desc>
    <g id="icons" stroke="none" stroke-width="1" fill="none" fill-rule="evenodd">
        <g id="photograph" fill="#333333">
            <g id="合并形状">
                <path d="M277.777778,222.222222 L335.359267,135.849989 C345.662921,120.394508 363.009106,111.111111 381.584283,111.111111 L618.415717,111.111111 C636.990894,111.111111 654.337079,120.394508 664.640733,135.849989 L722.222222,222.222222 L888.888889,222.222222 C919.571375,222.222222 944.444444,247.095292 944.444444,277.777778 L944.444444,833.333333 C944.444444,864.015819 919.571375,888.888889 888.888889,888.888889 L111.111111,888.888889 C80.428625,888.888889 55.5555556,864.015819 55.5555556,833.333333 L55.5555556,277.777778 C55.5555556,247.095292 80.428625,222.222222 111.111111,222.222222 L277.777778,222.222222 Z M500,777.777778 C622.729944,777.777778 722.222222,678.2855 722.222222,555.555556 C722.222222,432.825611 622.729944,333.333333 500,333.333333 C377.270056,333.333333 277.777778,432.825611 277.777778,555.555556 C277.777778,678.2855 377.270056,777.777778 500,777.777778 Z M500,666.666667 C438.635028,666.666667 388.888889,616.920528 388.888889,555.555556 C388.888889,494.190583 438.635028,444.444444 500,444.444444 C561.364972,444.444444 611.111111,494.190583 611.111111,555.555556 C611.111111,616.920528 561.364972,666.666667 500,666.666667 Z"></path>
            </g>
        </g>
    </g>
</svg>