<?xml version="1.0" encoding="UTF-8"?>
<svg width="1000px" height="1000px" viewBox="0 0 1000 1000" version="1.1" xmlns="http://www.w3.org/2000/svg" xmlns:xlink="http://www.w3.org/1999/xlink">
    <!-- Generator: sketchtool 53.2 (72643) - https://sketchapp.com -->
    <title>play-circle</title>
    <desc>Created with sketchtool.</desc>
    <g id="icons" stroke="none" stroke-width="1" fill="none" fill-rule="evenodd">
        <g id="play-circle" fill="#323233">
            <g id="Play">
                <path d="M500,944.444444 C254.540111,944.444444 55.5555556,745.459889 55.5555556,500 C55.5555556,254.540111 254.540111,55.5555556 500,55.5555556 C745.459889,55.5555556 944.444444,254.540111 944.444444,500 C944.444444,745.459889 745.459889,944.444444 500,944.444444 Z M667.749238,521.737187 C669.351035,520.455749 670.80596,519.000824 672.087398,517.399027 C681.670997,505.419529 679.728736,487.939185 667.749238,478.355587 L462.215378,313.928499 C457.290016,309.988209 451.17028,307.841521 444.862738,307.841521 C429.521495,307.841521 417.08496,320.278056 417.08496,335.619299 L417.08496,664.473474 C417.08496,670.781016 419.231648,676.900752 423.171938,681.826115 C432.755537,693.805613 450.23588,695.747873 462.215378,686.164275 L667.749238,521.737187 Z" id="形状"></path>
            </g>
        </g>
    </g>
</svg>