<?xml version="1.0" encoding="UTF-8"?>
<svg width="1000px" height="1000px" viewBox="0 0 1000 1000" version="1.1" xmlns="http://www.w3.org/2000/svg" xmlns:xlink="http://www.w3.org/1999/xlink">
    <!-- Generator: sketchtool 53.2 (72643) - https://sketchapp.com -->
    <title>plus</title>
    <desc>Created with sketchtool.</desc>
    <g id="icons" stroke="none" stroke-width="1" fill="none" fill-rule="evenodd">
        <g id="plus" fill="#323233" fill-rule="nonzero">
            <g id="圆角-关闭" transform="translate(100.000000, 100.000000)">
                <path d="M437.5,437.5 L437.5,762.5 C437.5,783.210678 420.710678,800 400,800 C379.289322,800 362.5,783.210678 362.5,762.5 L362.5,437.5 L37.5,437.5 C16.7893219,437.5 -8.8817842e-14,420.710678 0,400 C-4.4408921e-14,379.289322 16.7893219,362.5 37.5,362.5 L362.5,362.5 L362.5,37.5 C362.5,16.7893219 379.289322,0 400,0 C420.710678,0 437.5,16.7893219 437.5,37.5 L437.5,362.5 L762.5,362.5 C783.210678,362.5 800,379.289322 800,400 C800,420.710678 783.210678,437.5 762.5,437.5 L437.5,437.5 Z" id="Path"></path>
            </g>
        </g>
    </g>
</svg>