<?xml version="1.0" encoding="UTF-8"?>
<svg width="1000px" height="1000px" viewBox="0 0 1000 1000" version="1.1" xmlns="http://www.w3.org/2000/svg" xmlns:xlink="http://www.w3.org/1999/xlink">
    <!-- Generator: sketchtool 53.2 (72643) - https://sketchapp.com -->
    <title>point-gift</title>
    <desc>Created with sketchtool.</desc>
    <g id="icons" stroke="none" stroke-width="1" fill="none" fill-rule="evenodd">
        <g id="point-gift" fill="#323233">
            <g id="Fill-6">
                <path d="M630.833333,246.216892 C615.777778,261.272447 601.722222,270.216892 589.166667,276.550225 L550.944444,276.550225 C552.388889,262.716892 562.888889,235.49467 591.5,206.883559 C629.555556,168.883559 665.166667,162.605781 670.111111,167.605781 C675,172.49467 668.833333,208.161336 630.833333,246.216892 L630.833333,246.216892 Z M410.888889,276.550225 C398.333333,270.216892 384.277778,261.272447 369.277778,246.272447 C331.222222,208.161336 325.111111,172.550225 330,167.661336 C330.944444,166.716892 332.944444,166.216892 335.777778,166.216892 C348.388889,166.216892 377.666667,176.050225 408.611111,206.939114 C437.111111,235.49467 447.666667,262.661336 449.111111,276.550225 L410.888889,276.550225 Z M833.388889,276.550225 C864.055556,276.550225 888.944444,301.383559 888.944444,332.105781 L888.944444,387.661336 C888.944444,418.383559 864.055556,443.216892 833.388889,443.216892 L527.833333,443.216892 L527.833333,334.272447 L527.833333,276.550225 L472.277778,276.550225 L472.277778,334.328003 L472.277778,443.216892 L166.666667,443.216892 C136,443.216892 111.111111,418.383559 111.111111,387.661336 L111.111111,332.105781 C111.111111,301.383559 136,276.550225 166.666667,276.550225 L321.944444,276.550225 C272.833333,222.383559 258.888889,160.216892 290.722222,128.383559 C324.222222,94.6613364 391.888889,111.661336 447.888889,167.661336 C474.833333,194.605781 492.5,224.272447 500.055556,251.550225 C507.555556,224.272447 525.222222,194.605781 552.222222,167.605781 C608.222222,111.550225 675.944444,94.7724475 709.388889,128.328003 C741.166667,160.216892 727.166667,222.439114 678.111111,276.550225 L833.388889,276.550225 Z M166.694444,832.100225 L166.694444,498.766892 L472.25,498.766892 L472.25,887.655781 L222.25,887.655781 C191.527778,887.655781 166.694444,862.822447 166.694444,832.100225 Z M527.805556,887.655781 L527.805556,498.766892 L833.361111,498.766892 L833.361111,832.100225 C833.361111,862.822447 808.527778,887.655781 777.805556,887.655781 L527.805556,887.655781 Z"></path>
            </g>
        </g>
    </g>
</svg>