<?xml version="1.0" encoding="UTF-8"?>
<svg width="1000px" height="1000px" viewBox="0 0 1000 1000" version="1.1" xmlns="http://www.w3.org/2000/svg" xmlns:xlink="http://www.w3.org/1999/xlink">
    <!-- Generator: sketchtool 53.2 (72643) - https://sketchapp.com -->
    <title>printer</title>
    <desc>Created with sketchtool.</desc>
    <g id="icons" stroke="none" stroke-width="1" fill="none" fill-rule="evenodd">
        <g id="printer" fill="#323233">
            <g id="直角-打印方案">
                <path d="M833.333333,777.777778 L833.333333,611.111111 L166.666667,611.111111 L166.666667,777.777778 L111.111111,777.777778 C80.428625,777.777778 55.5555556,752.904708 55.5555556,722.222222 L55.5555556,388.888889 C55.5555556,358.206403 80.428625,333.333333 111.111111,333.333333 L888.888889,333.333333 C919.571375,333.333333 944.444444,358.206403 944.444444,388.888889 L944.444444,722.222222 C944.444444,752.904708 919.571375,777.777778 888.888889,777.777778 L833.333333,777.777778 Z M222.222222,111.111111 L777.777778,111.111111 C808.460264,111.111111 833.333333,135.984181 833.333333,166.666667 L833.333333,277.777778 L166.666667,277.777778 L166.666667,166.666667 C166.666667,135.984181 191.539736,111.111111 222.222222,111.111111 Z M819.444444,500 C842.456309,500 861.111111,481.345198 861.111111,458.333333 C861.111111,435.321469 842.456309,416.666667 819.444444,416.666667 C796.43258,416.666667 777.777778,435.321469 777.777778,458.333333 C777.777778,481.345198 796.43258,500 819.444444,500 Z M222.222222,666.666667 L777.777778,666.666667 L777.777778,833.333333 C777.777778,864.015819 752.904708,888.888889 722.222222,888.888889 L277.777778,888.888889 C247.095292,888.888889 222.222222,864.015819 222.222222,833.333333 L222.222222,666.666667 Z" id="Combined-Shape"></path>
            </g>
        </g>
    </g>
</svg>