<svg xmlns="http://www.w3.org/2000/svg" width="200" height="200" viewBox="0 0 200 200">
  <metadata><?xpacket begin="﻿" id="W5M0MpCehiHzreSzNTczkc9d"?>
<x:xmpmeta xmlns:x="adobe:ns:meta/" x:xmptk="Adobe XMP Core 5.6-c138 79.159824, 2016/09/14-01:09:01        ">
   <rdf:RDF xmlns:rdf="http://www.w3.org/1999/02/22-rdf-syntax-ns#">
      <rdf:Description rdf:about=""/>
   </rdf:RDF>
</x:xmpmeta>
                                                                                                    
                                                                                                    
                                                                                                    
                                                                                                    
                                                                                                    
                                                                                                    
                                                                                                    
                                                                                                    
                                                                                                    
                                                                                                    
                                                                                                    
                                                                                                    
                                                                                                    
                                                                                                    
                                                                                                    
                                                                                                    
                                                                                                    
                                                                                                    
                                                                                                    
                                                                                                    
                           
<?xpacket end="w"?></metadata>
<defs>
    <style>
      .cls-1 {
        fill: #0e9eff;
      }

      .cls-1, .cls-2 {
        stroke: #005792;
        stroke-linejoin: round;
        stroke-width: 2px;
        fill-rule: evenodd;
      }

      .cls-2 {
        fill: #fff;
      }
    </style>
  </defs>
  <path id="形状_1" data-name="形状 1" class="cls-1" d="M184.234,87.887L115.986,16.839a22.1,22.1,0,0,0-31.97,0L15.767,87.887c-7.042,7.334-6.135,13.672-4.971,16.32,0.829,1.878,3.63,7.042,11.7,7.042h10v54.658C32.5,178.316,41.41,190,54.073,190H83.125V132.157c0-6.2-.94-9.657,5.394-9.657h22.961c6.333,0,5.4,3.455,5.4,9.657V190H145.93c12.662,0,21.57-11.684,21.57-24.093V111.249h10c8.067,0,10.871-5.164,11.7-7.042,1.166-2.647,2.07-8.986-4.972-16.32h0Z"/>
  <path id="圆角矩形_5_拷贝" data-name="圆角矩形 5 拷贝" class="cls-2" d="M74.286,70h51.428a8.571,8.571,0,1,1,0,17.143H74.286A8.571,8.571,0,0,1,74.286,70ZM100,44.286a8.571,8.571,0,0,1,8.571,8.571v51.429a8.571,8.571,0,0,1-17.142,0V52.857A8.571,8.571,0,0,1,100,44.286Z"/>
</svg>
