<?xml version="1.0" encoding="UTF-8"?>
<svg width="1000px" height="1000px" viewBox="0 0 1000 1000" version="1.1" xmlns="http://www.w3.org/2000/svg" xmlns:xlink="http://www.w3.org/1999/xlink">
    <!-- Generator: sketchtool 53.2 (72643) - https://sketchapp.com -->
    <title>refund-o</title>
    <desc>Created with sketchtool.</desc>
    <g id="icons" stroke="none" stroke-width="1" fill="none" fill-rule="evenodd">
        <g id="refund-o">
            <g id="圆角-退款">
                <path d="M555.555556,833.333333 C739.650472,833.333333 888.888889,684.094917 888.888889,500 C888.888889,315.905083 739.650472,166.666667 555.555556,166.666667 C371.460639,166.666667 222.222222,315.905083 222.222222,500 C222.222222,684.094917 371.460639,833.333333 555.555556,833.333333 Z M124.058342,689.71738 C121.247896,687.964609 118.705714,685.675944 116.591705,682.873771 L31.1763945,569.653556 C21.9370607,557.406579 24.3752374,539.988482 36.6222146,530.749148 C48.8691917,521.509815 66.2872882,523.947991 75.526622,536.194968 L85.6345905,549.593344 C84.105065,533.190774 83.3333333,516.646638 83.3333333,500 C83.3333333,417.525625 102.286694,337.700259 138.209027,265.415759 C145.036381,251.677456 161.708141,246.075025 175.446444,252.90238 C189.184747,259.729734 194.787178,276.401493 187.959823,290.139797 C155.834384,354.784018 138.888889,426.152913 138.888889,500 C138.888889,554.301282 148.045165,607.31242 165.752059,657.409831 C170.864468,671.874167 163.283234,687.744254 148.818898,692.856663 C140.208189,695.900112 131.099296,694.445067 124.058342,689.71738 Z M555.555556,888.888889 C340.778153,888.888889 166.666667,714.777403 166.666667,500 C166.666667,285.222597 340.778153,111.111111 555.555556,111.111111 C770.332958,111.111111 944.444444,285.222597 944.444444,500 C944.444444,714.777403 770.332958,888.888889 555.555556,888.888889 Z M527.157371,409.876219 L576.510707,409.876219 L638.888889,301.834039 C646.55951,288.548133 663.548133,283.996045 676.834039,291.666667 C690.119945,299.337288 694.672033,316.325911 687.001411,329.611817 L640.660737,409.876219 L701.542886,409.876219 C716.884129,409.876219 729.320663,422.312754 729.320663,437.653997 C729.320663,452.99524 716.884129,465.431774 701.542886,465.431774 L590.431774,465.431774 L590.431774,520.98733 L701.542886,520.98733 C716.884129,520.98733 729.320663,533.423865 729.320663,548.765108 C729.320663,564.106351 716.884129,576.542886 701.542886,576.542886 L590.431774,576.542886 L590.431774,687.653997 C590.431774,702.99524 577.99524,715.431774 562.653997,715.431774 C547.312754,715.431774 534.876219,702.99524 534.876219,687.653997 L534.876219,576.542886 L423.765108,576.542886 C408.423865,576.542886 395.98733,564.106351 395.98733,548.765108 C395.98733,533.423865 408.423865,520.98733 423.765108,520.98733 L534.876219,520.98733 L534.876219,465.431774 L423.765108,465.431774 C408.423865,465.431774 395.98733,452.99524 395.98733,437.653997 C395.98733,422.312754 408.423865,409.876219 423.765108,409.876219 L463.007341,409.876219 L416.666667,329.611817 C408.996045,316.325911 413.548133,299.337288 426.834039,291.666667 C440.119945,283.996045 457.108568,288.548133 464.779189,301.834039 L527.157371,409.876219 Z" id="Combined-Shape" fill="#323233" fill-rule="nonzero"></path>
                <g id="Group-5" transform="translate(347.222222, 277.777778)"></g>
            </g>
        </g>
    </g>
</svg>