<?xml version="1.0" encoding="UTF-8"?>
<svg width="1000px" height="1000px" viewBox="0 0 1000 1000" version="1.1" xmlns="http://www.w3.org/2000/svg" xmlns:xlink="http://www.w3.org/1999/xlink">
    <!-- Generator: sketchtool 53.2 (72643) - https://sketchapp.com -->
    <title>replay</title>
    <desc>Created with sketchtool.</desc>
    <g id="icons" stroke="none" stroke-width="1" fill="none" fill-rule="evenodd">
        <g id="replay" fill="#323233" fill-rule="nonzero">
            <g id="Replay">
                <path d="M531.788651,153.804377 L531.788651,97.1344838 C531.788651,74.9485009 556.514914,61.7154066 574.974767,74.0219757 L741.641434,185.133087 C758.134019,196.128144 758.134019,220.363046 741.641434,231.358103 L574.974767,342.469214 C556.514914,354.775783 531.788651,341.542689 531.788651,319.356706 L531.788651,218.861022 C388.795065,205.772756 249.346127,289.565721 197.92471,430.844904 C136.709545,599.032188 223.427581,784.999616 391.614865,846.214781 C559.802148,907.429946 745.769577,820.71191 806.984742,652.524626 C813.239337,635.340266 818.001826,617.845809 821.271681,600.162397 C821.460963,599.138757 821.673335,598.125216 821.90816,597.122211 C822.189307,594.614426 822.769904,592.099694 823.671164,589.623502 C829.792681,572.804774 848.389424,564.13297 865.208152,570.254487 C882.026881,576.376003 890.698684,594.972746 884.577168,611.791475 C881.119848,632.9642 875.443644,653.94118 867.890745,674.692599 C794.432547,876.517339 571.271633,980.578982 369.446892,907.120784 C167.622152,833.662586 63.5605085,610.501672 137.018707,408.676932 C198.020946,241.074656 362.26145,140.891949 531.788651,153.804377 Z" id="合并形状"></path>
            </g>
        </g>
    </g>
</svg>