<?xml version="1.0" encoding="UTF-8"?>
<svg width="1000px" height="1000px" viewBox="0 0 1000 1000" version="1.1" xmlns="http://www.w3.org/2000/svg" xmlns:xlink="http://www.w3.org/1999/xlink">
    <!-- Generator: sketchtool 53.2 (72643) - https://sketchapp.com -->
    <title>scan</title>
    <desc>Created with sketchtool.</desc>
    <g id="icons" stroke="none" stroke-width="1" fill="none" fill-rule="evenodd">
        <g id="scan" fill="#323233" fill-rule="nonzero">
            <g id="直角-扫一扫" transform="translate(111.000000, 111.000000)">
                <path d="M0.111111111,194.555556 L0.111111111,55.6666667 C0.111111111,24.9841806 24.9841806,0.111111111 55.6666667,0.111111111 L194.555556,0.111111111 C209.896799,0.111111111 222.333333,12.5476458 222.333333,27.8888889 C222.333333,43.2301319 209.896799,55.6666667 194.555556,55.6666667 L55.6666667,55.6666667 L55.6666667,194.555556 C55.6666667,209.896799 43.2301319,222.333333 27.8888889,222.333333 C12.5476458,222.333333 0.111111111,209.896799 0.111111111,194.555556 Z M55.6666667,583.444444 L55.6666667,722.333333 L194.555556,722.333333 C209.896799,722.333333 222.333333,734.769868 222.333333,750.111111 C222.333333,765.452354 209.896799,777.888889 194.555556,777.888889 L55.6666667,777.888889 C24.9841806,777.888889 0.111111111,753.015819 0.111111111,722.333333 L0.111111111,583.444444 C0.111111111,568.103201 12.5476458,555.666667 27.8888889,555.666667 C43.2301319,555.666667 55.6666667,568.103201 55.6666667,583.444444 Z M722.333333,194.555556 L722.333333,55.6666667 L583.444444,55.6666667 C568.103201,55.6666667 555.666667,43.2301319 555.666667,27.8888889 C555.666667,12.5476458 568.103201,0.111111111 583.444444,0.111111111 L722.333333,0.111111111 C753.015819,0.111111111 777.888889,24.9841806 777.888889,55.6666667 L777.888889,194.555556 C777.888889,209.896799 765.452354,222.333333 750.111111,222.333333 C734.769868,222.333333 722.333333,209.896799 722.333333,194.555556 Z M777.888889,583.444444 L777.888889,722.333333 C777.888889,753.015819 753.015819,777.888889 722.333333,777.888889 L583.444444,777.888889 C568.103201,777.888889 555.666667,765.452354 555.666667,750.111111 C555.666667,734.769868 568.103201,722.333333 583.444444,722.333333 L722.333333,722.333333 L722.333333,583.444444 C722.333333,568.103201 734.769868,555.666667 750.111111,555.666667 C765.452354,555.666667 777.888889,568.103201 777.888889,583.444444 Z" id="Shape"></path>
                <path d="M27.8888889,361.222222 L750.111111,361.222222 C765.452354,361.222222 777.888889,373.658757 777.888889,389 C777.888889,404.341243 765.452354,416.777778 750.111111,416.777778 L27.8888889,416.777778 C12.5476458,416.777778 0.111111111,404.341243 0.111111111,389 C0.111111111,373.658757 12.5476458,361.222222 27.8888889,361.222222 Z" id="Rectangle-29"></path>
            </g>
        </g>
    </g>
</svg>