<?xml version="1.0" encoding="UTF-8"?>
<svg width="1000px" height="1000px" viewBox="0 0 1000 1000" version="1.1" xmlns="http://www.w3.org/2000/svg" xmlns:xlink="http://www.w3.org/1999/xlink">
    <!-- Generator: sketchtool 53.2 (72643) - https://sketchapp.com -->
    <title>search</title>
    <desc>Created with sketchtool.</desc>
    <g id="icons" stroke="none" stroke-width="1" fill="none" fill-rule="evenodd">
        <g id="search" fill="#333333" fill-rule="nonzero">
            <g id="圆角-搜索">
                <path d="M402.785209,654.797172 C540.856396,654.797172 652.785209,542.86836 652.785209,404.797172 C652.785209,266.725985 540.856396,154.797172 402.785209,154.797172 C264.714021,154.797172 152.785209,266.725985 152.785209,404.797172 C152.785209,542.86836 264.714021,654.797172 402.785209,654.797172 Z M638.963849,598.676684 L888.642468,848.355303 C899.490365,859.2032 899.490365,876.791116 888.642468,887.639013 C877.794571,898.48691 860.206655,898.48691 849.358758,887.639013 L599.953778,638.234034 C546.738087,683.22732 477.929387,710.352728 402.785209,710.352728 C234.031535,710.352728 97.2296534,573.550846 97.2296534,404.797172 C97.2296534,236.043499 234.031535,99.2416169 402.785209,99.2416169 C571.538882,99.2416169 708.340764,236.043499 708.340764,404.797172 C708.340764,478.402424 682.315018,545.929036 638.963849,598.676684 Z" id="Shape"></path>
            </g>
        </g>
    </g>
</svg>