<?xml version="1.0" encoding="UTF-8"?>
<svg width="1000px" height="1000px" viewBox="0 0 1000 1000" version="1.1" xmlns="http://www.w3.org/2000/svg" xmlns:xlink="http://www.w3.org/1999/xlink">
    <!-- Generator: sketchtool 53.2 (72643) - https://sketchapp.com -->
    <title>send-gift-o</title>
    <desc>Created with sketchtool.</desc>
    <g id="icons" stroke="none" stroke-width="1" fill="none" fill-rule="evenodd">
        <g id="send-gift-o">
            <g id="圆角-已发货-线"></g>
            <g transform="translate(111.000000, 95.000000)" fill="#000000" fill-rule="nonzero" id="Shape">
                <path d="M0.620744212,111.553139 L40.7568208,31.2809845 C50.1526389,12.4899171 69.3586287,0.620004743 90.3678079,0.619817116 L687.413922,0.619817116 C708.423101,0.620004743 727.629091,12.4899171 737.024909,31.2809845 L777.160985,111.553139 L777.162982,721.692399 C777.162982,752.326609 752.329533,777.160058 721.695323,777.160058 L56.0884035,777.160058 C25.4541932,777.160058 0.620744212,752.326609 0.620744212,721.692399 L0.620744212,111.553139 Z M62.6349766,111.553139 L715.147751,111.553139 L687.413922,56.086478 L90.3688063,56.086478 L62.6349766,111.553139 Z M222.489384,167.020798 L56.0884035,167.020798 L56.0884035,721.692399 L721.694324,721.692399 L721.694324,167.020798 L555.293343,167.020798 L555.293343,499.824757 L388.891364,435.757794 L222.489384,499.824757 L222.489384,167.020798 Z M499.825684,167.020798 L277.958042,167.020798 L277.958042,419.032432 L388.891364,376.322454 L499.825684,419.032432 L499.825684,167.020798 Z"></path>
            </g>
        </g>
    </g>
</svg>