<?xml version="1.0" encoding="UTF-8"?>
<svg width="1000px" height="1000px" viewBox="0 0 1000 1000" version="1.1" xmlns="http://www.w3.org/2000/svg" xmlns:xlink="http://www.w3.org/1999/xlink">
    <!-- Generator: sketchtool 53.2 (72643) - https://sketchapp.com -->
    <title>send-gift</title>
    <desc>Created with sketchtool.</desc>
    <g id="icons" stroke="none" stroke-width="1" fill="none" fill-rule="evenodd">
        <g id="send-gift" fill="#323233">
            <g id="Fill-4">
                <path d="M111.111111,833.333333 L111.111111,277.777778 L888.888889,277.777778 L888.888889,833.333333 C888.888889,864.055556 864.055556,888.888889 833.333333,888.888889 L166.666667,888.888889 C135.944444,888.888889 111.111111,864.055556 111.111111,833.333333 Z M333.333333,333.333333 L333.333333,651.277778 C333.333333,658.833333 340.777778,664.166667 348,661.777778 L482.444444,616.944444 C493.833333,613.166667 506.166667,613.166667 517.555556,616.944444 L652,661.777778 C659.222222,664.166667 666.666667,658.833333 666.666667,651.277778 L666.666667,333.333333 L333.333333,333.333333 Z M848.688889,141.816667 L888.911111,222.205556 L111.133333,222.205556 L151.3,141.816667 C160.688889,122.983333 179.966667,111.094444 201.022222,111.094444 L798.966667,111.094444 C820.022222,111.094444 839.3,122.983333 848.688889,141.816667 Z"></path>
            </g>
        </g>
    </g>
</svg>