<?xml version="1.0" encoding="UTF-8"?>
<svg width="1000px" height="1000px" viewBox="0 0 1000 1000" version="1.1" xmlns="http://www.w3.org/2000/svg" xmlns:xlink="http://www.w3.org/1999/xlink">
    <!-- Generator: sketchtool 53.2 (72643) - https://sketchapp.com -->
    <title>service</title>
    <desc>Created with sketchtool.</desc>
    <g id="icons" stroke="none" stroke-width="1" fill="none" fill-rule="evenodd">
        <g id="service" fill="#323233" fill-rule="nonzero">
            <g id="分组-2">
                <g transform="translate(111.111111, 55.555556)">
                    <path d="M111.111111,388.888889 C141.793597,388.888889 166.666667,413.761958 166.666667,444.444444 L166.666667,666.666667 C166.666667,697.349153 141.793597,722.222222 111.111111,722.222222 L55.5555556,722.222222 C24.8730695,722.222222 0,697.349153 0,666.666667 L0,388.888889 L111.111111,388.888889 Z M666.666667,388.888889 L777.777778,388.888889 L777.777778,666.666667 C777.777778,697.349153 752.904708,722.222222 722.222222,722.222222 L666.666667,722.222222 C635.984181,722.222222 611.111111,697.349153 611.111111,666.666667 L611.111111,444.444444 C611.111111,413.761958 635.984181,388.888889 666.666667,388.888889 Z M722.222222,611.110856 C722.222363,595.769613 734.659012,583.333192 750.000255,583.333333 C765.341498,583.333474 777.777919,595.770123 777.777778,611.111366 L777.776114,713.126419 C776.956009,826.42183 723.664303,889.17372 623.911209,889.17372 L416.898249,889.17372 C401.557006,889.17372 389.120471,876.737185 389.120471,861.395942 C389.120471,846.054699 401.557006,833.618164 416.898249,833.618164 L623.911209,833.618164 C690.842288,833.618164 721.609151,797.389659 722.221286,712.925096 L722.222222,611.110856 Z M55.5555556,388.888889 L0,388.888889 C0,174.111486 174.111486,0 388.888889,0 C603.666292,0 777.777778,174.111486 777.777778,388.888889 L722.222222,388.888889 C722.222222,204.793972 572.983805,55.5555556 388.888889,55.5555556 C204.793972,55.5555556 55.5555556,204.793972 55.5555556,388.888889 Z" id="路径-3"></path>
                </g>
            </g>
        </g>
    </g>
</svg>