<?xml version="1.0" encoding="UTF-8"?>
<svg width="1000px" height="1000px" viewBox="0 0 1000 1000" version="1.1" xmlns="http://www.w3.org/2000/svg" xmlns:xlink="http://www.w3.org/1999/xlink">
    <!-- Generator: sketchtool 53.2 (72643) - https://sketchapp.com -->
    <title>shop-o</title>
    <desc>Created with sketchtool.</desc>
    <defs>
        <path d="M166.555714,557.062346 C132.650983,529.411204 111,487.30597 111,440.143878 C111,417.661681 115.96086,395.795806 125.358387,375.871107 L160.277938,236.192903 C166.460831,211.461332 188.682178,194.111429 214.174898,194.111429 L785.605102,194.111429 C811.097822,194.111429 833.319169,211.461332 839.502062,236.192903 L874.421613,375.871107 C883.81914,395.795806 888.78,417.661681 888.78,440.143878 C888.78,487.30597 867.129017,529.411204 833.224286,557.062346 L833.224286,874.668929 C833.224286,897.680859 814.56943,916.335714 791.5575,916.335714 L208.2225,916.335714 C185.21057,916.335714 166.555714,897.680859 166.555714,874.668929 L166.555714,557.062346 L166.555714,557.062346 Z M222.111429,585.662074 L222.111429,860.78 L777.668571,860.78 L777.668571,585.662074 C765.024538,589.10198 751.719636,590.937959 737.985918,590.937959 C689.596337,590.937959 646.53027,568.145289 618.937959,532.710191 C591.345649,568.145289 548.279581,590.937959 499.89,590.937959 C451.500419,590.937959 408.434351,568.145289 380.842041,532.710191 C353.24973,568.145289 310.183663,590.937959 261.794082,590.937959 C248.060364,590.937959 234.755462,589.10198 222.111429,585.662074 L222.111429,585.662074 Z M222.111429,83 L777.668571,83 C793.009858,83 805.446429,95.4365703 805.446429,110.777857 C805.446429,126.119144 793.009858,138.555714 777.668571,138.555714 L222.111429,138.555714 C206.770142,138.555714 194.333571,126.119144 194.333571,110.777857 C194.333571,95.4365703 206.770142,83 222.111429,83 Z M822.001103,395.251146 L785.605102,249.667143 L214.174898,249.667143 L177.778897,395.251146 C170.616991,408.626397 166.555714,423.910856 166.555714,440.143878 C166.555714,492.742575 209.195384,535.382245 261.794082,535.382245 C314.39278,535.382245 357.032449,492.742575 357.032449,440.143878 L404.651633,440.143878 C404.651633,492.742575 447.291302,535.382245 499.89,535.382245 C552.488698,535.382245 595.128367,492.742575 595.128367,440.143878 L642.747551,440.143878 C642.747551,492.742575 685.38722,535.382245 737.985918,535.382245 C790.584616,535.382245 833.224286,492.742575 833.224286,440.143878 C833.224286,423.910856 829.163009,408.626397 822.001103,395.251146 Z" id="path-1"></path>
    </defs>
    <g id="icons" stroke="none" stroke-width="1" fill="none" fill-rule="evenodd">
        <g id="shop-o">
            <mask id="mask-2" fill="white">
                <use xlink:href="#path-1"></use>
            </mask>
            <use id="Shape" fill="#000000" xlink:href="#path-1"></use>
        </g>
    </g>
</svg>