<?xml version="1.0" encoding="UTF-8"?>
<svg width="1000px" height="1000px" viewBox="0 0 1000 1000" version="1.1" xmlns="http://www.w3.org/2000/svg" xmlns:xlink="http://www.w3.org/1999/xlink">
    <!-- Generator: sketchtool 53.2 (72643) - https://sketchapp.com -->
    <title>shop-collect</title>
    <desc>Created with sketchtool.</desc>
    <defs>
        <path d="M165.435534,547.50374 C132.21443,520.410134 111,479.153875 111,432.94272 C111,410.913836 115.860833,389.488847 125.068877,369.965894 L159.284338,233.104046 C165.342564,208.871143 187.115858,191.871069 212.094564,191.871069 L772.002916,191.871069 C796.981621,191.871069 818.754915,208.871143 824.813141,233.104046 L859.028603,369.965894 C868.236646,389.488847 873.09748,410.913836 873.09748,432.94272 C873.09748,514.544776 806.945943,580.696313 725.343887,580.696313 C677.929994,580.696313 635.732275,558.363216 608.696313,523.642602 C581.660351,558.363216 539.462633,580.696313 492.04874,580.696313 C444.634847,580.696313 402.437128,558.363216 375.401166,523.642602 C348.365205,558.363216 306.167486,580.696313 258.753593,580.696313 C245.296791,580.696313 232.260158,578.897353 219.871069,575.526807 L219.871069,845.09748 L519.266507,845.09748 C534.298465,845.09748 546.484274,857.283289 546.484274,872.315247 C546.484274,887.347205 534.298465,899.533014 519.266507,899.533014 L206.262185,899.533014 C183.714248,899.533014 165.435534,881.2543 165.435534,858.706363 L165.435534,547.50374 L165.435534,547.50374 Z M219.871069,83 L764.226411,83 C779.258369,83 791.444178,95.1858094 791.444178,110.217767 C791.444178,125.249725 779.258369,137.435534 764.226411,137.435534 L219.871069,137.435534 C204.839111,137.435534 192.653301,125.249725 192.653301,110.217767 C192.653301,95.1858094 204.839111,83 219.871069,83 Z M860.883126,727.720072 L888.100893,727.720072 C888.100893,738.65033 885.696641,749.718573 881.290807,760.900513 C879.580048,765.587176 877.462112,770.268796 871.980096,779.439799 C873.430467,777.505663 873.430467,777.505663 873.638889,777.148492 C873.614549,777.187348 873.614549,777.187348 874.570414,775.527568 L873.917182,776.711912 C874.060878,776.487949 874.060878,776.487949 873.473022,777.6142 C872.120689,780.15471 870.776851,782.515699 869.888647,783.742485 C867.851208,787.129301 865.646544,790.53783 863.279912,793.969919 C850.334451,812.743416 832.696747,832.067918 811.446551,851.774497 C796.596055,865.546251 780.807833,878.74162 764.811557,891.137223 C755.310427,898.499702 737.478336,911.586493 742.318737,907.921461 C735.00112,913.414126 726.164634,916.34 717.109699,916.34 C708.13036,916.34 699.377025,913.518907 691.926926,907.968472 C696.940482,911.750505 678.924039,898.568879 669.445245,891.242776 C653.481114,878.904196 637.739293,865.770401 622.929683,852.04532 C601.023359,831.743227 582.967663,811.82162 569.932677,792.440969 C563.981779,783.593067 559.110046,774.894364 555.359955,766.175323 C555.096478,765.541039 555.096478,765.541039 554.939367,765.140905 C549.553271,752.268872 546.706348,739.756906 546.706348,727.695437 C546.542531,725.665825 546.484274,724.30492 546.484274,722.447988 C546.484274,661.012202 596.19249,611.024682 657.410938,611.024682 C678.847758,611.024682 699.612646,617.376805 717.346389,628.925038 C735.055328,617.375963 755.829595,611.024682 777.291797,611.024682 C838.493814,611.024682 888.218461,661.033441 888.218461,722.447988 C888.174702,724.960049 888.172531,725.084729 888.081347,726.573253 C888.087009,726.867198 888.092957,727.232587 888.100893,727.720072 L860.883126,727.720072 Z" id="path-1"></path>
    </defs>
    <g id="icons" stroke="none" stroke-width="1" fill="none" fill-rule="evenodd">
        <g id="shop-collect">
            <mask id="mask-2" fill="white">
                <use xlink:href="#path-1"></use>
            </mask>
            <use id="Shape" fill="#000000" xlink:href="#path-1"></use>
        </g>
    </g>
</svg>