<?xml version="1.0" encoding="UTF-8"?>
<svg width="1000px" height="1000px" viewBox="0 0 1000 1000" version="1.1" xmlns="http://www.w3.org/2000/svg" xmlns:xlink="http://www.w3.org/1999/xlink">
    <!-- Generator: sketchtool 53.2 (72643) - https://sketchapp.com -->
    <title>shop-collect-o</title>
    <desc>Created with sketchtool.</desc>
    <defs>
        <path d="M165.435534,547.50374 C132.21443,520.410134 111,479.153875 111,432.94272 C111,410.913836 115.860833,389.488847 125.068877,369.965894 L159.284338,233.104046 C165.342564,208.871143 187.115858,191.871069 212.094564,191.871069 L772.002916,191.871069 C796.981621,191.871069 818.754915,208.871143 824.813141,233.104046 L859.028603,369.965894 C868.236646,389.488847 873.09748,410.913836 873.09748,432.94272 C873.09748,514.544776 806.945943,580.696313 725.343887,580.696313 C677.929994,580.696313 635.732275,558.363216 608.696313,523.642602 C581.660351,558.363216 539.462633,580.696313 492.04874,580.696313 C444.634847,580.696313 402.437128,558.363216 375.401166,523.642602 C348.365205,558.363216 306.167486,580.696313 258.753593,580.696313 C245.296791,580.696313 232.260158,578.897353 219.871069,575.526807 L219.871069,845.09748 L519.266507,845.09748 C534.298465,845.09748 546.484274,857.283289 546.484274,872.315247 C546.484274,887.347205 534.298465,899.533014 519.266507,899.533014 L206.262185,899.533014 C183.714248,899.533014 165.435534,881.2543 165.435534,858.706363 L165.435534,547.50374 L165.435534,547.50374 Z M219.871069,83 L764.226411,83 C779.258369,83 791.444178,95.1858094 791.444178,110.217767 C791.444178,125.249725 779.258369,137.435534 764.226411,137.435534 L219.871069,137.435534 C204.839111,137.435534 192.653301,125.249725 192.653301,110.217767 C192.653301,95.1858094 204.839111,83 219.871069,83 Z M807.665058,388.955169 L772.002916,246.306603 L212.094564,246.306603 L176.432422,388.955169 C169.414922,402.060733 165.435534,417.037008 165.435534,432.94272 C165.435534,484.480861 207.215452,526.260779 258.753593,526.260779 C310.291734,526.260779 352.071652,484.480861 352.071652,432.94272 L398.730681,432.94272 C398.730681,484.480861 440.510599,526.260779 492.04874,526.260779 C543.586881,526.260779 585.366799,484.480861 585.366799,432.94272 L632.025828,432.94272 C632.025828,484.480861 673.805746,526.260779 725.343887,526.260779 C776.882027,526.260779 818.661945,484.480861 818.661945,432.94272 C818.661945,417.037008 814.682557,402.060733 807.665058,388.955169 Z M860.883126,727.720072 L888.100893,727.720072 C888.100893,738.65033 885.696641,749.718573 881.290807,760.900513 C879.580048,765.587176 877.462112,770.268796 871.980096,779.439799 C873.430467,777.505663 873.430467,777.505663 873.638889,777.148492 C873.614549,777.187348 873.614549,777.187348 874.570414,775.527568 L873.917182,776.711912 C874.060878,776.487949 874.060878,776.487949 873.473022,777.6142 C872.120689,780.15471 870.776851,782.515699 869.888647,783.742485 C867.851208,787.129301 865.646544,790.53783 863.279912,793.969919 C850.334451,812.743416 832.696747,832.067918 811.446551,851.774497 C796.596055,865.546251 780.807833,878.74162 764.811557,891.137223 C755.310427,898.499702 737.478336,911.586493 742.318737,907.921461 C735.00112,913.414126 726.164634,916.34 717.109699,916.34 C708.13036,916.34 699.377025,913.518907 691.926926,907.968472 C696.940482,911.750505 678.924039,898.568879 669.445245,891.242776 C653.481114,878.904196 637.739293,865.770401 622.929683,852.04532 C601.023359,831.743227 582.967663,811.82162 569.932677,792.440969 C563.981779,783.593067 559.110046,774.894364 555.359955,766.175323 C555.096478,765.541039 555.096478,765.541039 554.939367,765.140905 C549.553271,752.268872 546.706348,739.756906 546.706348,727.695437 C546.542531,725.665825 546.484274,724.30492 546.484274,722.447988 C546.484274,661.012202 596.19249,611.024682 657.410938,611.024682 C678.847758,611.024682 699.612646,617.376805 717.346389,628.925038 C735.055328,617.375963 755.829595,611.024682 777.291797,611.024682 C838.493814,611.024682 888.218461,661.033441 888.218461,722.447988 C888.174702,724.960049 888.172531,725.084729 888.081347,726.573253 C888.087009,726.867198 888.092957,727.232587 888.100893,727.720072 L860.883126,727.720072 Z M830.39331,741.607453 C832.692244,735.761006 833.665358,731.281163 833.665358,727.720072 L860.883126,727.720072 L833.665358,727.720072 C833.670916,728.040434 833.670916,728.040434 833.653267,724.763875 C833.705295,723.894832 833.705295,723.894832 833.740726,723.360144 C833.780384,722.67243 833.780384,722.67243 833.782927,722.447988 C833.782927,691.028148 808.360253,665.460217 777.291797,665.460217 C762.202199,665.460217 747.660642,671.767687 737.02132,682.868939 L717.420235,703.32105 L697.767908,682.918172 C687.034917,671.775272 672.468869,665.460217 657.410938,665.460217 C626.324895,665.460217 600.919808,691.008051 600.919808,722.447988 C600.919808,722.503415 600.971095,724.764191 601.073668,729.230313 C601.108309,728.878084 601.11105,728.850211 601.13516,727.948115 C601.142166,732.013086 602.396215,737.523892 605.149089,744.093419 C605.407741,744.735302 605.505608,744.978175 605.560182,745.116754 C607.824546,750.310713 611.020555,755.992353 615.10218,762.060987 C625.443381,777.436469 640.849172,794.434325 659.931732,812.119441 C673.438937,824.637494 687.968936,836.760237 702.73421,848.172228 C706.669174,851.213537 712.382763,855.483486 717.079911,858.960293 C721.776531,855.473574 727.50127,851.182765 731.46843,848.10859 C746.279713,836.631245 760.869849,824.437203 774.431807,811.860388 C793.002303,794.638855 808.109288,778.0871 818.465899,763.06795 C820.20739,760.542442 821.801253,758.078243 824.071843,754.387965 C824.341458,753.992199 824.485866,753.738488 825.327858,752.232071 C825.854588,751.165449 825.854588,751.165449 826.360055,750.248098 L827.313762,748.593901 C828.509042,746.293437 829.459206,744.144806 830.39331,741.607453 Z" id="path-1"></path>
    </defs>
    <g id="icons" stroke="none" stroke-width="1" fill="none" fill-rule="evenodd">
        <g id="shop-collect-o">
            <mask id="mask-2" fill="white">
                <use xlink:href="#path-1"></use>
            </mask>
            <use id="Shape" fill="#000000" xlink:href="#path-1"></use>
        </g>
    </g>
</svg>