<?xml version="1.0" encoding="UTF-8"?>
<svg width="1000px" height="1000px" viewBox="0 0 1000 1000" version="1.1" xmlns="http://www.w3.org/2000/svg" xmlns:xlink="http://www.w3.org/1999/xlink">
    <!-- Generator: sketchtool 53.2 (72643) - https://sketchapp.com -->
    <title>shrink</title>
    <desc>Created with sketchtool.</desc>
    <g id="icons" stroke="none" stroke-width="1" fill="none" fill-rule="evenodd">
        <g id="shrink" fill="#323233" fill-rule="nonzero">
            <g id="Full-screen">
                <path d="M166.666667,166.666667 L166.666667,833.333333 L833.333333,833.333333 L833.333333,166.666667 L166.666667,166.666667 Z M166.666667,111.111111 L833.333333,111.111111 C864.015819,111.111111 888.888889,135.984181 888.888889,166.666667 L888.888889,833.333333 C888.888889,864.015819 864.015819,888.888889 833.333333,888.888889 L166.666667,888.888889 C135.984181,888.888889 111.111111,864.015819 111.111111,833.333333 L111.111111,166.666667 C111.111111,135.984181 135.984181,111.111111 166.666667,111.111111 Z M650.394821,388.888889 L750,388.888889 C765.341243,388.888889 777.777778,401.325424 777.777778,416.666667 C777.777778,432.00791 765.341243,444.444444 750,444.444444 L583.333333,444.444444 C567.99209,444.444444 555.555556,432.00791 555.555556,416.666667 L555.555556,250 C555.555556,234.658757 567.99209,222.222222 583.333333,222.222222 C598.674576,222.222222 611.111111,234.658757 611.111111,250 L611.111111,349.605179 L730.358145,230.358145 C741.206042,219.510248 758.793958,219.510248 769.641855,230.358145 C780.489752,241.206042 780.489752,258.793958 769.641855,269.641855 L650.394821,388.888889 Z M349.605179,611.111111 L250,611.111111 C234.658757,611.111111 222.222222,598.674576 222.222222,583.333333 C222.222222,567.99209 234.658757,555.555556 250,555.555556 L416.666667,555.555556 C432.00791,555.555556 444.444444,567.99209 444.444444,583.333333 L444.444444,750 C444.444444,765.341243 432.00791,777.777778 416.666667,777.777778 C401.325424,777.777778 388.888889,765.341243 388.888889,750 L388.888889,650.394821 L269.641855,769.641855 C258.793958,780.489752 241.206042,780.489752 230.358145,769.641855 C219.510248,758.793958 219.510248,741.206042 230.358145,730.358145 L349.605179,611.111111 Z" id="形状"></path>
            </g>
        </g>
    </g>
</svg>