<?xml version="1.0" encoding="UTF-8"?>
<svg width="1000px" height="1000px" viewBox="0 0 1000 1000" version="1.1" xmlns="http://www.w3.org/2000/svg" xmlns:xlink="http://www.w3.org/1999/xlink">
    <!-- Generator: sketchtool 53.2 (72643) - https://sketchapp.com -->
    <title>smile-comment-o</title>
    <desc>Created with sketchtool.</desc>
    <g id="icons" stroke="none" stroke-width="1" fill="none" fill-rule="evenodd">
        <g id="smile-comment-o" fill="#323233" fill-rule="nonzero">
            <g id="直角-商家社区-线">
                <g transform="translate(111.111111, 111.111111)" id="Shape">
                    <path d="M230.512163,611.111111 L722.222222,611.111111 L722.222222,55.5555556 L55.5555556,55.5555556 L55.5555556,611.111111 L166.666667,611.111111 L166.666667,662.187508 L230.512163,611.111111 Z M250,666.666667 L111.111111,777.777778 L111.111111,666.666667 L55.5555556,666.666667 C24.8730695,666.666667 0,641.793597 0,611.111111 L0,55.5555556 C0,24.8730695 24.8730695,0 55.5555556,0 L722.222222,0 C752.904708,0 777.777778,24.8730695 777.777778,55.5555556 L777.777778,611.111111 C777.777778,641.793597 752.904708,666.666667 722.222222,666.666667 L250,666.666667 Z M549.527676,333.333333 L549.603175,333.333333 C549.603175,425.380792 476.316452,500 385.912698,500 C295.621546,500 222.404811,425.566558 222.222563,333.677197 L222.222222,333.53809 C222.222222,318.196847 234.658757,305.760312 250,305.760312 C265.272933,305.760312 277.666968,318.086341 277.777039,333.333333 C277.777778,394.920135 326.417725,444.444444 385.912698,444.444444 C444.762654,444.444444 492.991678,395.988155 494.030516,335.332122 C493.992221,334.735219 493.972778,334.133186 493.972778,333.526611 C493.972778,318.185368 506.409313,305.748834 521.750556,305.748834 C537.027322,305.748834 549.423744,318.081049 549.527676,333.333333 L549.527676,333.333333 Z M250,166.666667 C265.341243,166.666667 277.777778,179.103201 277.777778,194.444444 C277.777778,209.785687 265.341243,222.222222 250,222.222222 C234.658757,222.222222 222.222222,209.785687 222.222222,194.444444 C222.222222,179.103201 234.658757,166.666667 250,166.666667 Z M527.777778,166.666667 C543.119021,166.666667 555.555556,179.103201 555.555556,194.444444 C555.555556,209.785687 543.119021,222.222222 527.777778,222.222222 C512.436535,222.222222 500,209.785687 500,194.444444 C500,179.103201 512.436535,166.666667 527.777778,166.666667 L527.777778,166.666667 Z"></path>
                </g>
            </g>
        </g>
    </g>
</svg>