<?xml version="1.0" encoding="UTF-8"?>
<svg width="1000px" height="1000px" viewBox="0 0 1000 1000" version="1.1" xmlns="http://www.w3.org/2000/svg" xmlns:xlink="http://www.w3.org/1999/xlink">
    <!-- Generator: sketchtool 53.2 (72643) - https://sketchapp.com -->
    <title>smile</title>
    <desc>Created with sketchtool.</desc>
    <g id="icons" stroke="none" stroke-width="1" fill="none" fill-rule="evenodd">
        <g id="smile" fill="#323233">
            <path d="M500,944.444444 C254.540111,944.444444 55.5555556,745.459889 55.5555556,500 C55.5555556,254.540111 254.540111,55.5555556 500,55.5555556 C745.459889,55.5555556 944.444444,254.540111 944.444444,500 C944.444444,745.459889 745.459889,944.444444 500,944.444444 Z M347.001764,440.476198 C373.301039,440.476198 394.620813,419.156423 394.620813,392.857149 C394.620813,366.557875 373.301039,345.238101 347.001764,345.238101 C320.70249,345.238101 299.382716,366.557875 299.382716,392.857149 C299.382716,419.156423 320.70249,440.476198 347.001764,440.476198 Z M655.64374,440.476198 C681.943014,440.476198 703.262788,419.156423 703.262788,392.857149 C703.262788,366.557875 681.943014,345.238101 655.64374,345.238101 C629.344465,345.238101 608.024691,366.557875 608.024691,392.857149 C608.024691,419.156423 629.344465,440.476198 655.64374,440.476198 Z M684.631892,549.605771 C657.536991,626.264298 584.827297,678.571429 502.179635,678.571429 C419.531972,678.571429 346.822279,626.264298 319.727378,549.605771 C314.249796,534.108269 297.246131,525.985517 281.748629,531.463099 C266.251126,536.94068 258.128375,553.944345 263.605956,569.441848 C299.044117,669.705627 394.109313,738.095238 502.179635,738.095238 C610.249957,738.095238 705.315153,669.705627 740.753314,569.441848 C746.230895,553.944345 738.108144,536.94068 722.610641,531.463099 C707.113138,525.985517 690.109473,534.108269 684.631892,549.605771 Z" id="Combined-Shape"></path>
        </g>
    </g>
</svg>