<?xml version="1.0" encoding="UTF-8"?>
<svg width="1000px" height="1000px" viewBox="0 0 1000 1000" version="1.1" xmlns="http://www.w3.org/2000/svg" xmlns:xlink="http://www.w3.org/1999/xlink">
    <!-- Generator: sketchtool 53.2 (72643) - https://sketchapp.com -->
    <title>smile-comment</title>
    <desc>Created with sketchtool.</desc>
    <g id="icons" stroke="none" stroke-width="1" fill="none" fill-rule="evenodd">
        <g id="smile-comment" fill="#323233" fill-rule="nonzero">
            <g id="直角-商家社区-线">
                <g transform="translate(111.111111, 111.111111)" id="Shape">
                    <path d="M250,666.666667 L111.111111,777.777778 L111.111111,666.666667 L55.5555556,666.666667 C24.8730695,666.666667 0,641.793597 0,611.111111 L0,55.5555556 C0,24.8730695 24.8730695,0 55.5555556,0 L722.222222,0 C752.904708,0 777.777778,24.8730695 777.777778,55.5555556 L777.777778,611.111111 C777.777778,641.793597 752.904708,666.666667 722.222222,666.666667 L250,666.666667 Z M549.527676,333.333333 C549.423744,318.081049 537.027322,305.748834 521.750556,305.748834 C506.409313,305.748834 493.972778,318.185368 493.972778,333.526611 C493.972778,334.133186 493.992221,334.735219 494.030516,335.332122 C492.991678,395.988155 444.762654,444.444444 385.912698,444.444444 C326.417725,444.444444 277.777778,394.920135 277.777039,333.333333 C277.666968,318.086341 265.272933,305.760312 250,305.760312 C234.658757,305.760312 222.222222,318.196847 222.222222,333.53809 L222.222563,333.677197 C222.404811,425.566558 295.621546,500 385.912698,500 C476.316452,500 549.603175,425.380792 549.603175,333.333333 L549.527676,333.333333 L549.527676,333.333333 Z M250,166.666667 C234.658757,166.666667 222.222222,179.103201 222.222222,194.444444 C222.222222,209.785687 234.658757,222.222222 250,222.222222 C265.341243,222.222222 277.777778,209.785687 277.777778,194.444444 C277.777778,179.103201 265.341243,166.666667 250,166.666667 Z M527.777778,166.666667 C512.436535,166.666667 500,179.103201 500,194.444444 C500,209.785687 512.436535,222.222222 527.777778,222.222222 C543.119021,222.222222 555.555556,209.785687 555.555556,194.444444 C555.555556,179.103201 543.119021,166.666667 527.777778,166.666667 L527.777778,166.666667 Z"></path>
                </g>
            </g>
        </g>
    </g>
</svg>