<?xml version="1.0" encoding="UTF-8"?>
<svg width="1000px" height="1000px" viewBox="0 0 1000 1000" version="1.1" xmlns="http://www.w3.org/2000/svg" xmlns:xlink="http://www.w3.org/1999/xlink">
    <!-- Generator: sketchtool 53.2 (72643) - https://sketchapp.com -->
    <title>star-o</title>
    <desc>Created with sketchtool.</desc>
    <g id="icons" stroke="none" stroke-width="1" fill="none" fill-rule="evenodd">
        <g id="star-o" fill="#323233" fill-rule="nonzero">
            <g id="收藏">
                <path d="M703.801456,621.774663 L870.548101,435.157179 L625.956226,382.191683 L500,165.938225 L374.043774,382.191683 L129.451899,435.157179 L296.198544,621.774663 L270.988679,870.762597 L500,769.845087 L729.011321,870.762597 L703.801456,621.774663 Z M500,830.555556 L249.749392,940.832498 C235.710771,947.018841 219.315197,940.653312 213.128854,926.614691 C211.191573,922.218435 210.427599,917.394889 210.911544,912.615149 L238.459458,640.535229 L56.2481631,436.610207 C46.0264281,425.17037 47.013895,407.610196 58.4537321,397.388461 C62.036167,394.18748 66.3875506,391.97034 71.0829011,390.953578 L338.359056,333.075882 L475.99689,96.7663454 C483.718132,83.5097937 500.723993,79.0225384 513.980545,86.7437801 C518.131892,89.1617207 521.58517,92.6149983 524.00311,96.7663454 L661.640944,333.075882 L928.917099,390.953578 C943.910824,394.200416 953.433557,408.987313 950.18672,423.981038 C949.169959,428.676389 946.952818,433.027772 943.751837,436.610207 L761.540542,640.535229 L789.088456,912.615149 C790.633846,927.878357 779.513357,941.504417 764.250149,943.049807 C759.470409,943.533753 754.646863,942.769778 750.250608,940.832498 L500,830.555556 Z" id="Star-Copy"></path>
            </g>
        </g>
    </g>
</svg>