<?xml version="1.0" encoding="UTF-8"?>
<svg width="1000px" height="1000px" viewBox="0 0 1000 1000" version="1.1" xmlns="http://www.w3.org/2000/svg" xmlns:xlink="http://www.w3.org/1999/xlink">
    <!-- Generator: sketchtool 53.2 (72643) - https://sketchapp.com -->
    <title>star</title>
    <desc>Created with sketchtool.</desc>
    <g id="icons" stroke="none" stroke-width="1" fill="none" fill-rule="evenodd">
        <g id="star" fill="#323233">
            <g id="收藏">
                <path d="M500,817.590982 L249.749392,927.867924 C235.710771,934.054268 219.315197,927.688739 213.128854,913.650117 C211.191573,909.253862 210.427599,904.430316 210.911544,899.650576 L238.459458,627.570655 L56.2481631,423.645634 C46.0264281,412.205797 47.013895,394.645623 58.4537321,384.423888 C62.036167,381.222907 66.3875506,379.005766 71.0829011,377.989005 L338.359056,320.111309 L475.99689,83.8017718 C483.718132,70.5452201 500.723993,66.0579648 513.980545,73.7792066 C518.131892,76.1971472 521.58517,79.6504247 524.00311,83.8017718 L661.640944,320.111309 L928.917099,377.989005 C943.910824,381.235842 953.433557,396.02274 950.18672,411.016465 C949.169959,415.711815 946.952818,420.063199 943.751837,423.645634 L761.540542,627.570655 L789.088456,899.650576 C790.633846,914.913783 779.513357,928.539844 764.250149,930.085234 C759.470409,930.569179 754.646863,929.805205 750.250608,927.867924 L500,817.590982 Z" id="Star"></path>
            </g>
        </g>
    </g>
</svg>