<?xml version="1.0" encoding="UTF-8"?>
<svg width="1000px" height="1000px" viewBox="0 0 1000 1000" version="1.1" xmlns="http://www.w3.org/2000/svg" xmlns:xlink="http://www.w3.org/1999/xlink">
    <!-- Generator: sketchtool 53.2 (72643) - https://sketchapp.com -->
    <title>stop-circle-o</title>
    <desc>Created with sketchtool.</desc>
    <g id="icons" stroke="none" stroke-width="1" fill="none" fill-rule="evenodd">
        <g id="stop-circle-o" fill="#323233">
            <g id="圆角-停止-线-">
                <path d="M389.422253,360.863353 L611.644476,360.863353 C626.985719,360.863353 639.422253,373.299888 639.422253,388.641131 L639.422253,610.863353 C639.422253,626.204597 626.985719,638.641131 611.644476,638.641131 L389.422253,638.641131 C374.08101,638.641131 361.644476,626.204597 361.644476,610.863353 L361.644476,388.641131 C361.644476,373.299888 374.08101,360.863353 389.422253,360.863353 Z M500,888.888889 C714.777403,888.888889 888.888889,714.777403 888.888889,500 C888.888889,285.222597 714.777403,111.111111 500,111.111111 C285.222597,111.111111 111.111111,285.222597 111.111111,500 C111.111111,714.777403 285.222597,888.888889 500,888.888889 Z M500,944.444444 C254.540111,944.444444 55.5555556,745.459889 55.5555556,500 C55.5555556,254.540111 254.540111,55.5555556 500,55.5555556 C745.459889,55.5555556 944.444444,254.540111 944.444444,500 C944.444444,745.459889 745.459889,944.444444 500,944.444444 Z" id="Rectangle-19"></path>
            </g>
        </g>
    </g>
</svg>