<?xml version="1.0" encoding="UTF-8"?>
<svg width="1000px" height="1000px" viewBox="0 0 1000 1000" version="1.1" xmlns="http://www.w3.org/2000/svg" xmlns:xlink="http://www.w3.org/1999/xlink">
    <!-- Generator: sketchtool 53.2 (72643) - https://sketchapp.com -->
    <title>stop-circle</title>
    <desc>Created with sketchtool.</desc>
    <g id="icons" stroke="none" stroke-width="1" fill="none" fill-rule="evenodd">
        <g id="stop-circle" fill="#323233">
            <g id="Stop">
                <path d="M500,944.444444 C254.540111,944.444444 55.5555556,745.459889 55.5555556,500 C55.5555556,254.540111 254.540111,55.5555556 500,55.5555556 C745.459889,55.5555556 944.444444,254.540111 944.444444,500 C944.444444,745.459889 745.459889,944.444444 500,944.444444 Z M389.422253,360.863353 C374.08101,360.863353 361.644476,373.299888 361.644476,388.641131 L361.644476,610.863353 C361.644476,626.204597 374.08101,638.641131 389.422253,638.641131 L611.644476,638.641131 C626.985719,638.641131 639.422253,626.204597 639.422253,610.863353 L639.422253,388.641131 C639.422253,373.299888 626.985719,360.863353 611.644476,360.863353 L389.422253,360.863353 Z" id="Shape"></path>
            </g>
        </g>
    </g>
</svg>