<?xml version="1.0" encoding="UTF-8"?>
<svg width="1000px" height="1000px" viewBox="0 0 1000 1000" version="1.1" xmlns="http://www.w3.org/2000/svg" xmlns:xlink="http://www.w3.org/1999/xlink">
    <!-- Generator: sketchtool 53.2 (72643) - https://sketchapp.com -->
    <title>thumb-circle</title>
    <desc>Created with sketchtool.</desc>
    <g id="icons" stroke="none" stroke-width="1" fill="none" fill-rule="evenodd">
        <g id="thumb-circle" fill="#323233">
            <path d="M500,944.444444 C254.540111,944.444444 55.5555556,745.459889 55.5555556,500 C55.5555556,254.540111 254.540111,55.5555556 500,55.5555556 C745.459889,55.5555556 944.444444,254.540111 944.444444,500 C944.444444,745.459889 745.459889,944.444444 500,944.444444 Z M416.666667,672.802319 L416.666667,512.808999 C450.427561,501.789832 472.506346,462.679614 488.98761,404.112168 C495.163897,382.164253 500.055679,358.807379 503.823207,335.472742 C506.083665,321.472322 507.476153,310.5238 508.126879,304.111528 C508.33613,302.638342 510.999837,299.70822 513.164101,298.713145 C528.738021,297.793597 538.405878,307.928386 537.145397,324.380982 L530.841814,406.666841 C528.981927,431.262768 548.577513,450.207719 573.004359,447.322658 L647.932229,438.409911 C656.538579,437.384388 659.138591,440.284979 657.145884,448.55833 C656.760706,449.430167 655.609063,453.766877 654.524719,459.616827 C653.810274,463.471205 653.208493,467.600167 652.750574,471.98906 C652.004241,479.059945 652.657769,484.922562 654.431348,491.737872 C655.047966,494.027354 655.047966,494.027354 655.57338,495.895958 C657.060683,501.254634 657.450424,504.158079 657.024828,509.520593 C656.570366,515.180124 655.802213,518.190162 653.947465,522.919321 C653.478827,524.104488 653.478827,524.104488 652.938852,525.466792 C650.13974,532.576395 648.676561,537.958332 648.018576,545.594657 C647.273728,554.239092 647.797015,559.53526 649.529287,567.694652 C650.373187,571.670208 650.513163,572.974134 650.280188,576.240023 C649.916691,581.339222 649.063039,584.417659 647.366166,588.081404 C647.227598,588.380587 644.840896,593.237638 644.056929,595.050456 C642.591863,598.438225 641.559432,601.695486 640.965864,605.317772 C639.835986,612.198437 639.889154,618.541725 640.698546,624.112111 C641.185298,626.987249 641.185298,626.987249 641.532835,628.378446 C641.493655,631.070625 636.895841,637.078018 631.00989,638.033003 L416.666667,672.802319 Z M375,679.561205 L342.269048,684.8706 L342.269048,527.633878 C350.887297,526.030368 362.882141,523.782 375,521.478281 L375,679.561205 Z M448.878791,392.825283 C435.584497,440.067588 418.112856,469.886089 402.035161,473.675957 C398.511847,474.505176 386.707654,476.831948 369.838465,480.046073 L368.495599,480.301775 C355.088977,482.853038 341.67241,485.365568 332.738014,487.025192 C314.528339,490.410324 300.602381,507.112371 300.602381,525.615278 L300.602381,688.811706 C300.602381,712.944169 321.234314,730.490719 344.965203,726.644546 L637.682269,679.161952 C665.282589,674.683851 684.967216,648.964391 682.432766,621.203316 C682.000961,618.50097 682.000961,618.50097 681.932206,618.120749 C681.706214,616.565431 681.688603,614.464341 682.300624,611.589225 C682.600945,610.894773 684.651417,606.721968 685.174553,605.592458 C688.898166,597.552746 691.099095,589.615761 691.841315,579.203769 C692.397704,571.40422 691.871728,566.504563 690.254437,558.885641 C689.336056,554.55986 689.192413,553.10605 689.531424,549.171613 C689.79382,546.126332 690.260462,544.409908 691.708919,540.730902 C692.180602,539.541306 692.180602,539.541306 692.737528,538.132545 C695.988029,529.844549 697.747116,522.951499 698.559348,512.836373 C699.421421,501.974362 698.409114,494.433014 695.722313,484.752605 C695.158547,482.742476 695.158547,482.742476 694.754981,481.244271 C694.146259,478.90514 694.02937,477.856565 694.189677,476.337763 C694.534225,473.035613 694.977162,469.996515 695.493524,467.210785 C696.202338,463.386785 696.843854,460.971046 697.131262,460.122892 C706.464888,421.734387 680.337994,392.587043 643.006391,397.035435 L572.727973,405.395132 L578.690328,327.563715 C581.977918,284.652021 549.747902,253.271966 507.766556,257.223586 C507.142542,257.320182 506.521265,257.430588 505.903054,257.554448 C505.020912,257.661751 504.134696,257.784669 503.282053,258.164302 C484.650523,263.105326 469.32937,280.17482 466.754557,299.216456 C466.100228,305.550044 464.809016,315.702276 462.689235,328.831397 C459.156363,350.712663 454.578285,372.57169 448.878791,392.825283 Z" id="Combined-Shape"></path>
        </g>
    </g>
</svg>