<?xml version="1.0" encoding="UTF-8"?>
<svg width="1000px" height="1000px" viewBox="0 0 1000 1000" version="1.1" xmlns="http://www.w3.org/2000/svg" xmlns:xlink="http://www.w3.org/1999/xlink">
    <!-- Generator: sketchtool 53.2 (72643) - https://sketchapp.com -->
    <title>thumb-circle-o</title>
    <desc>Created with sketchtool.</desc>
    <g id="icons" stroke="none" stroke-width="1" fill="none" fill-rule="evenodd">
        <g id="thumb-circle-o" fill="#323233" fill-rule="nonzero">
            <g id="圆角-首页2" transform="translate(55.000000, 55.000000)">
                <path d="M361.666667,617.802319 L576.00989,583.033003 C581.895841,582.078018 586.493655,576.070625 586.532835,573.378446 C586.185298,571.987249 586.185298,571.987249 585.698546,569.112111 C584.889154,563.541725 584.835986,557.198437 585.965864,550.317772 C586.559432,546.695486 587.591863,543.438225 589.056929,540.050456 C589.840896,538.237638 592.227598,533.380587 592.366166,533.081404 C594.063039,529.417659 594.916691,526.339222 595.280188,521.240023 C595.513163,517.974134 595.373187,516.670208 594.529287,512.694652 C592.797015,504.53526 592.273728,499.239092 593.018576,490.594657 C593.676561,482.958332 595.13974,477.576395 597.938852,470.466792 C598.478827,469.104488 598.478827,469.104488 598.947465,467.919321 C600.802213,463.190162 601.570366,460.180124 602.024828,454.520593 C602.450424,449.158079 602.060683,446.254634 600.57338,440.895958 C600.047966,439.027354 600.047966,439.027354 599.431348,436.737872 C597.657769,429.922562 597.004241,424.059945 597.750574,416.98906 C598.208493,412.600167 598.810274,408.471205 599.524719,404.616827 C600.609063,398.766877 601.760706,394.430167 602.145884,393.55833 C604.138591,385.284979 601.538579,382.384388 592.932229,383.409911 L518.004359,392.322658 C493.577513,395.207719 473.981927,376.262768 475.841814,351.666841 L482.145397,269.380982 C483.405878,252.928386 473.738021,242.793597 458.164101,243.713145 C455.999837,244.70822 453.33613,247.638342 453.126879,249.111528 C452.476153,255.5238 451.083665,266.472322 448.823207,280.472742 C445.055679,303.807379 440.163897,327.164253 433.98761,349.112168 C417.506346,407.679614 395.427561,446.789832 361.666667,457.808999 L361.666667,617.802319 Z M320,624.561205 L320,466.478281 C307.882141,468.782 295.887297,471.030368 287.269048,472.633878 L287.269048,629.8706 L320,624.561205 Z M393.878791,337.825283 C399.578285,317.57169 404.156363,295.712663 407.689235,273.831397 C409.809016,260.702276 411.100228,250.550044 411.754557,244.216456 C414.32937,225.17482 429.650523,208.105326 448.282053,203.164302 C449.134696,202.784669 450.020912,202.661751 450.903054,202.554448 C451.521265,202.430588 452.142542,202.320182 452.766556,202.223586 C494.747902,198.271966 526.977918,229.652021 523.690328,272.563715 L517.727973,350.395132 L588.006391,342.035435 C625.337994,337.587043 651.464888,366.734387 642.131262,405.122892 C641.843854,405.971046 641.202338,408.386785 640.493524,412.210785 C639.977162,414.996515 639.534225,418.035613 639.189677,421.337763 C639.02937,422.856565 639.146259,423.90514 639.754981,426.244271 C640.158547,427.742476 640.158547,427.742476 640.722313,429.752605 C643.409114,439.433014 644.421421,446.974362 643.559348,457.836373 C642.747116,467.951499 640.988029,474.844549 637.737528,483.132545 C637.180602,484.541306 637.180602,484.541306 636.708919,485.730902 C635.260462,489.409908 634.79382,491.126332 634.531424,494.171613 C634.192413,498.10605 634.336056,499.55986 635.254437,503.885641 C636.871728,511.504563 637.397704,516.40422 636.841315,524.203769 C636.099095,534.615761 633.898166,542.552746 630.174553,550.592458 C629.651417,551.721968 627.600945,555.894773 627.300624,556.589225 C626.688603,559.464341 626.706214,561.565431 626.932206,563.120749 C627.000961,563.50097 627.000961,563.50097 627.432766,566.203316 C629.967216,593.964391 610.282589,619.683851 582.682269,624.161952 L289.965203,671.644546 C266.234314,675.490719 245.602381,657.944169 245.602381,633.811706 L245.602381,470.615278 C245.602381,452.112371 259.528339,435.410324 277.738014,432.025192 C286.67241,430.365568 300.088977,427.853038 313.495599,425.301775 L314.838465,425.046073 C331.707654,421.831948 343.511847,419.505176 347.035161,418.675957 C363.112856,414.886089 380.584497,385.067588 393.878791,337.825283 Z" id="Combined-Shape"></path>
                <path d="M445,833.888889 C659.777403,833.888889 833.888889,659.777403 833.888889,445 C833.888889,230.222597 659.777403,56.1111111 445,56.1111111 C230.222597,56.1111111 56.1111111,230.222597 56.1111111,445 C56.1111111,659.777403 230.222597,833.888889 445,833.888889 Z M445,889.444444 C199.540111,889.444444 0.555555556,690.459889 0.555555556,445 C0.555555556,199.540111 199.540111,0.555555556 445,0.555555556 C690.459889,0.555555556 889.444444,199.540111 889.444444,445 C889.444444,690.459889 690.459889,889.444444 445,889.444444 Z" id="椭圆形"></path>
            </g>
        </g>
    </g>
</svg>