<?xml version="1.0" encoding="UTF-8"?>
<svg width="1000px" height="1000px" viewBox="0 0 1000 1000" version="1.1" xmlns="http://www.w3.org/2000/svg" xmlns:xlink="http://www.w3.org/1999/xlink">
    <!-- Generator: sketchtool 53.2 (72643) - https://sketchapp.com -->
    <title>todo-list</title>
    <desc>Created with sketchtool.</desc>
    <g id="icons" stroke="none" stroke-width="1" fill="none" fill-rule="evenodd">
        <g id="todo-list" fill="#323233">
            <g id="Fill-4">
                <path d="M722.205556,555.572222 C814.261111,555.572222 888.872222,630.127778 888.872222,722.238889 C888.872222,814.294444 814.261111,888.905556 722.205556,888.905556 C630.15,888.905556 555.538889,814.294444 555.538889,722.238889 C555.538889,630.127778 630.15,555.572222 722.205556,555.572222 Z M803.816667,804.794444 C814.65,793.961111 814.65,776.35 803.816667,765.516667 L749.983333,711.627778 L749.983333,640.461111 C749.983333,625.183333 737.594444,612.683333 722.205556,612.683333 C706.872222,612.683333 694.427778,625.183333 694.427778,640.461111 L694.427778,711.627778 C694.427778,726.405556 700.316667,740.516667 710.705556,750.905556 L764.538889,804.794444 C775.372222,815.627778 792.983333,815.627778 803.816667,804.794444 Z M416.666667,555.555556 C432,555.555556 444.444444,543.111111 444.444444,527.777778 C444.444444,512.444444 432,500 416.666667,500 L305.555556,500 C290.222222,500 277.777778,512.444444 277.777778,527.777778 C277.777778,543.111111 290.222222,555.555556 305.555556,555.555556 L416.666667,555.555556 Z M305.555556,388.888889 C290.222222,388.888889 277.777778,401.333333 277.777778,416.666667 C277.777778,432 290.222222,444.444444 305.555556,444.444444 L527.777778,444.444444 C543.111111,444.444444 555.555556,432 555.555556,416.666667 C555.555556,401.333333 543.111111,388.888889 527.777778,388.888889 L305.555556,388.888889 Z M305.555556,277.777778 C290.222222,277.777778 277.777778,290.222222 277.777778,305.555556 C277.777778,320.888889 290.222222,333.333333 305.555556,333.333333 L638.888889,333.333333 C654.222222,333.333333 666.666667,320.888889 666.666667,305.555556 C666.666667,290.222222 654.222222,277.777778 638.888889,277.777778 L305.555556,277.777778 Z M722.222222,500 C599.5,500 500,599.5 500,722.222222 C500,788.944444 530.055556,848.166667 576.666667,888.888889 L222.222222,888.888889 C191.5,888.888889 166.666667,864.055556 166.666667,833.333333 L166.666667,166.666667 C166.666667,135.944444 191.5,111.111111 222.222222,111.111111 L777.777778,111.111111 C808.5,111.111111 833.333333,135.944444 833.333333,166.666667 L833.333333,530.833333 C800.5,511.722222 762.888889,500 722.222222,500 Z"></path>
            </g>
        </g>
    </g>
</svg>