<?xml version="1.0" encoding="UTF-8"?>
<svg width="1000px" height="1000px" viewBox="0 0 1000 1000" version="1.1" xmlns="http://www.w3.org/2000/svg" xmlns:xlink="http://www.w3.org/1999/xlink">
    <!-- Generator: sketchtool 53.2 (72643) - https://sketchapp.com -->
    <title>todo-list-o</title>
    <desc>Created with sketchtool.</desc>
    <g id="icons" stroke="none" stroke-width="1" fill="none" fill-rule="evenodd">
        <g id="todo-list-o" fill="#323233">
            <g id="圆角-待接单-线">
                <g id="Group-3">
                    <g transform="translate(166.666667, 111.111111)">
                        <path d="M55.5555556,0 L611.111111,0 C641.793597,-5.63628126e-15 666.666667,24.8730695 666.666667,55.5555556 L666.666667,305.555556 C666.666667,320.896799 654.230132,333.333333 638.888889,333.333333 C623.547646,333.333333 611.111111,320.896799 611.111111,305.555556 L611.111111,55.5555556 L55.5555556,55.5555556 L55.5555556,722.222222 L250,722.222222 C265.341243,722.222222 277.777778,734.658757 277.777778,750 C277.777778,765.341243 265.341243,777.777778 250,777.777778 L55.5555556,777.777778 C24.8730695,777.777778 0,752.904708 0,722.222222 L0,55.5555556 C6.16790569e-15,24.8730695 24.8730695,-5.63628126e-15 55.5555556,0 Z" id="Path"></path>
                        <path d="M555.555556,777.777778 C647.603014,777.777778 722.222222,703.158569 722.222222,611.111111 C722.222222,519.063653 647.603014,444.444444 555.555556,444.444444 C463.508097,444.444444 388.888889,519.063653 388.888889,611.111111 C388.888889,703.158569 463.508097,777.777778 555.555556,777.777778 Z M555.555556,833.333333 C432.825611,833.333333 333.333333,733.841056 333.333333,611.111111 C333.333333,488.381167 432.825611,388.888889 555.555556,388.888889 C678.2855,388.888889 777.777778,488.381167 777.777778,611.111111 C777.777778,733.841056 678.2855,833.333333 555.555556,833.333333 Z" id="Oval" fill-rule="nonzero"></path>
                        <path d="M527.777778,529.376678 C527.777778,514.035435 540.214313,501.5989 555.555556,501.5989 C570.896799,501.5989 583.333333,514.035435 583.333333,529.376678 L583.333333,600.552363 L637.167124,654.386154 C648.015021,665.234051 648.015021,682.821967 637.167124,693.669864 C626.319227,704.517761 608.731311,704.517761 597.883414,693.669864 L544.049623,639.836073 C533.630936,629.417385 527.777778,615.286612 527.777778,600.552363 L527.777778,529.376678 Z" id="Path-6" fill-rule="nonzero"></path>
                        <path d="M138.888889,166.666667 L472.222222,166.666667 C487.563465,166.666667 500,179.103201 500,194.444444 C500,209.785687 487.563465,222.222222 472.222222,222.222222 L138.888889,222.222222 C123.547646,222.222222 111.111111,209.785687 111.111111,194.444444 C111.111111,179.103201 123.547646,166.666667 138.888889,166.666667 Z" id="Rectangle-18"></path>
                        <path d="M138.888889,277.777778 L361.111111,277.777778 C376.452354,277.777778 388.888889,290.214313 388.888889,305.555556 C388.888889,320.896799 376.452354,333.333333 361.111111,333.333333 L138.888889,333.333333 C123.547646,333.333333 111.111111,320.896799 111.111111,305.555556 C111.111111,290.214313 123.547646,277.777778 138.888889,277.777778 Z" id="Rectangle-18-Copy"></path>
                        <path d="M138.888889,388.888889 L250,388.888889 C265.341243,388.888889 277.777778,401.325424 277.777778,416.666667 C277.777778,432.00791 265.341243,444.444444 250,444.444444 L138.888889,444.444444 C123.547646,444.444444 111.111111,432.00791 111.111111,416.666667 C111.111111,401.325424 123.547646,388.888889 138.888889,388.888889 Z" id="Rectangle-18-Copy-2"></path>
                    </g>
                </g>
            </g>
        </g>
    </g>
</svg>