<?xml version="1.0" encoding="UTF-8"?>
<svg width="1000px" height="1000px" viewBox="0 0 1000 1000" version="1.1" xmlns="http://www.w3.org/2000/svg" xmlns:xlink="http://www.w3.org/1999/xlink">
    <!-- Generator: sketchtool 53.2 (72643) - https://sketchapp.com -->
    <title>tosend</title>
    <desc>Created with sketchtool.</desc>
    <g id="icons" stroke="none" stroke-width="1" fill="none" fill-rule="evenodd">
        <g id="tosend" fill="#323233" fill-rule="nonzero">
            <g id="圆角-待发货-线" transform="translate(111.000000, 111.000000)">
                <path d="M55.6666667,166.777778 L55.6666667,722.333333 L722.333333,722.333333 L722.333333,166.777778 L55.6666667,166.777778 Z M0.111111111,111.222222 L777.888889,111.222222 L777.888889,722.333333 C777.888889,753.015819 753.015819,777.888889 722.333333,777.888889 L55.6666667,777.888889 C24.9841806,777.888889 0.111111111,753.015819 0.111111111,722.333333 L0.111111111,111.222222 Z M62.2241105,111.222222 L0.111111111,111.222222 L40.3114888,30.8214669 C49.7221562,12.000132 68.9589961,0.111111111 90.0018883,0.111111111 L687.998112,0.111111111 C709.041004,0.111111111 728.277844,12.000132 737.688511,30.8214669 L777.888889,111.222222 L715.77589,111.222222 L687.998112,55.6666667 L90.0018883,55.6666667 L62.2241105,111.222222 Z M402.693073,480.197455 L521.390494,554.728445 C527.316507,558.449433 529.544374,566.00083 526.587152,572.342613 C523.62993,578.684396 516.413179,581.831696 509.753569,579.683911 L333.552257,522.857384 L333.468518,522.857384 L333.471134,522.831221 L333.444444,522.822614 L333.479516,522.747403 L356.746603,290.076527 C357.438482,283.157739 363.260497,277.888889 370.213792,277.888889 C377.167088,277.888889 382.989102,283.157739 383.680981,290.076527 L402.693073,480.197455 Z" id="Rectangle-7-Copy"></path>
            </g>
        </g>
    </g>
</svg>