<?xml version="1.0" encoding="UTF-8"?>
<svg width="1000px" height="1000px" viewBox="0 0 1000 1000" version="1.1" xmlns="http://www.w3.org/2000/svg" xmlns:xlink="http://www.w3.org/1999/xlink">
    <!-- Generator: sketchtool 53.2 (72643) - https://sketchapp.com -->
    <title>tv-o</title>
    <desc>Created with sketchtool.</desc>
    <g id="icons" stroke="none" stroke-width="1" fill="none" fill-rule="evenodd">
        <g id="tv-o" fill="#323233">
            <g id="直角-视频教程-线">
                <path d="M166.666667,111.111111 L833.333333,111.111111 C864.055556,111.111111 888.888889,135.944444 888.888889,166.666667 L888.888889,666.666667 C888.888889,697.388889 864.055556,722.222222 833.333333,722.222222 L527.777778,722.222222 L527.777778,833.333333 L694.444444,833.333333 C709.785687,833.333333 722.222222,845.769868 722.222222,861.111111 C722.222222,876.452354 709.785687,888.888889 694.444444,888.888889 L305.555556,888.888889 C290.214313,888.888889 277.777778,876.452354 277.777778,861.111111 C277.777778,845.769868 290.214313,833.333333 305.555556,833.333333 L472.222222,833.333333 L472.222222,722.222222 L166.666667,722.222222 C135.944444,722.222222 111.111111,697.388889 111.111111,666.666667 L111.111111,166.666667 C111.111111,135.944444 135.944444,111.111111 166.666667,111.111111 Z M166.666667,666.666667 L833.333333,666.666667 L833.333333,166.666667 L166.666667,166.666667 L166.666667,666.666667 Z M616.976267,424.344256 L429.089267,518.287756 C415.367642,525.148568 398.682279,519.586781 391.821467,505.865156 C389.892919,502.008061 388.888889,497.75492 388.888889,493.442556 L388.888889,305.555556 C388.888889,290.214313 401.325424,277.777778 416.666667,277.777778 C420.97903,277.777778 425.232171,278.781808 429.089267,280.710356 L616.976267,374.653856 C630.697892,381.514669 636.25968,398.200031 629.398867,411.921656 C626.710986,417.297417 622.352028,421.656375 616.976267,424.344256 Z" id="Shape"></path>
            </g>
        </g>
    </g>
</svg>