<?xml version="1.0" encoding="UTF-8"?>
<svg width="1000px" height="1000px" viewBox="0 0 1000 1000" version="1.1" xmlns="http://www.w3.org/2000/svg" xmlns:xlink="http://www.w3.org/1999/xlink">
    <!-- Generator: sketchtool 53.2 (72643) - https://sketchapp.com -->
    <title>umbrella-circle</title>
    <desc>Created with sketchtool.</desc>
    <g id="icons" stroke="none" stroke-width="1" fill="none" fill-rule="evenodd">
        <g id="umbrella-circle" fill="#323233">
            <g id="umbrella">
                <path d="M748.1,500 L251.877778,500 C234.766667,500 222.1,484.777778 224.044444,467.722222 C238.988889,338.722222 342.655556,237.833333 472.211111,224.833333 L472.211111,194.444444 C472.211111,179.111111 484.655556,166.666667 499.988889,166.666667 C515.377778,166.666667 527.766667,179.111111 527.766667,194.444444 L527.766667,224.833333 C657.322222,237.833333 760.988889,338.722222 775.933333,467.722222 C777.877778,484.777778 765.266667,500 748.1,500 L748.1,500 Z M527.766667,722.222222 C527.766667,768.166667 490.377778,805.555556 444.433333,805.555556 C398.488889,805.555556 361.1,768.166667 361.1,722.222222 L361.1,694.444444 C361.1,679.111111 373.544444,666.666667 388.877778,666.666667 C404.266667,666.666667 416.655556,679.111111 416.655556,694.444444 L416.655556,722.222222 C416.655556,737.5 429.155556,750 444.433333,750 C459.766667,750 472.211111,737.5 472.211111,722.222222 L472.211111,555.555556 L527.766667,555.555556 L527.766667,722.222222 Z M499.988889,55.5555556 C254.544444,55.5555556 55.5444444,254.555556 55.5444444,500 C55.5444444,745.444444 254.544444,944.444444 499.988889,944.444444 C745.433333,944.444444 944.433333,745.444444 944.433333,500 C944.433333,254.555556 745.433333,55.5555556 499.988889,55.5555556 L499.988889,55.5555556 Z" id="Fill-1"></path>
            </g>
        </g>
    </g>
</svg>