<?xml version="1.0" encoding="UTF-8"?>
<svg width="1000px" height="1000px" viewBox="0 0 1000 1000" version="1.1" xmlns="http://www.w3.org/2000/svg" xmlns:xlink="http://www.w3.org/1999/xlink">
    <!-- Generator: sketchtool 53.2 (72643) - https://sketchapp.com -->
    <title>underway</title>
    <desc>Created with sketchtool.</desc>
    <g id="icons" stroke="none" stroke-width="1" fill="none" fill-rule="evenodd">
        <g id="underway" fill="#323233">
            <g id="圆角-播放-线--copy-2">
                <path d="M543.371057,511.23446 L516.210925,239.633134 C515.222527,229.749152 506.905363,222.222222 496.972084,222.222222 C487.038805,222.222222 478.721641,229.749152 477.733243,239.633134 L444.494547,572.020099 L444.444444,572.127544 L444.482572,572.13984 L444.478835,572.177216 L444.598462,572.177216 L696.314623,653.357968 C705.82835,656.426232 716.137996,651.93009 720.362599,642.8704 C724.587202,633.81071 721.404534,623.022999 712.938801,617.707303 L543.371057,511.23446 Z M500,944.444444 C254.540111,944.444444 55.5555556,745.459889 55.5555556,500 C55.5555556,254.540111 254.540111,55.5555556 500,55.5555556 C745.459889,55.5555556 944.444444,254.540111 944.444444,500 C944.444444,745.459889 745.459889,944.444444 500,944.444444 Z" id="Combined-Shape"></path>
            </g>
        </g>
    </g>
</svg>