<?xml version="1.0" encoding="UTF-8"?>
<svg width="1000px" height="1000px" viewBox="0 0 1000 1000" version="1.1" xmlns="http://www.w3.org/2000/svg" xmlns:xlink="http://www.w3.org/1999/xlink">
    <!-- Generator: sketchtool 53.2 (72643) - https://sketchapp.com -->
    <title>upgrade</title>
    <desc>Created with sketchtool.</desc>
    <g id="icons" stroke="none" stroke-width="1" fill="none" fill-rule="evenodd">
        <g id="upgrade" fill="#323233">
            <g id="直角-升级">
                <path d="M500,888.888889 C714.777403,888.888889 888.888889,714.777403 888.888889,500 C888.888889,285.222597 714.777403,111.111111 500,111.111111 C285.222597,111.111111 111.111111,285.222597 111.111111,500 C111.111111,714.777403 285.222597,888.888889 500,888.888889 Z M500,944.444444 C254.540111,944.444444 55.5555556,745.459889 55.5555556,500 C55.5555556,254.540111 254.540111,55.5555556 500,55.5555556 C745.459889,55.5555556 944.444444,254.540111 944.444444,500 C944.444444,745.459889 745.459889,944.444444 500,944.444444 Z" id="Oval" fill-rule="nonzero"></path>
                <path d="M471.82739,385.70225 L364.086289,493.443351 C353.238392,504.291248 335.650476,504.291248 324.802579,493.443351 C313.954682,482.595454 313.954682,465.007538 324.802579,454.159641 L501.579274,277.382946 L540.862984,316.666656 L678.355969,454.159641 C689.203866,465.007538 689.203866,482.595454 678.355969,493.443351 C667.508072,504.291248 649.920156,504.291248 639.072259,493.443351 L527.382946,381.754038 L527.382946,694.049613 C527.382946,709.390856 514.946411,721.82739 499.605168,721.82739 C484.263925,721.82739 471.82739,709.390856 471.82739,694.049613 L471.82739,385.70225 Z" id="Combined-Shape"></path>
            </g>
        </g>
    </g>
</svg>