<?xml version="1.0" encoding="UTF-8"?>
<svg width="1000px" height="1000px" viewBox="0 0 1000 1000" version="1.1" xmlns="http://www.w3.org/2000/svg" xmlns:xlink="http://www.w3.org/1999/xlink">
    <!-- Generator: sketchtool 53.2 (72643) - https://sketchapp.com -->
    <title>video</title>
    <desc>Created with sketchtool.</desc>
    <g id="icons" stroke="none" stroke-width="1" fill="none" fill-rule="evenodd">
        <g id="video" fill="#323233" fill-rule="nonzero">
            <g id="直角-视频教程-线">
                <path d="M888.888889,277.777778 L111.111111,277.777778 L111.111111,166.666667 C111.111111,135.984181 135.984181,111.111111 166.666667,111.111111 L833.333333,111.111111 C864.015819,111.111111 888.888889,135.984181 888.888889,166.666667 L888.888889,277.777778 Z M888.888889,333.333333 L888.888889,833.333333 C888.888889,864.015819 864.015819,888.888889 833.333333,888.888889 L166.666667,888.888889 C135.984181,888.888889 111.111111,864.015819 111.111111,833.333333 L111.111111,333.333333 L888.888889,333.333333 Z M277.777778,166.666667 L333.677299,277.777778 L389.232854,277.777778 L333.333333,166.666667 L277.777778,166.666667 Z M444.444444,166.666667 L500.343965,277.777778 L555.899521,277.777778 L500,166.666667 L444.444444,166.666667 Z M611.111111,166.666667 L667.010632,277.777778 L722.566188,277.777778 L666.666667,166.666667 L611.111111,166.666667 Z M616.976267,608.178533 C622.352028,605.490652 626.710986,601.131694 629.398867,595.755933 C636.25968,582.034308 630.697892,565.348946 616.976267,558.488134 L429.089267,464.544633 C425.232171,462.616086 420.97903,461.612055 416.666667,461.612055 C401.325424,461.612055 388.888889,474.04859 388.888889,489.389833 L388.888889,677.276834 C388.888889,681.589197 389.892919,685.842338 391.821467,689.699434 C398.682279,703.421058 415.367642,708.982846 429.089267,702.122033 L616.976267,608.178533 Z" id="Shape"></path>
            </g>
        </g>
    </g>
</svg>