<?xml version="1.0" encoding="UTF-8"?>
<svg width="1000px" height="1000px" viewBox="0 0 1000 1000" version="1.1" xmlns="http://www.w3.org/2000/svg" xmlns:xlink="http://www.w3.org/1999/xlink">
    <!-- Generator: sketchtool 53.2 (72643) - https://sketchapp.com -->
    <title>video-o</title>
    <desc>Created with sketchtool.</desc>
    <g id="icons" stroke="none" stroke-width="1" fill="none" fill-rule="evenodd">
        <g id="video-o" fill="#323233">
            <g id="直角-视频教程-线">
                <path d="M166.666667,166.666667 L166.666667,833.333333 L833.333333,833.333333 L833.333333,166.666667 L166.666667,166.666667 Z M166.666667,111.111111 L833.333333,111.111111 C864.015819,111.111111 888.888889,135.984181 888.888889,166.666667 L888.888889,833.333333 C888.888889,864.015819 864.015819,888.888889 833.333333,888.888889 L166.666667,888.888889 C135.984181,888.888889 111.111111,864.015819 111.111111,833.333333 L111.111111,166.666667 C111.111111,135.984181 135.984181,111.111111 166.666667,111.111111 Z" id="Rectangle-17-Copy" fill-rule="nonzero"></path>
                <polygon id="Rectangle-17" points="166.666667 277.777778 833.333333 277.777778 833.333333 333.333333 166.666667 333.333333"></polygon>
                <path d="M616.976267,608.178533 L429.089267,702.122033 C415.367642,708.982846 398.682279,703.421058 391.821467,689.699434 C389.892919,685.842338 388.888889,681.589197 388.888889,677.276834 L388.888889,489.389833 C388.888889,474.04859 401.325424,461.612055 416.666667,461.612055 C420.97903,461.612055 425.232171,462.616086 429.089267,464.544633 L616.976267,558.488134 C630.697892,565.348946 636.25968,582.034308 629.398867,595.755933 C626.710986,601.131694 622.352028,605.490652 616.976267,608.178533 L616.976267,608.178533 Z M555.555556,583.333333 L444.444444,527.777778 L444.444444,638.888889 L555.555556,583.333333 Z" id="Shape"></path>
                <polygon id="Rectangle-23" points="277.777778 166.666667 333.333333 166.666667 389.232854 277.777778 333.677299 277.777778"></polygon>
                <polygon id="Rectangle-23" points="444.444444 166.666667 500 166.666667 555.899521 277.777778 500.343965 277.777778"></polygon>
                <polygon id="Rectangle-23" points="611.111111 166.666667 666.666667 166.666667 722.566188 277.777778 667.010632 277.777778"></polygon>
            </g>
        </g>
    </g>
</svg>