<?xml version="1.0" encoding="UTF-8"?>
<svg width="1000px" height="1000px" viewBox="0 0 1000 1000" version="1.1" xmlns="http://www.w3.org/2000/svg" xmlns:xlink="http://www.w3.org/1999/xlink">
    <!-- Generator: sketchtool 53.2 (72643) - https://sketchapp.com -->
    <title>vip-card</title>
    <desc>Created with sketchtool.</desc>
    <g id="icons" stroke="none" stroke-width="1" fill="none" fill-rule="evenodd">
        <g id="vip-card" fill="#333333" fill-rule="nonzero">
            <g id="直角-会员卡-面">
                <path d="M944.444444,277.777778 L55.5555556,277.777778 L55.5555556,222.222222 C55.5555556,191.539736 80.428625,166.666667 111.111111,166.666667 L888.888889,166.666667 C919.571375,166.666667 944.444444,191.539736 944.444444,222.222222 L944.444444,277.777778 Z M944.444444,333.333333 L944.444444,777.777778 C944.444444,808.460264 919.571375,833.333333 888.888889,833.333333 L111.111111,833.333333 C80.428625,833.333333 55.5555556,808.460264 55.5555556,777.777778 L55.5555556,333.333333 L944.444444,333.333333 Z M239.833333,428.666667 L324.5,666.666667 L371.5,666.666667 L456.166667,428.666667 L413.833333,428.666667 L348.5,622.666667 L347.5,622.666667 L282.166667,428.666667 L239.833333,428.666667 Z M481.166667,428.666667 L481.166667,666.666667 L520.166667,666.666667 L520.166667,428.666667 L481.166667,428.666667 Z M566.833333,428.666667 L566.833333,666.666667 L605.833333,666.666667 L605.833333,575.333333 L664.833333,575.333333 C722.833333,575.333333 751.833333,550.666667 751.833333,501.666667 C751.833333,453 722.833333,428.666667 665.5,428.666667 L566.833333,428.666667 Z M605.833333,462 L662.5,462 C679.5,462 692.166667,465 700.166667,471.333333 C708.166667,477.333333 712.5,487.333333 712.5,501.666667 C712.5,516 708.5,526.333333 700.5,532.666667 C692.5,538.666667 679.833333,542 662.5,542 L605.833333,542 L605.833333,462 Z" id="Combined-Shape"></path>
            </g>
        </g>
    </g>
</svg>