<?xml version="1.0" encoding="UTF-8"?>
<svg width="1000px" height="1000px" viewBox="0 0 1000 1000" version="1.1" xmlns="http://www.w3.org/2000/svg" xmlns:xlink="http://www.w3.org/1999/xlink">
    <!-- Generator: sketchtool 53.2 (72643) - https://sketchapp.com -->
    <title>volume-o</title>
    <desc>Created with sketchtool.</desc>
    <g id="icons" stroke="none" stroke-width="1" fill="none" fill-rule="evenodd">
        <g id="volume-o" fill="#323233" fill-rule="nonzero">
            <g id="直角-通知-线">
                <path d="M291.666667,694.444444 L510.964912,848.25264 L510.964912,151.74736 L291.666667,305.555556 L111.111111,305.555556 L111.111111,694.444444 L291.666667,694.444444 Z M291.666667,750 L97.2222222,750 C74.2103576,750 55.5555556,733.210678 55.5555556,712.5 L55.5555556,287.5 C55.5555556,266.789322 74.2103576,250 97.2222222,250 L291.666667,250 L513.888889,83.3333333 C544.571375,83.3333333 569.444444,100.82221 569.444444,122.395833 L569.444444,877.604167 C569.444444,899.17779 544.571375,916.666667 513.888889,916.666667 L291.666667,750 Z" id="Shape"></path>
                <path d="M814.269681,185.730319 C894.698306,266.158944 944.444444,377.270056 944.444444,500 C944.444444,622.729944 894.698306,733.841056 814.269681,814.269681 L774.98597,774.98597 C845.361017,704.610924 888.888889,607.388701 888.888889,500 C888.888889,392.611299 845.361017,295.389076 774.98597,225.01403 L814.269681,185.730319 Z M696.41855,303.58145 C746.686441,353.84934 777.777778,423.293785 777.777778,500 C777.777778,576.706215 746.686441,646.15066 696.41855,696.41855 L657.13484,657.13484 C697.349153,616.920528 722.222222,561.364972 722.222222,500 C722.222222,438.635028 697.349153,383.079472 657.13484,342.86516 L696.41855,303.58145 Z M676.494447,704.98148 C661.153204,704.98148 648.716669,692.544945 648.716669,677.203702 C648.716669,661.862459 661.153204,649.425924 676.494447,649.425924 C691.83569,649.425924 704.272225,661.862459 704.272225,677.203702 C704.272225,692.544945 691.83569,704.98148 676.494447,704.98148 Z M677.541191,351.546213 C662.199948,351.546213 649.763414,339.109678 649.763414,323.768435 C649.763414,308.427192 662.199948,295.990657 677.541191,295.990657 C692.882434,295.990657 705.318969,308.427192 705.318969,323.768435 C705.318969,339.109678 692.882434,351.546213 677.541191,351.546213 Z M794.196367,822.653575 C778.855124,822.653575 766.41859,810.21704 766.41859,794.875797 C766.41859,779.534554 778.855124,767.098019 794.196367,767.098019 C809.53761,767.098019 821.974145,779.534554 821.974145,794.875797 C821.974145,810.21704 809.53761,822.653575 794.196367,822.653575 Z M794.304687,232.791327 C778.963444,232.791327 766.526909,220.354792 766.526909,205.013549 C766.526909,189.672306 778.963444,177.235771 794.304687,177.235771 C809.64593,177.235771 822.082465,189.672306 822.082465,205.013549 C822.082465,220.354792 809.64593,232.791327 794.304687,232.791327 Z" id="Shape"></path>
            </g>
        </g>
    </g>
</svg>