<?xml version="1.0" encoding="UTF-8"?>
<svg width="1000px" height="1000px" viewBox="0 0 1000 1000" version="1.1" xmlns="http://www.w3.org/2000/svg" xmlns:xlink="http://www.w3.org/1999/xlink">
    <!-- Generator: sketchtool 53.2 (72643) - https://sketchapp.com -->
    <title>volume</title>
    <desc>Created with sketchtool.</desc>
    <g id="icons" stroke="none" stroke-width="1" fill="none" fill-rule="evenodd">
        <g id="volume" fill="#323233">
            <g id="Fill-3">
                <path d="M513.511111,136.338889 C532.011111,125.227778 555.566667,138.561111 555.566667,160.172222 L555.566667,839.838889 C555.566667,861.45 532.011111,874.783333 513.511111,863.672222 L290.955556,730.116667 C282.344444,724.95 272.455556,722.227778 262.344444,722.227778 L111.122222,722.227778 C80.4,722.227778 55.5666667,697.394444 55.5666667,666.672222 L55.5666667,333.338889 C55.5666667,302.616667 80.4,277.783333 111.122222,277.783333 L262.344444,277.783333 C272.455556,277.783333 282.344444,275.061111 290.955556,269.838889 L513.511111,136.338889 Z M688.261111,283.961111 C745.983333,341.627778 777.761111,418.35 777.761111,500.016667 C777.761111,581.627778 745.983333,658.35 688.261111,716.016667 C682.816667,721.461111 675.705556,724.183333 668.594444,724.183333 C661.538889,724.183333 654.427778,721.461111 648.983333,716.016667 C638.15,705.183333 638.15,687.627778 648.983333,676.738889 C696.261111,629.572222 722.205556,566.794444 722.205556,500.016667 C722.205556,433.238889 696.261111,370.461111 648.983333,323.238889 C638.15,312.405556 638.15,294.794444 648.983333,283.961111 C659.816667,273.127778 677.427778,273.127778 688.261111,283.961111 Z M806.15,166.072222 C895.316667,255.294444 944.427778,373.905556 944.427778,500.016667 C944.427778,626.072222 895.316667,744.683333 806.15,833.905556 C800.705556,839.35 793.594444,842.072222 786.483333,842.072222 C779.427778,842.072222 772.316667,839.35 766.872222,833.905556 C756.038889,823.072222 756.038889,805.516667 766.872222,794.627778 C845.538889,715.905556 888.872222,611.294444 888.872222,500.016667 C888.872222,388.738889 845.538889,284.072222 766.872222,205.35 C756.038889,194.516667 756.038889,176.905556 766.872222,166.072222 C777.705556,155.238889 795.316667,155.238889 806.15,166.072222 Z"></path>
            </g>
        </g>
    </g>
</svg>