<?xml version="1.0" encoding="UTF-8"?>
<svg width="1000px" height="1000px" viewBox="0 0 1000 1000" version="1.1" xmlns="http://www.w3.org/2000/svg" xmlns:xlink="http://www.w3.org/1999/xlink">
    <!-- Generator: sketchtool 53.2 (72643) - https://sketchapp.com -->
    <title>wap-nav</title>
    <desc>Created with sketchtool.</desc>
    <g id="icons" stroke="none" stroke-width="1" fill="none" fill-rule="evenodd">
        <g id="wap-nav" fill="#323233">
            <g id="圆角-导航入口">
                <path d="M159.722222,222.222222 L840.277778,222.222222 C867.124953,222.222222 888.888889,243.986158 888.888889,270.833333 C888.888889,297.680509 867.124953,319.444444 840.277778,319.444444 L159.722222,319.444444 C132.875047,319.444444 111.111111,297.680509 111.111111,270.833333 C111.111111,243.986158 132.875047,222.222222 159.722222,222.222222 Z M159.722222,465.277778 L840.277778,465.277778 C867.124953,465.277778 888.888889,487.041714 888.888889,513.888889 C888.888889,540.736064 867.124953,562.5 840.277778,562.5 L159.722222,562.5 C132.875047,562.5 111.111111,540.736064 111.111111,513.888889 C111.111111,487.041714 132.875047,465.277778 159.722222,465.277778 Z M159.722222,708.333333 L840.277778,708.333333 C867.124953,708.333333 888.888889,730.097269 888.888889,756.944444 C888.888889,783.79162 867.124953,805.555556 840.277778,805.555556 L159.722222,805.555556 C132.875047,805.555556 111.111111,783.79162 111.111111,756.944444 C111.111111,730.097269 132.875047,708.333333 159.722222,708.333333 Z" id="Shape"></path>
            </g>
        </g>
    </g>
</svg>