<?xml version="1.0" encoding="UTF-8"?>
<svg width="1000px" height="1000px" viewBox="0 0 1000 1000" version="1.1" xmlns="http://www.w3.org/2000/svg" xmlns:xlink="http://www.w3.org/1999/xlink">
    <!-- Generator: sketchtool 53.2 (72643) - https://sketchapp.com -->
    <title>wap-home</title>
    <desc>Created with sketchtool.</desc>
    <defs>
        <path d="M535.866566,115.378809 L885.696633,415.233152 C897.34821,425.220218 898.697562,442.761803 888.710497,454.413379 C878.723431,466.064955 861.181846,467.414308 849.53027,457.427243 L833.116438,443.328747 L833.137598,843.423673 C833.137598,874.115749 808.212057,899 777.464855,899 L610.842756,899 C580.09556,899 555.170037,874.115687 555.170037,843.423673 L555.170031,676.704976 L444.127303,676.704976 L444.127303,843.423673 L443.60486,843.42709 C443.604866,874.119155 418.679341,899 387.931559,899 L221.935537,899 C191.188337,899 166.262807,874.115734 166.262807,843.423673 L166.241647,443.328747 L149.870135,457.427243 C138.218559,467.414308 120.676974,466.064955 110.689908,454.413379 C100.702843,442.761803 102.052195,425.220218 113.703772,415.233152 L463.533839,115.378809 C484.345319,97.5403971 515.055086,97.5403971 535.866566,115.378809 Z" id="path-1"></path>
    </defs>
    <g id="icons" stroke="none" stroke-width="1" fill="none" fill-rule="evenodd">
        <g id="wap-home">
            <mask id="mask-2" fill="white">
                <use xlink:href="#path-1"></use>
            </mask>
            <use id="路径" fill="#323233" xlink:href="#path-1"></use>
        </g>
    </g>
</svg>