<?xml version="1.0" encoding="UTF-8"?>
<svg width="1000px" height="1000px" viewBox="0 0 1000 1000" version="1.1" xmlns="http://www.w3.org/2000/svg" xmlns:xlink="http://www.w3.org/1999/xlink">
    <!-- Generator: sketchtool 53.2 (72643) - https://sketchapp.com -->
    <title>wap-home-o</title>
    <desc>Created with sketchtool.</desc>
    <g id="icons" stroke="none" stroke-width="1" fill="none" fill-rule="evenodd">
        <g id="wap-home-o" fill="#323233" fill-rule="nonzero">
            <g id="首页" transform="translate(104.000000, 92.000000)">
                <path d="M7.11111111,352.444444 C-2.87283752,340.796504 -1.52390594,323.260394 10.1240341,313.276445 L359.844924,13.5156826 C380.649909,-4.31716163 411.350091,-4.31716163 432.155076,13.5156826 L781.875966,313.276445 C793.523906,323.260394 794.872838,340.796504 784.888889,352.444444 C774.90494,364.092385 757.36883,365.441316 745.72089,355.457367 L396,55.696605 L46.2791104,355.457367 C34.6311704,365.441316 17.0950597,364.092385 7.11111111,352.444444 Z" id="Path"></path>
                <path d="M339.922164,741.336749 C339.92217,772.019235 315.004424,796.892309 284.266238,796.892315 L118.322021,796.888885 C87.5844178,796.888885 62.6666667,772.015816 62.6666667,741.333329 L62.6666667,269.111111 L118.322027,269.111112 L118.322021,741.333329 L284.266809,741.33676 L284.238987,574.670141 C284.235144,543.987655 309.14978,519.111476 339.89173,519.107639 L451.452518,519.111112 C482.190121,519.111112 507.107872,543.984181 507.107872,574.666667 L507.10788,741.333287 L673.677979,741.333343 L673.677914,285.179796 L729.333268,285.179787 L729.333333,741.333344 C729.333327,772.01583 704.415572,796.888895 673.677965,796.888889 L507.107867,796.888842 C476.370267,796.888836 451.452523,772.015769 451.452523,741.333288 L451.452518,574.666668 L339.894342,574.663195 L339.922164,741.336749 Z" id="Path-5"></path>
            </g>
        </g>
    </g>
</svg>