<?xml version="1.0" encoding="UTF-8"?>
<svg width="1000px" height="1000px" viewBox="0 0 1000 1000" version="1.1" xmlns="http://www.w3.org/2000/svg" xmlns:xlink="http://www.w3.org/1999/xlink">
    <!-- Generator: sketchtool 53.2 (72643) - https://sketchapp.com -->
    <title>warning</title>
    <desc>Created with sketchtool.</desc>
    <g id="icons" stroke="none" stroke-width="1" fill="none" fill-rule="evenodd">
        <g id="warning">
            <g id="直角-详细信息-面" transform="translate(55.000000, 55.000000)"></g>
            <path d="M500,944.444444 C254.540111,944.444444 55.5555556,745.459889 55.5555556,500 C55.5555556,254.540111 254.540111,55.5555556 500,55.5555556 C745.459889,55.5555556 944.444444,254.540111 944.444444,500 C944.444444,745.459889 745.459889,944.444444 500,944.444444 Z M463.896416,257.624061 L472.123413,625.709273 C472.258287,631.743707 476.854151,636.111111 482.403023,636.111111 L523.152609,636.111111 C528.425416,636.111111 533.303818,631.454049 533.432219,625.709273 L541.659215,257.624061 C541.79409,251.589627 537.312959,247.222222 531.664789,247.222222 L473.890843,247.222222 C467.869792,247.222222 463.768016,251.879284 463.896416,257.624061 Z M502.777778,752.777778 C524.255518,752.777778 541.666667,735.366629 541.666667,713.888889 C541.666667,692.411149 524.255518,675 502.777778,675 C481.300038,675 463.888889,692.411149 463.888889,713.888889 C463.888889,735.366629 481.300038,752.777778 502.777778,752.777778 Z" id="Combined-Shape" fill="#323233"></path>
        </g>
    </g>
</svg>