<?xml version="1.0" encoding="UTF-8"?>
<svg width="1000px" height="1000px" viewBox="0 0 1000 1000" version="1.1" xmlns="http://www.w3.org/2000/svg" xmlns:xlink="http://www.w3.org/1999/xlink">
    <!-- Generator: sketchtool 53.2 (72643) - https://sketchapp.com -->
    <title>warn-o</title>
    <desc>Created with sketchtool.</desc>
    <g id="icons" stroke="none" stroke-width="1" fill="none" fill-rule="evenodd">
        <g id="warn-o" fill="#323233">
            <g id="直角-消息类型－处罚信息">
                <path d="M497.454746,222.232782 L166.666667,830.192897 L828.242825,830.192897 L497.454746,222.232782 Z M546.254585,195.681032 L877.042665,803.641146 C891.706791,830.592553 881.745983,864.328609 854.794575,878.992736 C846.646757,883.425923 837.518605,885.748452 828.242825,885.748452 L166.666667,885.748452 C135.984181,885.748452 111.111111,860.875383 111.111111,830.192897 C111.111111,820.917117 113.43364,811.788965 117.866827,803.641146 L448.654907,195.681032 C463.319033,168.729625 497.055089,158.768816 524.006496,173.432943 C533.41147,178.550142 541.137386,186.276058 546.254585,195.681032 Z" id="直角-消息类型－处罚信息-线" fill-rule="nonzero"></path>
                <path d="M472.48422,400.029529 C472.392505,395.926117 475.322345,392.599644 479.623096,392.599644 L520.8902,392.599644 C524.924607,392.599644 528.125415,395.719219 528.029076,400.029529 L522.15265,662.947537 C522.060935,667.050949 518.576362,670.377422 514.810071,670.377422 L485.703224,670.377422 C481.739745,670.377422 478.456985,667.257847 478.360646,662.947537 L472.48422,400.029529 Z M500.256621,753.710755 C484.915378,753.710755 472.478843,741.27422 472.478843,725.932977 C472.478843,710.591734 484.915378,698.1552 500.256621,698.1552 C515.597864,698.1552 528.034398,710.591734 528.034398,725.932977 C528.034398,741.27422 515.597864,753.710755 500.256621,753.710755 Z" id="Shape"></path>
            </g>
        </g>
    </g>
</svg>