<?xml version="1.0" encoding="UTF-8"?>
<svg width="1000px" height="1000px" viewBox="0 0 1000 1000" version="1.1" xmlns="http://www.w3.org/2000/svg" xmlns:xlink="http://www.w3.org/1999/xlink">
    <!-- Generator: sketchtool 53.2 (72643) - https://sketchapp.com -->
    <title>warning-o</title>
    <desc>Created with sketchtool.</desc>
    <g id="icons" stroke="none" stroke-width="1" fill="none" fill-rule="evenodd">
        <g id="warning-o" fill="#323233">
            <g id="圆角-认证通过-线">
                <g transform="translate(55.555556, 55.555556)">
                    <path d="M444.444444,833.333333 C659.221847,833.333333 833.333333,659.221847 833.333333,444.444444 C833.333333,229.667042 659.221847,55.5555556 444.444444,55.5555556 C229.667042,55.5555556 55.5555556,229.667042 55.5555556,444.444444 C55.5555556,659.221847 229.667042,833.333333 444.444444,833.333333 Z M444.444444,888.888889 C198.984556,888.888889 0,689.904333 0,444.444444 C0,198.984556 198.984556,0 444.444444,0 C689.904333,0 888.888889,198.984556 888.888889,444.444444 C888.888889,689.904333 689.904333,888.888889 444.444444,888.888889 Z" id="Oval-4" fill-rule="nonzero"></path>
                    <path d="M408.340861,202.068505 C408.21246,196.323728 412.314237,191.666667 418.335287,191.666667 L476.109233,191.666667 C481.757403,191.666667 486.238534,196.034071 486.10366,202.068505 L477.876663,570.153717 C477.748263,575.898494 472.869861,580.555556 467.597053,580.555556 L426.847467,580.555556 C421.298596,580.555556 416.702732,576.188151 416.567857,570.153717 L408.340861,202.068505 Z M447.222222,697.222222 C425.744482,697.222222 408.333333,679.811074 408.333333,658.333333 C408.333333,636.855593 425.744482,619.444444 447.222222,619.444444 C468.699962,619.444444 486.111111,636.855593 486.111111,658.333333 C486.111111,679.811074 468.699962,697.222222 447.222222,697.222222 Z" id="Shape"></path>
                </g>
            </g>
        </g>
    </g>
</svg>