<?xml version="1.0" encoding="UTF-8"?>
<svg width="1000px" height="1000px" viewBox="0 0 1000 1000" version="1.1" xmlns="http://www.w3.org/2000/svg" xmlns:xlink="http://www.w3.org/1999/xlink">
    <!-- Generator: sketchtool 53.2 (72643) - https://sketchapp.com -->
    <title>weapp-nav</title>
    <desc>Created with sketchtool.</desc>
    <g id="icons" stroke="none" stroke-width="1" fill="none" fill-rule="evenodd">
        <g id="weapp-nav" fill="#000000">
            <g id="more_mini_apps">
                <path d="M500,666.666667 C407.952542,666.666667 333.333333,592.047458 333.333333,500 C333.333333,407.952542 407.952542,333.333333 500,333.333333 C592.047458,333.333333 666.666667,407.952542 666.666667,500 C666.666667,592.047458 592.047458,666.666667 500,666.666667 Z M888.888889,611.111111 C827.523917,611.111111 777.777778,561.364972 777.777778,500 C777.777778,438.635028 827.523917,388.888889 888.888889,388.888889 C950.253861,388.888889 1000,438.635028 1000,500 C1000,561.364972 950.253861,611.111111 888.888889,611.111111 Z M111.111111,611.111111 C49.7461389,611.111111 0,561.364972 0,500 C0,438.635028 49.7461389,388.888889 111.111111,388.888889 C172.476083,388.888889 222.222222,438.635028 222.222222,500 C222.222222,561.364972 172.476083,611.111111 111.111111,611.111111 Z" id="Shape"></path>
            </g>
        </g>
    </g>
</svg>