<?xml version="1.0" encoding="UTF-8"?>
<svg width="1000px" height="1000px" viewBox="0 0 1000 1000" version="1.1" xmlns="http://www.w3.org/2000/svg" xmlns:xlink="http://www.w3.org/1999/xlink">
    <!-- Generator: sketchtool 53.2 (72643) - https://sketchapp.com -->
    <title>youzan-shield</title>
    <desc>Created with sketchtool.</desc>
    <g id="icons" stroke="none" stroke-width="1" fill="none" fill-rule="evenodd">
        <g id="youzan-shield" fill="#323233">
            <g id="有赞担保">
                <path d="M579.337916,67.3840001 L888.888889,161.212382 L888.888889,560.362685 C888.888889,627.542288 888.888889,804.912101 527.780659,944.444444 C166.701238,804.912101 166.666667,627.542288 166.666667,560.362685 L166.666667,161.212382 L482.572987,65.9839307 C485.309878,65.1593135 487.960341,64.1329914 490.558946,63.0710744 C524.663484,49.1712325 554.244951,57.9513289 565.636177,62.5074871 C570.101631,64.2931689 574.653512,65.9661332 579.337916,67.3840001 Z M333.333333,502.872978 L333.333333,692.070551 C336.632785,698.800877 343.735924,702.661248 351.951669,701.288171 L400.149975,693.257924 L400.149975,481.69721 C378.341804,486.047162 346.733931,492.074068 346.733931,492.074068 C340.984554,493.177031 335.969606,497.459454 333.333333,502.872978 Z M420.999003,689.785841 L652.77728,651.176503 C669.833582,648.340312 682.02292,631.672063 680.433483,613.917733 C680.433483,613.917733 678.833084,607.592577 680.263577,598.645069 C681.694071,589.697562 688.747882,584.779247 690.046836,566.028873 C691.060787,551.521531 686.396612,549.568836 687.701046,534.059824 C689.005481,518.556438 695.37419,516.057889 696.947185,495.911929 C698.520179,475.754715 691.088191,470.819518 692.518685,456.914304 C693.938216,443.014717 696.552566,435.108272 696.552566,435.108272 C702.093672,411.422701 687.569507,394.546239 664.128052,397.404939 L586.886896,406.853282 C575.278525,408.26575 566.602392,399.672767 567.501246,387.635837 L573.985052,300.659314 C576.413054,268.059999 553.004484,245.696859 521.709018,250.699584 L525.748381,250.052438 C513.942701,251.943232 503.227703,263.389288 501.621824,275.589411 C501.621824,275.589411 483.573493,458.259243 420.999003,477.217829 L420.999003,689.785841 Z" id="Shape"></path>
            </g>
        </g>
    </g>
</svg>